M48
;GenerationSoftware,Autodesk,EAGLE,9.5.1*%
;CreationDate,2019-11-06T14:06:54Z*%
FMAT,2
ICI,OFF
METRIC,TZ,000.000
T1C0.200
%
G90
M71
T1
X19783Y12250
X19750Y13500
X2000Y18000
X2000Y16000
X3000Y16000
X15250Y30000
X20500Y28000
X23000Y28000
X4052Y17000
X18000Y32000
X15500Y3000
X25000Y7000
X5000Y11000
X10000Y28000
X21500Y4500
X30500Y13500
X18500Y27500
X23000Y23000
X14000Y30000
X18250Y14250
X22000Y24250
X16000Y19000
X19250Y27500
X4500Y12000
X12750Y31000
X20000Y4000
X27000Y11000
X23500Y21500
X22500Y21500
X19000Y10000
X19750Y11500
X21056Y32208
X11000Y25000
X28000Y22000
X9000Y26000
X11000Y24000
X7000Y9000
X25000Y26000
X7000Y10000
X6000Y22000
X29000Y18000
X26000Y27000
X11000Y22000
X15000Y21000
X14750Y11250
X15000Y28000
X19000Y21000
X15500Y14500
X18000Y28000
X14250Y25500
X15428Y25500
M30