G04 EAGLE Gerber RS-274X export*
G75*
%MOMM*%
%FSLAX34Y34*%
%LPD*%
%INTop Copper*%
%IPPOS*%
%AMOC8*
5,1,8,0,0,1.08239X$1,22.5*%
G01*
%ADD10R,0.925000X0.740000*%
%ADD11R,0.600000X0.700000*%
%ADD12R,1.000000X1.000000*%
%ADD13R,0.300000X0.650000*%
%ADD14R,0.650000X0.300000*%
%ADD15C,0.175000*%
%ADD16R,0.772800X0.270000*%
%ADD17R,0.270000X0.772800*%
%ADD18R,2.000000X1.200000*%
%ADD19R,0.740000X0.925000*%
%ADD20R,1.524000X0.762000*%
%ADD21C,0.152400*%
%ADD22P,0.487075X8X22.500000*%

G36*
X181924Y2971D02*
X181924Y2971D01*
X182000Y2973D01*
X205543Y6358D01*
X205574Y6368D01*
X205649Y6381D01*
X228469Y13082D01*
X228499Y13096D01*
X228571Y13120D01*
X250206Y23000D01*
X250233Y23018D01*
X250301Y23052D01*
X270310Y35911D01*
X270334Y35933D01*
X270397Y35976D01*
X288372Y51551D01*
X288393Y51577D01*
X288449Y51628D01*
X304024Y69603D01*
X304041Y69631D01*
X304089Y69690D01*
X316948Y89699D01*
X316961Y89729D01*
X317000Y89794D01*
X326880Y111429D01*
X326889Y111460D01*
X326918Y111531D01*
X333619Y134351D01*
X333623Y134384D01*
X333642Y134457D01*
X337027Y158000D01*
X337026Y158028D01*
X337034Y158081D01*
X337459Y169973D01*
X337456Y169993D01*
X337459Y170027D01*
X337034Y181919D01*
X337029Y181947D01*
X337027Y182000D01*
X333642Y205543D01*
X333632Y205574D01*
X333619Y205649D01*
X326918Y228469D01*
X326904Y228499D01*
X326880Y228571D01*
X317000Y250206D01*
X316982Y250233D01*
X316948Y250301D01*
X304089Y270310D01*
X304067Y270334D01*
X304024Y270397D01*
X288449Y288372D01*
X288423Y288393D01*
X288372Y288449D01*
X270397Y304024D01*
X270369Y304041D01*
X270310Y304089D01*
X250301Y316948D01*
X250271Y316961D01*
X250206Y317000D01*
X228571Y326880D01*
X228540Y326889D01*
X228469Y326918D01*
X205649Y333619D01*
X205616Y333623D01*
X205543Y333642D01*
X182000Y337027D01*
X181968Y337026D01*
X181892Y337035D01*
X158108Y337035D01*
X158076Y337029D01*
X158000Y337027D01*
X134457Y333642D01*
X134426Y333632D01*
X134351Y333619D01*
X111531Y326918D01*
X111501Y326904D01*
X111429Y326880D01*
X89794Y317000D01*
X89767Y316982D01*
X89699Y316948D01*
X69690Y304089D01*
X69666Y304067D01*
X69603Y304024D01*
X51628Y288449D01*
X51607Y288424D01*
X51551Y288372D01*
X35976Y270397D01*
X35959Y270369D01*
X35911Y270310D01*
X23052Y250301D01*
X23039Y250271D01*
X23000Y250206D01*
X13120Y228571D01*
X13111Y228540D01*
X13082Y228469D01*
X6381Y205649D01*
X6377Y205616D01*
X6358Y205543D01*
X2973Y182000D01*
X2974Y181972D01*
X2966Y181919D01*
X2541Y170027D01*
X2543Y170017D01*
X2541Y170000D01*
X2542Y169989D01*
X2541Y169973D01*
X2966Y158081D01*
X2971Y158053D01*
X2973Y158000D01*
X6358Y134457D01*
X6368Y134426D01*
X6381Y134351D01*
X13082Y111531D01*
X13096Y111501D01*
X13120Y111429D01*
X23000Y89794D01*
X23018Y89767D01*
X23052Y89699D01*
X35911Y69690D01*
X35933Y69666D01*
X35976Y69603D01*
X51551Y51628D01*
X51576Y51607D01*
X51628Y51551D01*
X69603Y35976D01*
X69631Y35959D01*
X69690Y35911D01*
X89699Y23052D01*
X89729Y23039D01*
X89794Y23000D01*
X111429Y13120D01*
X111460Y13111D01*
X111531Y13082D01*
X134351Y6381D01*
X134384Y6377D01*
X134457Y6358D01*
X158000Y2973D01*
X158032Y2974D01*
X158108Y2965D01*
X181892Y2965D01*
X181924Y2971D01*
G37*
%LPC*%
G36*
X46696Y61263D02*
X46696Y61263D01*
X41503Y67452D01*
X41750Y70271D01*
X42413Y70827D01*
X42484Y70911D01*
X42558Y70991D01*
X42564Y71004D01*
X42573Y71014D01*
X42614Y71116D01*
X42659Y71216D01*
X42660Y71229D01*
X42666Y71242D01*
X42672Y71352D01*
X42683Y71460D01*
X42680Y71474D01*
X42681Y71487D01*
X42652Y71593D01*
X42627Y71700D01*
X42619Y71715D01*
X42617Y71725D01*
X42601Y71749D01*
X42547Y71847D01*
X34175Y83804D01*
X34098Y83882D01*
X34024Y83963D01*
X34013Y83970D01*
X34003Y83980D01*
X33906Y84030D01*
X33810Y84083D01*
X33796Y84086D01*
X33784Y84092D01*
X33676Y84108D01*
X33568Y84128D01*
X33554Y84126D01*
X33541Y84128D01*
X33433Y84109D01*
X33324Y84094D01*
X33309Y84087D01*
X33299Y84085D01*
X33274Y84072D01*
X33171Y84026D01*
X32421Y83594D01*
X29688Y84326D01*
X25648Y91323D01*
X26380Y94056D01*
X27130Y94489D01*
X27215Y94559D01*
X27302Y94625D01*
X27310Y94636D01*
X27320Y94645D01*
X27379Y94738D01*
X27440Y94829D01*
X27444Y94842D01*
X27451Y94853D01*
X27477Y94961D01*
X27506Y95066D01*
X27505Y95079D01*
X27508Y95092D01*
X27499Y95202D01*
X27493Y95311D01*
X27488Y95327D01*
X27487Y95337D01*
X27475Y95364D01*
X27439Y95470D01*
X21270Y108699D01*
X21209Y108790D01*
X21150Y108882D01*
X21140Y108891D01*
X21132Y108902D01*
X21045Y108968D01*
X20959Y109038D01*
X20947Y109042D01*
X20936Y109051D01*
X20832Y109085D01*
X20729Y109124D01*
X20715Y109124D01*
X20702Y109129D01*
X20593Y109129D01*
X20483Y109132D01*
X20467Y109128D01*
X20457Y109128D01*
X20430Y109119D01*
X20320Y109093D01*
X19507Y108797D01*
X16942Y109993D01*
X14179Y117585D01*
X15375Y120149D01*
X16188Y120446D01*
X16284Y120499D01*
X16381Y120549D01*
X16391Y120559D01*
X16403Y120566D01*
X16476Y120647D01*
X16553Y120726D01*
X16558Y120738D01*
X16568Y120748D01*
X16612Y120849D01*
X16659Y120948D01*
X16660Y120961D01*
X16666Y120974D01*
X16675Y121083D01*
X16688Y121192D01*
X16686Y121208D01*
X16687Y121219D01*
X16680Y121247D01*
X16663Y121358D01*
X12885Y135457D01*
X12840Y135557D01*
X12799Y135659D01*
X12790Y135669D01*
X12784Y135681D01*
X12710Y135761D01*
X12638Y135845D01*
X12626Y135852D01*
X12617Y135862D01*
X12521Y135914D01*
X12426Y135970D01*
X12413Y135972D01*
X12401Y135979D01*
X12292Y135998D01*
X12185Y136021D01*
X12169Y136020D01*
X12158Y136021D01*
X12130Y136017D01*
X12018Y136010D01*
X11166Y135860D01*
X8848Y137483D01*
X7445Y145439D01*
X9068Y147757D01*
X9920Y147908D01*
X10024Y147944D01*
X10128Y147976D01*
X10139Y147984D01*
X10152Y147989D01*
X10239Y148056D01*
X10328Y148121D01*
X10336Y148132D01*
X10346Y148140D01*
X10407Y148231D01*
X10471Y148321D01*
X10475Y148334D01*
X10482Y148345D01*
X10510Y148451D01*
X10542Y148556D01*
X10543Y148572D01*
X10545Y148583D01*
X10544Y148611D01*
X10546Y148724D01*
X9274Y163264D01*
X9247Y163370D01*
X9224Y163478D01*
X9217Y163490D01*
X9213Y163503D01*
X9154Y163595D01*
X9097Y163689D01*
X9087Y163698D01*
X9080Y163709D01*
X8994Y163777D01*
X8911Y163849D01*
X8898Y163854D01*
X8887Y163862D01*
X8784Y163900D01*
X8682Y163941D01*
X8666Y163943D01*
X8656Y163946D01*
X8627Y163947D01*
X8516Y163959D01*
X7650Y163959D01*
X5649Y165960D01*
X5649Y174040D01*
X7650Y176041D01*
X8516Y176041D01*
X8624Y176058D01*
X8733Y176072D01*
X8745Y176078D01*
X8758Y176080D01*
X8855Y176132D01*
X8954Y176180D01*
X8964Y176189D01*
X8976Y176196D01*
X9051Y176275D01*
X9130Y176352D01*
X9136Y176364D01*
X9145Y176374D01*
X9191Y176473D01*
X9241Y176571D01*
X9244Y176587D01*
X9249Y176597D01*
X9252Y176625D01*
X9274Y176736D01*
X10546Y191276D01*
X10538Y191386D01*
X10534Y191495D01*
X10529Y191508D01*
X10528Y191522D01*
X10485Y191623D01*
X10446Y191725D01*
X10437Y191736D01*
X10432Y191748D01*
X10359Y191831D01*
X10290Y191915D01*
X10278Y191922D01*
X10269Y191932D01*
X10174Y191987D01*
X10081Y192045D01*
X10065Y192050D01*
X10056Y192055D01*
X10028Y192061D01*
X9920Y192092D01*
X9068Y192243D01*
X7445Y194560D01*
X8848Y202517D01*
X11166Y204140D01*
X12018Y203990D01*
X12128Y203989D01*
X12237Y203984D01*
X12250Y203987D01*
X12264Y203987D01*
X12368Y204021D01*
X12474Y204051D01*
X12485Y204059D01*
X12498Y204063D01*
X12586Y204128D01*
X12677Y204190D01*
X12685Y204201D01*
X12696Y204209D01*
X12758Y204299D01*
X12824Y204387D01*
X12830Y204402D01*
X12837Y204411D01*
X12845Y204438D01*
X12885Y204543D01*
X16663Y218642D01*
X16674Y218751D01*
X16689Y218860D01*
X16686Y218873D01*
X16688Y218887D01*
X16663Y218993D01*
X16642Y219101D01*
X16636Y219113D01*
X16633Y219127D01*
X16576Y219220D01*
X16521Y219316D01*
X16511Y219325D01*
X16504Y219336D01*
X16420Y219407D01*
X16339Y219480D01*
X16324Y219487D01*
X16316Y219494D01*
X16289Y219505D01*
X16188Y219554D01*
X15375Y219850D01*
X14179Y222415D01*
X16942Y230007D01*
X19507Y231203D01*
X20320Y230907D01*
X20428Y230887D01*
X20535Y230863D01*
X20548Y230864D01*
X20562Y230862D01*
X20671Y230877D01*
X20780Y230888D01*
X20792Y230894D01*
X20806Y230895D01*
X20904Y230945D01*
X21004Y230990D01*
X21013Y230999D01*
X21026Y231005D01*
X21103Y231083D01*
X21183Y231158D01*
X21192Y231172D01*
X21199Y231179D01*
X21212Y231205D01*
X21270Y231301D01*
X27439Y244530D01*
X27469Y244635D01*
X27502Y244740D01*
X27502Y244754D01*
X27506Y244767D01*
X27500Y244876D01*
X27499Y244986D01*
X27494Y244999D01*
X27493Y245012D01*
X27453Y245114D01*
X27417Y245218D01*
X27408Y245228D01*
X27403Y245241D01*
X27333Y245325D01*
X27265Y245411D01*
X27252Y245421D01*
X27245Y245429D01*
X27220Y245444D01*
X27130Y245511D01*
X26380Y245944D01*
X25648Y248677D01*
X29688Y255674D01*
X32421Y256406D01*
X33171Y255974D01*
X33273Y255935D01*
X33374Y255892D01*
X33388Y255892D01*
X33401Y255887D01*
X33511Y255883D01*
X33620Y255875D01*
X33633Y255878D01*
X33646Y255878D01*
X33752Y255909D01*
X33858Y255936D01*
X33869Y255944D01*
X33882Y255947D01*
X33972Y256011D01*
X34064Y256070D01*
X34075Y256083D01*
X34084Y256089D01*
X34101Y256112D01*
X34175Y256196D01*
X42547Y268153D01*
X42594Y268251D01*
X42645Y268349D01*
X42648Y268362D01*
X42653Y268374D01*
X42667Y268483D01*
X42684Y268592D01*
X42682Y268605D01*
X42684Y268618D01*
X42662Y268726D01*
X42644Y268834D01*
X42638Y268846D01*
X42635Y268860D01*
X42580Y268955D01*
X42528Y269051D01*
X42517Y269063D01*
X42512Y269072D01*
X42490Y269091D01*
X42413Y269173D01*
X41750Y269729D01*
X41503Y272548D01*
X46696Y278737D01*
X49515Y278984D01*
X50178Y278427D01*
X50273Y278371D01*
X50365Y278312D01*
X50378Y278309D01*
X50390Y278302D01*
X50497Y278279D01*
X50603Y278252D01*
X50617Y278253D01*
X50630Y278250D01*
X50740Y278263D01*
X50849Y278271D01*
X50861Y278277D01*
X50875Y278278D01*
X50975Y278325D01*
X51075Y278368D01*
X51088Y278378D01*
X51098Y278382D01*
X51118Y278402D01*
X51206Y278472D01*
X61528Y288794D01*
X61591Y288883D01*
X61659Y288970D01*
X61663Y288983D01*
X61671Y288994D01*
X61703Y289098D01*
X61739Y289202D01*
X61740Y289216D01*
X61744Y289229D01*
X61741Y289339D01*
X61742Y289448D01*
X61737Y289461D01*
X61737Y289475D01*
X61699Y289578D01*
X61665Y289682D01*
X61656Y289696D01*
X61653Y289706D01*
X61635Y289728D01*
X61572Y289822D01*
X61016Y290485D01*
X61263Y293304D01*
X67452Y298497D01*
X70271Y298250D01*
X75863Y291586D01*
X75617Y288767D01*
X69427Y283574D01*
X66306Y283847D01*
X66305Y283847D01*
X66304Y283847D01*
X66187Y283838D01*
X66061Y283828D01*
X66060Y283828D01*
X66059Y283828D01*
X65956Y283784D01*
X65834Y283733D01*
X65834Y283732D01*
X65833Y283731D01*
X65702Y283627D01*
X56373Y274298D01*
X56373Y274297D01*
X56372Y274297D01*
X56299Y274194D01*
X56230Y274099D01*
X56230Y274098D01*
X56229Y274097D01*
X56192Y273977D01*
X56157Y273863D01*
X56157Y273862D01*
X56157Y273861D01*
X56153Y273694D01*
X56426Y270573D01*
X52445Y265829D01*
X52416Y265779D01*
X52378Y265734D01*
X52353Y265673D01*
X52320Y265617D01*
X52308Y265560D01*
X52286Y265506D01*
X52275Y265408D01*
X52268Y265377D01*
X52270Y265362D01*
X52267Y265339D01*
X52267Y262719D01*
X52282Y262629D01*
X52289Y262538D01*
X52302Y262508D01*
X52307Y262476D01*
X52350Y262396D01*
X52385Y262312D01*
X52411Y262279D01*
X52422Y262259D01*
X52445Y262236D01*
X52490Y262181D01*
X52555Y262116D01*
X52598Y262084D01*
X52635Y262046D01*
X52698Y262013D01*
X52755Y261972D01*
X52806Y261956D01*
X52853Y261932D01*
X52923Y261920D01*
X52990Y261900D01*
X53043Y261901D01*
X53096Y261892D01*
X53165Y261904D01*
X53236Y261906D01*
X53286Y261924D01*
X53338Y261933D01*
X53401Y261966D01*
X53467Y261990D01*
X53508Y262024D01*
X53555Y262049D01*
X53637Y262126D01*
X53659Y262144D01*
X53665Y262153D01*
X53677Y262164D01*
X58953Y268453D01*
X61772Y268699D01*
X62435Y268143D01*
X62529Y268087D01*
X62622Y268028D01*
X62635Y268024D01*
X62647Y268017D01*
X62754Y267994D01*
X62860Y267968D01*
X62874Y267969D01*
X62887Y267966D01*
X62997Y267978D01*
X63105Y267987D01*
X63118Y267992D01*
X63131Y267993D01*
X63231Y268040D01*
X63332Y268083D01*
X63345Y268093D01*
X63354Y268098D01*
X63375Y268118D01*
X63463Y268188D01*
X71812Y276537D01*
X71876Y276626D01*
X71943Y276713D01*
X71948Y276726D01*
X71956Y276737D01*
X71988Y276841D01*
X72024Y276946D01*
X72024Y276959D01*
X72028Y276972D01*
X72025Y277082D01*
X72026Y277191D01*
X72022Y277204D01*
X72022Y277218D01*
X71984Y277321D01*
X71950Y277425D01*
X71941Y277439D01*
X71937Y277449D01*
X71919Y277471D01*
X71857Y277565D01*
X71301Y278228D01*
X71547Y281047D01*
X77737Y286240D01*
X80556Y285994D01*
X85353Y280277D01*
X85432Y280209D01*
X85508Y280137D01*
X85525Y280129D01*
X85539Y280116D01*
X85636Y280077D01*
X85731Y280033D01*
X85750Y280031D01*
X85767Y280024D01*
X85872Y280017D01*
X85975Y280006D01*
X85994Y280010D01*
X86013Y280009D01*
X86114Y280036D01*
X86216Y280058D01*
X86232Y280068D01*
X86250Y280073D01*
X86337Y280131D01*
X86427Y280184D01*
X86439Y280199D01*
X86455Y280209D01*
X86519Y280292D01*
X86587Y280371D01*
X86594Y280389D01*
X86605Y280404D01*
X86640Y280502D01*
X86679Y280599D01*
X86681Y280622D01*
X86686Y280636D01*
X86686Y280668D01*
X86697Y280766D01*
X86697Y301999D01*
X86679Y302112D01*
X86663Y302226D01*
X86659Y302236D01*
X86658Y302242D01*
X86647Y302262D01*
X86595Y302380D01*
X83594Y307579D01*
X84326Y310312D01*
X91323Y314352D01*
X94057Y313620D01*
X94489Y312870D01*
X94559Y312785D01*
X94625Y312698D01*
X94636Y312690D01*
X94645Y312680D01*
X94738Y312621D01*
X94829Y312560D01*
X94842Y312556D01*
X94853Y312549D01*
X94960Y312523D01*
X95066Y312494D01*
X95079Y312495D01*
X95093Y312492D01*
X95202Y312501D01*
X95311Y312507D01*
X95327Y312512D01*
X95338Y312513D01*
X95364Y312525D01*
X95470Y312561D01*
X108699Y318729D01*
X108790Y318791D01*
X108882Y318850D01*
X108891Y318860D01*
X108902Y318868D01*
X108968Y318956D01*
X109038Y319041D01*
X109042Y319053D01*
X109051Y319064D01*
X109086Y319168D01*
X109124Y319271D01*
X109124Y319285D01*
X109129Y319297D01*
X109129Y319407D01*
X109132Y319517D01*
X109128Y319533D01*
X109128Y319543D01*
X109119Y319570D01*
X109093Y319680D01*
X108797Y320493D01*
X109993Y323058D01*
X117585Y325821D01*
X120149Y324625D01*
X120445Y323812D01*
X120499Y323716D01*
X120549Y323619D01*
X120559Y323609D01*
X120566Y323597D01*
X120647Y323524D01*
X120726Y323447D01*
X120738Y323441D01*
X120748Y323432D01*
X120849Y323389D01*
X120948Y323341D01*
X120961Y323340D01*
X120974Y323334D01*
X121083Y323325D01*
X121192Y323312D01*
X121208Y323314D01*
X121219Y323313D01*
X121247Y323320D01*
X121358Y323337D01*
X135457Y327115D01*
X135557Y327160D01*
X135659Y327201D01*
X135669Y327210D01*
X135681Y327216D01*
X135761Y327290D01*
X135845Y327362D01*
X135852Y327374D01*
X135862Y327383D01*
X135914Y327480D01*
X135970Y327574D01*
X135972Y327587D01*
X135979Y327599D01*
X135998Y327708D01*
X136021Y327815D01*
X136020Y327831D01*
X136021Y327842D01*
X136017Y327870D01*
X136010Y327982D01*
X135860Y328834D01*
X137483Y331152D01*
X145439Y332555D01*
X147757Y330932D01*
X147908Y330080D01*
X147944Y329977D01*
X147976Y329872D01*
X147984Y329861D01*
X147989Y329848D01*
X148056Y329761D01*
X148121Y329672D01*
X148132Y329664D01*
X148140Y329654D01*
X148231Y329593D01*
X148321Y329529D01*
X148334Y329525D01*
X148345Y329518D01*
X148451Y329490D01*
X148556Y329458D01*
X148572Y329457D01*
X148583Y329455D01*
X148611Y329456D01*
X148724Y329454D01*
X163264Y330726D01*
X163370Y330753D01*
X163478Y330776D01*
X163490Y330783D01*
X163503Y330787D01*
X163595Y330846D01*
X163689Y330903D01*
X163698Y330913D01*
X163709Y330920D01*
X163777Y331006D01*
X163849Y331089D01*
X163854Y331102D01*
X163862Y331113D01*
X163900Y331216D01*
X163941Y331318D01*
X163943Y331334D01*
X163946Y331344D01*
X163947Y331373D01*
X163959Y331484D01*
X163959Y332350D01*
X165960Y334351D01*
X174040Y334351D01*
X176041Y332350D01*
X176041Y331484D01*
X176058Y331376D01*
X176072Y331267D01*
X176078Y331255D01*
X176080Y331242D01*
X176132Y331145D01*
X176180Y331046D01*
X176189Y331036D01*
X176196Y331024D01*
X176275Y330949D01*
X176352Y330870D01*
X176364Y330864D01*
X176374Y330855D01*
X176473Y330809D01*
X176571Y330759D01*
X176587Y330756D01*
X176597Y330751D01*
X176625Y330748D01*
X176736Y330726D01*
X191276Y329454D01*
X191386Y329462D01*
X191495Y329466D01*
X191508Y329471D01*
X191522Y329472D01*
X191623Y329515D01*
X191725Y329554D01*
X191736Y329563D01*
X191748Y329568D01*
X191831Y329641D01*
X191915Y329710D01*
X191922Y329722D01*
X191932Y329731D01*
X191987Y329826D01*
X192045Y329919D01*
X192050Y329935D01*
X192055Y329944D01*
X192061Y329972D01*
X192092Y330080D01*
X192243Y330932D01*
X194560Y332555D01*
X202517Y331152D01*
X204140Y328834D01*
X203990Y327982D01*
X203989Y327872D01*
X203984Y327763D01*
X203987Y327750D01*
X203987Y327736D01*
X204021Y327631D01*
X204051Y327526D01*
X204058Y327515D01*
X204063Y327502D01*
X204128Y327414D01*
X204190Y327323D01*
X204201Y327315D01*
X204209Y327304D01*
X204299Y327241D01*
X204387Y327176D01*
X204402Y327170D01*
X204411Y327163D01*
X204438Y327155D01*
X204543Y327115D01*
X207487Y326326D01*
X207554Y326319D01*
X207620Y326302D01*
X207676Y326307D01*
X207732Y326301D01*
X207798Y326316D01*
X207865Y326322D01*
X207917Y326344D01*
X207972Y326356D01*
X208029Y326391D01*
X208091Y326418D01*
X208153Y326467D01*
X208181Y326485D01*
X208195Y326501D01*
X208222Y326523D01*
X208574Y326874D01*
X212543Y326874D01*
X214998Y324419D01*
X215090Y324352D01*
X215124Y324323D01*
X215135Y324319D01*
X215183Y324283D01*
X215193Y324279D01*
X215198Y324275D01*
X215219Y324269D01*
X215339Y324222D01*
X218642Y323337D01*
X218751Y323326D01*
X218860Y323311D01*
X218873Y323314D01*
X218887Y323312D01*
X218994Y323337D01*
X219102Y323358D01*
X219113Y323364D01*
X219127Y323367D01*
X219221Y323425D01*
X219316Y323479D01*
X219325Y323489D01*
X219336Y323496D01*
X219407Y323580D01*
X219480Y323661D01*
X219487Y323676D01*
X219494Y323684D01*
X219505Y323711D01*
X219554Y323812D01*
X219850Y324625D01*
X222415Y325821D01*
X230007Y323058D01*
X231203Y320493D01*
X230907Y319680D01*
X230887Y319572D01*
X230863Y319465D01*
X230864Y319452D01*
X230862Y319438D01*
X230877Y319329D01*
X230888Y319220D01*
X230894Y319208D01*
X230895Y319194D01*
X230945Y319096D01*
X230990Y318996D01*
X230999Y318987D01*
X231005Y318974D01*
X231083Y318897D01*
X231158Y318817D01*
X231172Y318808D01*
X231179Y318801D01*
X231205Y318788D01*
X231301Y318729D01*
X244530Y312561D01*
X244635Y312531D01*
X244740Y312498D01*
X244754Y312498D01*
X244767Y312494D01*
X244876Y312500D01*
X244986Y312501D01*
X244999Y312506D01*
X245012Y312507D01*
X245114Y312547D01*
X245218Y312583D01*
X245228Y312592D01*
X245241Y312597D01*
X245325Y312667D01*
X245411Y312735D01*
X245421Y312748D01*
X245429Y312755D01*
X245444Y312780D01*
X245511Y312870D01*
X245944Y313620D01*
X248677Y314352D01*
X255674Y310312D01*
X256406Y307579D01*
X255974Y306829D01*
X255935Y306727D01*
X255892Y306626D01*
X255892Y306612D01*
X255887Y306599D01*
X255883Y306489D01*
X255875Y306380D01*
X255878Y306367D01*
X255878Y306354D01*
X255909Y306248D01*
X255936Y306142D01*
X255944Y306131D01*
X255947Y306118D01*
X256011Y306028D01*
X256070Y305936D01*
X256083Y305925D01*
X256089Y305916D01*
X256112Y305899D01*
X256196Y305825D01*
X268153Y297453D01*
X268251Y297406D01*
X268349Y297355D01*
X268362Y297352D01*
X268374Y297347D01*
X268483Y297333D01*
X268592Y297316D01*
X268605Y297318D01*
X268618Y297316D01*
X268726Y297338D01*
X268834Y297356D01*
X268846Y297362D01*
X268860Y297365D01*
X268955Y297420D01*
X269051Y297472D01*
X269063Y297483D01*
X269072Y297488D01*
X269091Y297510D01*
X269173Y297587D01*
X269729Y298250D01*
X272548Y298497D01*
X278737Y293304D01*
X278984Y290485D01*
X278427Y289822D01*
X278372Y289727D01*
X278312Y289635D01*
X278309Y289622D01*
X278302Y289610D01*
X278279Y289503D01*
X278252Y289397D01*
X278253Y289383D01*
X278250Y289370D01*
X278263Y289260D01*
X278271Y289151D01*
X278277Y289139D01*
X278278Y289125D01*
X278325Y289025D01*
X278368Y288925D01*
X278378Y288912D01*
X278382Y288903D01*
X278402Y288882D01*
X278472Y288794D01*
X288794Y278472D01*
X288883Y278408D01*
X288970Y278341D01*
X288983Y278337D01*
X288994Y278329D01*
X289098Y278297D01*
X289202Y278261D01*
X289216Y278260D01*
X289229Y278256D01*
X289339Y278259D01*
X289448Y278258D01*
X289461Y278262D01*
X289475Y278263D01*
X289578Y278301D01*
X289682Y278334D01*
X289696Y278344D01*
X289706Y278347D01*
X289728Y278365D01*
X289822Y278427D01*
X290485Y278984D01*
X293304Y278737D01*
X298497Y272548D01*
X298250Y269729D01*
X297587Y269173D01*
X297516Y269089D01*
X297441Y269009D01*
X297436Y268996D01*
X297427Y268986D01*
X297386Y268885D01*
X297341Y268784D01*
X297340Y268771D01*
X297334Y268758D01*
X297328Y268649D01*
X297317Y268540D01*
X297320Y268526D01*
X297319Y268513D01*
X297348Y268407D01*
X297373Y268300D01*
X297381Y268285D01*
X297383Y268275D01*
X297399Y268252D01*
X297453Y268153D01*
X305825Y256196D01*
X305902Y256118D01*
X305976Y256037D01*
X305987Y256030D01*
X305997Y256020D01*
X306094Y255970D01*
X306190Y255917D01*
X306204Y255914D01*
X306216Y255908D01*
X306324Y255892D01*
X306432Y255872D01*
X306446Y255874D01*
X306459Y255872D01*
X306567Y255891D01*
X306676Y255906D01*
X306691Y255913D01*
X306701Y255915D01*
X306726Y255928D01*
X306829Y255974D01*
X307579Y256406D01*
X310312Y255674D01*
X314352Y248677D01*
X313620Y245944D01*
X312870Y245511D01*
X312785Y245441D01*
X312698Y245375D01*
X312690Y245364D01*
X312680Y245355D01*
X312621Y245262D01*
X312560Y245171D01*
X312556Y245158D01*
X312549Y245147D01*
X312523Y245039D01*
X312494Y244934D01*
X312495Y244921D01*
X312492Y244908D01*
X312501Y244798D01*
X312507Y244689D01*
X312512Y244673D01*
X312513Y244663D01*
X312525Y244636D01*
X312561Y244530D01*
X318729Y231301D01*
X318791Y231210D01*
X318850Y231118D01*
X318860Y231109D01*
X318868Y231098D01*
X318955Y231032D01*
X319041Y230962D01*
X319053Y230958D01*
X319064Y230949D01*
X319168Y230914D01*
X319271Y230876D01*
X319285Y230876D01*
X319297Y230871D01*
X319407Y230871D01*
X319517Y230868D01*
X319533Y230872D01*
X319543Y230872D01*
X319570Y230881D01*
X319680Y230907D01*
X320493Y231203D01*
X323058Y230007D01*
X325821Y222415D01*
X324625Y219850D01*
X323812Y219554D01*
X323716Y219501D01*
X323619Y219451D01*
X323609Y219441D01*
X323597Y219434D01*
X323524Y219353D01*
X323447Y219274D01*
X323442Y219262D01*
X323432Y219252D01*
X323388Y219151D01*
X323341Y219052D01*
X323340Y219039D01*
X323334Y219026D01*
X323325Y218917D01*
X323312Y218808D01*
X323314Y218792D01*
X323313Y218781D01*
X323320Y218753D01*
X323337Y218642D01*
X327115Y204543D01*
X327160Y204443D01*
X327201Y204341D01*
X327210Y204331D01*
X327216Y204319D01*
X327290Y204239D01*
X327362Y204155D01*
X327374Y204148D01*
X327383Y204138D01*
X327480Y204086D01*
X327574Y204030D01*
X327587Y204028D01*
X327599Y204021D01*
X327708Y204002D01*
X327815Y203979D01*
X327831Y203980D01*
X327842Y203979D01*
X327870Y203983D01*
X327982Y203990D01*
X328834Y204140D01*
X331152Y202517D01*
X332555Y194560D01*
X330932Y192243D01*
X322365Y190732D01*
X320047Y192355D01*
X318644Y200312D01*
X320441Y202878D01*
X320441Y202879D01*
X320442Y202880D01*
X320495Y202992D01*
X320547Y203100D01*
X320547Y203101D01*
X320548Y203102D01*
X320563Y203226D01*
X320578Y203344D01*
X320578Y203345D01*
X320578Y203346D01*
X320552Y203512D01*
X317138Y216254D01*
X317138Y216255D01*
X317138Y216256D01*
X317089Y216364D01*
X317037Y216478D01*
X317036Y216479D01*
X317036Y216480D01*
X316949Y216573D01*
X316870Y216658D01*
X316869Y216659D01*
X316868Y216660D01*
X316725Y216747D01*
X313886Y218071D01*
X311122Y225663D01*
X312446Y228503D01*
X312446Y228504D01*
X312447Y228504D01*
X312478Y228615D01*
X312513Y228739D01*
X312513Y228740D01*
X312513Y228741D01*
X312507Y228858D01*
X312500Y228985D01*
X312500Y228986D01*
X312500Y228987D01*
X312446Y229146D01*
X306871Y241102D01*
X306870Y241103D01*
X306870Y241104D01*
X306805Y241199D01*
X306732Y241305D01*
X306732Y241306D01*
X306731Y241306D01*
X306632Y241381D01*
X306536Y241453D01*
X306535Y241454D01*
X306534Y241454D01*
X306378Y241515D01*
X303352Y242326D01*
X299312Y249323D01*
X300123Y252349D01*
X300123Y252350D01*
X300124Y252351D01*
X300135Y252472D01*
X300148Y252594D01*
X300147Y252595D01*
X300148Y252596D01*
X300120Y252716D01*
X300093Y252834D01*
X300092Y252835D01*
X300092Y252836D01*
X300011Y252983D01*
X292445Y263789D01*
X292444Y263789D01*
X292444Y263790D01*
X292362Y263874D01*
X292273Y263965D01*
X292272Y263965D01*
X292272Y263966D01*
X292164Y264021D01*
X292054Y264077D01*
X292053Y264077D01*
X292052Y264077D01*
X291888Y264110D01*
X288767Y264383D01*
X283574Y270573D01*
X283847Y273694D01*
X283847Y273695D01*
X283847Y273696D01*
X283838Y273813D01*
X283828Y273939D01*
X283828Y273940D01*
X283828Y273941D01*
X283784Y274044D01*
X283733Y274166D01*
X283732Y274166D01*
X283731Y274167D01*
X283627Y274298D01*
X274298Y283627D01*
X274297Y283627D01*
X274297Y283628D01*
X274194Y283701D01*
X274098Y283770D01*
X274097Y283771D01*
X273978Y283807D01*
X273863Y283843D01*
X273862Y283842D01*
X273861Y283843D01*
X273694Y283847D01*
X270573Y283574D01*
X264383Y288767D01*
X264110Y291888D01*
X264110Y291889D01*
X264110Y291890D01*
X264080Y292006D01*
X264050Y292126D01*
X264049Y292127D01*
X264049Y292128D01*
X263982Y292230D01*
X263916Y292333D01*
X263915Y292333D01*
X263915Y292334D01*
X263789Y292445D01*
X252983Y300011D01*
X252982Y300012D01*
X252981Y300013D01*
X252871Y300065D01*
X252761Y300118D01*
X252760Y300118D01*
X252759Y300119D01*
X252635Y300134D01*
X252517Y300149D01*
X252516Y300148D01*
X252515Y300149D01*
X252349Y300123D01*
X249323Y299312D01*
X242326Y303352D01*
X241515Y306378D01*
X241515Y306379D01*
X241515Y306380D01*
X241465Y306490D01*
X241414Y306602D01*
X241413Y306603D01*
X241413Y306604D01*
X241329Y306694D01*
X241247Y306783D01*
X241246Y306783D01*
X241245Y306784D01*
X241102Y306871D01*
X229146Y312446D01*
X229145Y312446D01*
X229144Y312447D01*
X229034Y312478D01*
X228909Y312513D01*
X228908Y312513D01*
X228907Y312513D01*
X228791Y312507D01*
X228663Y312500D01*
X228662Y312500D01*
X228661Y312500D01*
X228502Y312446D01*
X225663Y311122D01*
X218071Y313886D01*
X216747Y316725D01*
X216746Y316726D01*
X216746Y316727D01*
X216678Y316826D01*
X216608Y316928D01*
X216607Y316929D01*
X216510Y317002D01*
X216412Y317076D01*
X216411Y317077D01*
X216410Y317077D01*
X216254Y317138D01*
X213630Y317841D01*
X213562Y317848D01*
X213497Y317865D01*
X213441Y317860D01*
X213385Y317866D01*
X213319Y317851D01*
X213251Y317846D01*
X213200Y317824D01*
X213145Y317811D01*
X213087Y317776D01*
X213025Y317749D01*
X212963Y317700D01*
X212935Y317683D01*
X212922Y317667D01*
X212894Y317644D01*
X212543Y317293D01*
X208574Y317293D01*
X206118Y319748D01*
X206025Y319815D01*
X205933Y319884D01*
X205924Y319888D01*
X205919Y319892D01*
X205897Y319898D01*
X205777Y319945D01*
X203512Y320552D01*
X203511Y320552D01*
X203510Y320553D01*
X203383Y320565D01*
X203267Y320577D01*
X203266Y320577D01*
X203265Y320577D01*
X203146Y320549D01*
X203027Y320522D01*
X203026Y320521D01*
X203025Y320521D01*
X202878Y320441D01*
X200312Y318644D01*
X192355Y320047D01*
X190558Y322613D01*
X190557Y322614D01*
X190557Y322615D01*
X190472Y322702D01*
X190386Y322789D01*
X190385Y322789D01*
X190385Y322790D01*
X190276Y322845D01*
X190167Y322901D01*
X190166Y322901D01*
X190165Y322902D01*
X190001Y322935D01*
X187959Y323113D01*
X187855Y323105D01*
X187750Y323103D01*
X187733Y323096D01*
X187714Y323095D01*
X187618Y323054D01*
X187519Y323018D01*
X187505Y323007D01*
X187487Y322999D01*
X187409Y322930D01*
X187327Y322865D01*
X187317Y322849D01*
X187303Y322836D01*
X187251Y322746D01*
X187194Y322658D01*
X187190Y322639D01*
X187180Y322623D01*
X187160Y322521D01*
X187134Y322419D01*
X187136Y322400D01*
X187132Y322382D01*
X187145Y322278D01*
X187153Y322174D01*
X187161Y322157D01*
X187163Y322138D01*
X187209Y322043D01*
X187250Y321948D01*
X187264Y321930D01*
X187270Y321917D01*
X187293Y321894D01*
X187354Y321817D01*
X192330Y316842D01*
X192350Y316827D01*
X192366Y316807D01*
X192450Y316755D01*
X192529Y316698D01*
X192553Y316691D01*
X192575Y316677D01*
X192736Y316630D01*
X199739Y315395D01*
X201362Y313077D01*
X201212Y312225D01*
X201210Y312115D01*
X201205Y312006D01*
X201209Y311993D01*
X201209Y311979D01*
X201242Y311875D01*
X201272Y311769D01*
X201280Y311758D01*
X201284Y311745D01*
X201349Y311657D01*
X201412Y311566D01*
X201423Y311558D01*
X201431Y311547D01*
X201520Y311485D01*
X201608Y311419D01*
X201624Y311413D01*
X201632Y311407D01*
X201660Y311399D01*
X201764Y311358D01*
X213170Y308302D01*
X213279Y308291D01*
X213388Y308276D01*
X213401Y308279D01*
X213415Y308277D01*
X213522Y308302D01*
X213629Y308322D01*
X213641Y308329D01*
X213654Y308332D01*
X213748Y308390D01*
X213843Y308443D01*
X213852Y308453D01*
X213864Y308461D01*
X213935Y308545D01*
X214008Y308626D01*
X214015Y308641D01*
X214022Y308649D01*
X214032Y308676D01*
X214082Y308777D01*
X214378Y309590D01*
X216943Y310786D01*
X224535Y308022D01*
X225731Y305458D01*
X222755Y297283D01*
X220191Y296087D01*
X212599Y298850D01*
X211275Y301690D01*
X211274Y301690D01*
X211274Y301691D01*
X211206Y301790D01*
X211136Y301893D01*
X211135Y301893D01*
X211135Y301894D01*
X211038Y301967D01*
X210940Y302041D01*
X210939Y302041D01*
X210938Y302042D01*
X210782Y302103D01*
X200733Y304795D01*
X200732Y304796D01*
X200731Y304796D01*
X200605Y304808D01*
X200489Y304820D01*
X200488Y304820D01*
X200486Y304820D01*
X200368Y304792D01*
X200249Y304765D01*
X200248Y304764D01*
X200247Y304764D01*
X200100Y304684D01*
X197533Y302887D01*
X195359Y303270D01*
X195344Y303270D01*
X195330Y303275D01*
X195221Y303272D01*
X195113Y303273D01*
X195099Y303269D01*
X195084Y303268D01*
X194982Y303231D01*
X194879Y303198D01*
X194867Y303189D01*
X194853Y303184D01*
X194769Y303116D01*
X194681Y303051D01*
X194673Y303039D01*
X194661Y303030D01*
X194602Y302938D01*
X194540Y302850D01*
X194536Y302836D01*
X194528Y302823D01*
X194502Y302718D01*
X194471Y302614D01*
X194472Y302599D01*
X194468Y302585D01*
X194477Y302477D01*
X194481Y302368D01*
X194486Y302354D01*
X194487Y302340D01*
X194530Y302240D01*
X194569Y302138D01*
X194578Y302127D01*
X194584Y302113D01*
X194688Y301982D01*
X238303Y258368D01*
X238303Y218788D01*
X238317Y218698D01*
X238325Y218607D01*
X238337Y218577D01*
X238342Y218545D01*
X238385Y218464D01*
X238421Y218380D01*
X238447Y218348D01*
X238458Y218328D01*
X238481Y218305D01*
X238526Y218249D01*
X239791Y216984D01*
X239791Y213016D01*
X236984Y210209D01*
X234064Y210209D01*
X234044Y210206D01*
X234025Y210208D01*
X233923Y210186D01*
X233821Y210170D01*
X233804Y210160D01*
X233784Y210156D01*
X233695Y210103D01*
X233604Y210054D01*
X233590Y210040D01*
X233573Y210030D01*
X233506Y209951D01*
X233434Y209876D01*
X233426Y209858D01*
X233413Y209843D01*
X233374Y209747D01*
X233331Y209653D01*
X233329Y209633D01*
X233321Y209615D01*
X233303Y209448D01*
X233303Y208632D01*
X226368Y201697D01*
X183927Y201697D01*
X183907Y201694D01*
X183888Y201696D01*
X183786Y201674D01*
X183684Y201658D01*
X183667Y201648D01*
X183647Y201644D01*
X183558Y201591D01*
X183467Y201542D01*
X183453Y201528D01*
X183436Y201518D01*
X183369Y201439D01*
X183297Y201364D01*
X183289Y201346D01*
X183276Y201331D01*
X183237Y201235D01*
X183194Y201141D01*
X183192Y201121D01*
X183184Y201103D01*
X183166Y200936D01*
X183166Y200248D01*
X181677Y198759D01*
X170314Y198759D01*
X170290Y198776D01*
X170242Y198823D01*
X170191Y198847D01*
X170146Y198880D01*
X170081Y198900D01*
X170020Y198929D01*
X169964Y198936D01*
X169910Y198952D01*
X169843Y198951D01*
X169776Y198959D01*
X169697Y198947D01*
X169665Y198946D01*
X169645Y198939D01*
X169610Y198934D01*
X168959Y198759D01*
X165523Y198759D01*
X165523Y204238D01*
X165520Y204258D01*
X165522Y204277D01*
X165500Y204379D01*
X165483Y204481D01*
X165474Y204498D01*
X165470Y204518D01*
X165417Y204607D01*
X165368Y204698D01*
X165354Y204712D01*
X165344Y204729D01*
X165265Y204796D01*
X165190Y204867D01*
X165172Y204876D01*
X165157Y204889D01*
X165061Y204928D01*
X164967Y204971D01*
X164947Y204973D01*
X164929Y204981D01*
X164762Y204999D01*
X163999Y204999D01*
X163999Y205762D01*
X163996Y205782D01*
X163998Y205801D01*
X163976Y205903D01*
X163959Y206005D01*
X163950Y206022D01*
X163946Y206042D01*
X163893Y206131D01*
X163844Y206222D01*
X163830Y206236D01*
X163820Y206253D01*
X163741Y206320D01*
X163666Y206391D01*
X163648Y206400D01*
X163633Y206413D01*
X163537Y206452D01*
X163443Y206495D01*
X163423Y206497D01*
X163405Y206505D01*
X163238Y206523D01*
X156834Y206523D01*
X156834Y209034D01*
X157007Y209681D01*
X157070Y209789D01*
X157085Y209830D01*
X157109Y209867D01*
X157129Y209944D01*
X157157Y210019D01*
X157159Y210063D01*
X157169Y210105D01*
X157163Y210185D01*
X157166Y210265D01*
X157154Y210307D01*
X157150Y210351D01*
X157119Y210424D01*
X157096Y210501D01*
X157071Y210537D01*
X157054Y210577D01*
X156963Y210690D01*
X156955Y210702D01*
X156952Y210704D01*
X156949Y210708D01*
X156090Y211567D01*
X156032Y211608D01*
X155980Y211658D01*
X155933Y211680D01*
X155891Y211710D01*
X155822Y211731D01*
X155757Y211761D01*
X155705Y211767D01*
X155655Y211783D01*
X155584Y211781D01*
X155513Y211789D01*
X155462Y211777D01*
X155410Y211776D01*
X155342Y211752D01*
X155272Y211736D01*
X155228Y211710D01*
X155179Y211692D01*
X155123Y211647D01*
X155061Y211610D01*
X155027Y211571D01*
X154987Y211538D01*
X154948Y211478D01*
X154901Y211423D01*
X154882Y211375D01*
X154854Y211331D01*
X154836Y211262D01*
X154809Y211195D01*
X154801Y211124D01*
X154793Y211093D01*
X154795Y211069D01*
X154791Y211028D01*
X154791Y208016D01*
X151984Y205209D01*
X148016Y205209D01*
X145209Y208016D01*
X145209Y211984D01*
X146474Y213249D01*
X146527Y213323D01*
X146587Y213393D01*
X146599Y213423D01*
X146618Y213449D01*
X146645Y213536D01*
X146679Y213621D01*
X146683Y213662D01*
X146690Y213684D01*
X146689Y213716D01*
X146697Y213788D01*
X146697Y216368D01*
X149989Y219660D01*
X150031Y219718D01*
X150080Y219770D01*
X150102Y219817D01*
X150133Y219859D01*
X150154Y219928D01*
X150184Y219993D01*
X150190Y220045D01*
X150205Y220095D01*
X150203Y220166D01*
X150211Y220237D01*
X150200Y220288D01*
X150199Y220340D01*
X150174Y220408D01*
X150159Y220478D01*
X150132Y220523D01*
X150114Y220571D01*
X150069Y220627D01*
X150032Y220689D01*
X149993Y220723D01*
X149960Y220763D01*
X149900Y220802D01*
X149846Y220849D01*
X149797Y220868D01*
X149753Y220896D01*
X149684Y220914D01*
X149617Y220941D01*
X149546Y220949D01*
X149515Y220957D01*
X149492Y220955D01*
X149451Y220959D01*
X146696Y220959D01*
X146686Y220966D01*
X146673Y220982D01*
X146586Y221038D01*
X146502Y221098D01*
X146483Y221104D01*
X146467Y221115D01*
X146366Y221140D01*
X146267Y221171D01*
X146247Y221170D01*
X146228Y221175D01*
X146125Y221167D01*
X146021Y221164D01*
X146003Y221157D01*
X145983Y221156D01*
X145888Y221116D01*
X145790Y221080D01*
X145775Y221067D01*
X145756Y221060D01*
X145626Y220955D01*
X140764Y216093D01*
X140711Y216019D01*
X140651Y215950D01*
X140639Y215919D01*
X140620Y215893D01*
X140593Y215806D01*
X140559Y215721D01*
X140555Y215680D01*
X140548Y215658D01*
X140549Y215626D01*
X140541Y215555D01*
X140541Y210448D01*
X139052Y208959D01*
X130948Y208959D01*
X130538Y209369D01*
X130522Y209380D01*
X130510Y209396D01*
X130422Y209452D01*
X130339Y209512D01*
X130320Y209518D01*
X130303Y209529D01*
X130202Y209554D01*
X130103Y209584D01*
X130084Y209584D01*
X130064Y209589D01*
X129961Y209581D01*
X129858Y209578D01*
X129839Y209571D01*
X129819Y209570D01*
X129724Y209529D01*
X129627Y209494D01*
X129611Y209481D01*
X129593Y209473D01*
X129462Y209369D01*
X129052Y208959D01*
X120948Y208959D01*
X119459Y210448D01*
X119459Y210936D01*
X119456Y210956D01*
X119458Y210975D01*
X119436Y211077D01*
X119420Y211179D01*
X119410Y211196D01*
X119406Y211216D01*
X119353Y211305D01*
X119304Y211396D01*
X119290Y211410D01*
X119280Y211427D01*
X119201Y211494D01*
X119126Y211566D01*
X119108Y211574D01*
X119093Y211587D01*
X118997Y211626D01*
X118903Y211669D01*
X118883Y211671D01*
X118865Y211679D01*
X118698Y211697D01*
X52183Y211697D01*
X52093Y211683D01*
X52002Y211675D01*
X51972Y211663D01*
X51940Y211658D01*
X51860Y211615D01*
X51776Y211579D01*
X51744Y211553D01*
X51723Y211542D01*
X51701Y211519D01*
X51645Y211474D01*
X37156Y196986D01*
X37142Y196966D01*
X37122Y196950D01*
X37070Y196866D01*
X37013Y196786D01*
X37006Y196762D01*
X36992Y196741D01*
X36945Y196580D01*
X35710Y189577D01*
X33144Y187780D01*
X33143Y187779D01*
X33142Y187778D01*
X33055Y187693D01*
X32968Y187608D01*
X32967Y187607D01*
X32967Y187606D01*
X32911Y187496D01*
X32856Y187389D01*
X32856Y187388D01*
X32855Y187387D01*
X32822Y187222D01*
X31916Y176860D01*
X31916Y176859D01*
X31915Y176857D01*
X31925Y176736D01*
X31934Y176614D01*
X31934Y176613D01*
X31934Y176612D01*
X31978Y176509D01*
X32030Y176388D01*
X32030Y176387D01*
X32031Y176386D01*
X32136Y176255D01*
X34353Y174037D01*
X34352Y174025D01*
X34374Y173923D01*
X34390Y173821D01*
X34400Y173804D01*
X34404Y173784D01*
X34457Y173695D01*
X34506Y173604D01*
X34520Y173590D01*
X34530Y173573D01*
X34609Y173506D01*
X34684Y173434D01*
X34702Y173426D01*
X34717Y173413D01*
X34813Y173374D01*
X34907Y173331D01*
X34927Y173329D01*
X34945Y173321D01*
X35112Y173303D01*
X36736Y173303D01*
X36826Y173317D01*
X36917Y173325D01*
X36947Y173337D01*
X36979Y173342D01*
X37060Y173385D01*
X37144Y173421D01*
X37176Y173447D01*
X37196Y173458D01*
X37219Y173481D01*
X37275Y173526D01*
X38540Y174791D01*
X42508Y174791D01*
X45315Y171984D01*
X45315Y168016D01*
X42508Y165209D01*
X38540Y165209D01*
X37275Y166474D01*
X37201Y166527D01*
X37131Y166587D01*
X37101Y166599D01*
X37075Y166618D01*
X36988Y166645D01*
X36903Y166679D01*
X36862Y166683D01*
X36840Y166690D01*
X36808Y166689D01*
X36736Y166697D01*
X35112Y166697D01*
X35092Y166694D01*
X35073Y166696D01*
X34971Y166674D01*
X34869Y166658D01*
X34852Y166648D01*
X34832Y166644D01*
X34743Y166591D01*
X34652Y166542D01*
X34638Y166528D01*
X34621Y166518D01*
X34554Y166439D01*
X34482Y166364D01*
X34474Y166346D01*
X34461Y166331D01*
X34422Y166235D01*
X34379Y166141D01*
X34377Y166121D01*
X34369Y166103D01*
X34354Y165963D01*
X32350Y163959D01*
X23650Y163959D01*
X21649Y165960D01*
X21649Y174040D01*
X23650Y176041D01*
X24516Y176041D01*
X24624Y176058D01*
X24733Y176072D01*
X24745Y176078D01*
X24758Y176080D01*
X24855Y176132D01*
X24954Y176180D01*
X24964Y176189D01*
X24976Y176196D01*
X25051Y176275D01*
X25130Y176352D01*
X25136Y176364D01*
X25145Y176374D01*
X25191Y176473D01*
X25241Y176571D01*
X25244Y176587D01*
X25249Y176597D01*
X25252Y176625D01*
X25274Y176736D01*
X26303Y188498D01*
X26295Y188608D01*
X26291Y188717D01*
X26286Y188730D01*
X26285Y188743D01*
X26242Y188845D01*
X26203Y188947D01*
X26194Y188957D01*
X26189Y188970D01*
X26116Y189052D01*
X26047Y189137D01*
X26035Y189144D01*
X26026Y189154D01*
X25931Y189209D01*
X25838Y189267D01*
X25822Y189271D01*
X25813Y189277D01*
X25785Y189282D01*
X25677Y189314D01*
X24825Y189464D01*
X23202Y191782D01*
X24605Y199739D01*
X26923Y201362D01*
X31011Y200641D01*
X31046Y200641D01*
X31079Y200632D01*
X31168Y200639D01*
X31257Y200638D01*
X31290Y200649D01*
X31324Y200651D01*
X31406Y200686D01*
X31491Y200714D01*
X31519Y200734D01*
X31550Y200748D01*
X31681Y200853D01*
X46227Y215398D01*
X46268Y215456D01*
X46318Y215508D01*
X46340Y215555D01*
X46370Y215597D01*
X46391Y215666D01*
X46421Y215731D01*
X46427Y215783D01*
X46443Y215833D01*
X46441Y215904D01*
X46449Y215975D01*
X46437Y216026D01*
X46436Y216078D01*
X46412Y216146D01*
X46396Y216216D01*
X46370Y216260D01*
X46352Y216309D01*
X46307Y216365D01*
X46270Y216427D01*
X46231Y216461D01*
X46198Y216501D01*
X46138Y216540D01*
X46083Y216587D01*
X46035Y216606D01*
X45991Y216634D01*
X45922Y216652D01*
X45855Y216679D01*
X45784Y216687D01*
X45753Y216695D01*
X45729Y216693D01*
X45688Y216697D01*
X43174Y216697D01*
X43164Y216696D01*
X43154Y216697D01*
X43043Y216676D01*
X42932Y216658D01*
X42922Y216653D01*
X42912Y216651D01*
X42814Y216595D01*
X42714Y216542D01*
X42707Y216535D01*
X42698Y216530D01*
X42622Y216446D01*
X42545Y216364D01*
X42540Y216355D01*
X42533Y216347D01*
X42459Y216196D01*
X41150Y212599D01*
X38585Y211403D01*
X30410Y214378D01*
X29214Y216943D01*
X31978Y224535D01*
X34542Y225731D01*
X35355Y225435D01*
X35463Y225415D01*
X35570Y225390D01*
X35584Y225392D01*
X35597Y225389D01*
X35706Y225404D01*
X35815Y225416D01*
X35827Y225421D01*
X35841Y225423D01*
X35939Y225472D01*
X36039Y225517D01*
X36048Y225527D01*
X36061Y225533D01*
X36138Y225611D01*
X36218Y225685D01*
X36227Y225699D01*
X36234Y225707D01*
X36247Y225732D01*
X36306Y225829D01*
X41296Y236530D01*
X41325Y236635D01*
X41359Y236740D01*
X41358Y236754D01*
X41362Y236767D01*
X41357Y236876D01*
X41355Y236986D01*
X41350Y236999D01*
X41350Y237012D01*
X41310Y237114D01*
X41273Y237218D01*
X41265Y237228D01*
X41260Y237241D01*
X41189Y237325D01*
X41121Y237411D01*
X41108Y237421D01*
X41101Y237429D01*
X41077Y237444D01*
X40986Y237511D01*
X40237Y237944D01*
X39504Y240677D01*
X43544Y247674D01*
X46278Y248406D01*
X53812Y244057D01*
X54544Y241323D01*
X50504Y234326D01*
X47478Y233515D01*
X47477Y233515D01*
X47476Y233515D01*
X47368Y233466D01*
X47254Y233414D01*
X47253Y233413D01*
X47252Y233413D01*
X47165Y233332D01*
X47074Y233247D01*
X47073Y233246D01*
X47073Y233245D01*
X46985Y233102D01*
X42921Y224386D01*
X42904Y224326D01*
X42878Y224269D01*
X42871Y224208D01*
X42854Y224149D01*
X42858Y224087D01*
X42851Y224025D01*
X42864Y223965D01*
X42867Y223903D01*
X42890Y223845D01*
X42903Y223784D01*
X42934Y223731D01*
X42957Y223674D01*
X42997Y223627D01*
X43029Y223573D01*
X43076Y223533D01*
X43115Y223486D01*
X43169Y223454D01*
X43216Y223413D01*
X43273Y223390D01*
X43325Y223358D01*
X43386Y223345D01*
X43444Y223321D01*
X43533Y223311D01*
X43565Y223304D01*
X43583Y223306D01*
X43611Y223303D01*
X56212Y223303D01*
X56302Y223317D01*
X56393Y223325D01*
X56423Y223337D01*
X56455Y223342D01*
X56536Y223385D01*
X56620Y223421D01*
X56652Y223447D01*
X56672Y223458D01*
X56695Y223481D01*
X56751Y223526D01*
X58016Y224791D01*
X61984Y224791D01*
X64791Y221984D01*
X64791Y219064D01*
X64794Y219044D01*
X64792Y219025D01*
X64814Y218923D01*
X64830Y218821D01*
X64840Y218804D01*
X64844Y218784D01*
X64897Y218695D01*
X64946Y218604D01*
X64960Y218590D01*
X64970Y218573D01*
X65049Y218506D01*
X65124Y218434D01*
X65142Y218426D01*
X65157Y218413D01*
X65253Y218374D01*
X65347Y218331D01*
X65367Y218329D01*
X65385Y218321D01*
X65552Y218303D01*
X104448Y218303D01*
X104468Y218306D01*
X104487Y218304D01*
X104589Y218326D01*
X104691Y218342D01*
X104708Y218352D01*
X104728Y218356D01*
X104817Y218409D01*
X104908Y218458D01*
X104922Y218472D01*
X104939Y218482D01*
X105006Y218561D01*
X105078Y218636D01*
X105086Y218654D01*
X105099Y218669D01*
X105138Y218765D01*
X105181Y218859D01*
X105183Y218879D01*
X105191Y218897D01*
X105209Y219064D01*
X105209Y221984D01*
X108016Y224791D01*
X109805Y224791D01*
X109895Y224805D01*
X109986Y224813D01*
X110015Y224825D01*
X110047Y224830D01*
X110128Y224873D01*
X110212Y224909D01*
X110244Y224935D01*
X110265Y224946D01*
X110287Y224969D01*
X110343Y225014D01*
X113632Y228303D01*
X118698Y228303D01*
X118718Y228306D01*
X118737Y228304D01*
X118839Y228326D01*
X118941Y228342D01*
X118958Y228352D01*
X118978Y228356D01*
X119067Y228409D01*
X119158Y228458D01*
X119172Y228472D01*
X119189Y228482D01*
X119256Y228561D01*
X119328Y228636D01*
X119336Y228654D01*
X119349Y228669D01*
X119388Y228765D01*
X119431Y228859D01*
X119433Y228879D01*
X119441Y228897D01*
X119459Y229064D01*
X119459Y229588D01*
X119512Y229661D01*
X119518Y229681D01*
X119529Y229697D01*
X119554Y229798D01*
X119584Y229897D01*
X119584Y229917D01*
X119589Y229936D01*
X119581Y230039D01*
X119578Y230142D01*
X119571Y230161D01*
X119570Y230181D01*
X119529Y230276D01*
X119494Y230373D01*
X119481Y230389D01*
X119473Y230407D01*
X119459Y230425D01*
X119459Y230936D01*
X119456Y230956D01*
X119458Y230975D01*
X119436Y231077D01*
X119420Y231179D01*
X119410Y231196D01*
X119406Y231216D01*
X119353Y231305D01*
X119304Y231396D01*
X119290Y231410D01*
X119280Y231427D01*
X119201Y231494D01*
X119126Y231566D01*
X119108Y231574D01*
X119093Y231587D01*
X118997Y231626D01*
X118903Y231669D01*
X118883Y231671D01*
X118865Y231679D01*
X118698Y231697D01*
X113632Y231697D01*
X111474Y233855D01*
X110343Y234986D01*
X110269Y235039D01*
X110200Y235099D01*
X110169Y235111D01*
X110143Y235130D01*
X110056Y235157D01*
X109971Y235191D01*
X109930Y235195D01*
X109908Y235202D01*
X109876Y235201D01*
X109805Y235209D01*
X108016Y235209D01*
X105209Y238016D01*
X105209Y241984D01*
X107687Y244462D01*
X107698Y244478D01*
X107714Y244490D01*
X107770Y244578D01*
X107830Y244661D01*
X107836Y244680D01*
X107847Y244697D01*
X107872Y244798D01*
X107903Y244897D01*
X107902Y244916D01*
X107907Y244936D01*
X107899Y245039D01*
X107896Y245142D01*
X107889Y245161D01*
X107888Y245181D01*
X107847Y245276D01*
X107812Y245373D01*
X107799Y245389D01*
X107791Y245407D01*
X107687Y245538D01*
X106751Y246474D01*
X106677Y246527D01*
X106607Y246587D01*
X106577Y246599D01*
X106551Y246618D01*
X106464Y246645D01*
X106379Y246679D01*
X106338Y246683D01*
X106316Y246690D01*
X106284Y246689D01*
X106212Y246697D01*
X58632Y246697D01*
X45719Y259610D01*
X45650Y259660D01*
X45585Y259717D01*
X45550Y259731D01*
X45520Y259753D01*
X45437Y259779D01*
X45358Y259812D01*
X45321Y259815D01*
X45285Y259826D01*
X45198Y259823D01*
X45113Y259830D01*
X45076Y259820D01*
X45039Y259819D01*
X44958Y259790D01*
X44874Y259768D01*
X44843Y259748D01*
X44808Y259735D01*
X44740Y259681D01*
X44668Y259634D01*
X44636Y259598D01*
X44616Y259581D01*
X44599Y259555D01*
X44558Y259508D01*
X39988Y252983D01*
X39988Y252982D01*
X39987Y252981D01*
X39935Y252871D01*
X39882Y252761D01*
X39882Y252760D01*
X39881Y252759D01*
X39866Y252635D01*
X39851Y252517D01*
X39852Y252516D01*
X39851Y252515D01*
X39877Y252349D01*
X40688Y249323D01*
X36648Y242326D01*
X33622Y241515D01*
X33621Y241515D01*
X33620Y241515D01*
X33512Y241466D01*
X33398Y241414D01*
X33397Y241413D01*
X33396Y241413D01*
X33309Y241332D01*
X33217Y241247D01*
X33217Y241246D01*
X33216Y241245D01*
X33129Y241102D01*
X27554Y229146D01*
X27554Y229145D01*
X27553Y229144D01*
X27520Y229025D01*
X27487Y228909D01*
X27487Y228908D01*
X27487Y228907D01*
X27493Y228791D01*
X27500Y228664D01*
X27500Y228662D01*
X27500Y228661D01*
X27554Y228503D01*
X28878Y225663D01*
X26114Y218071D01*
X23275Y216747D01*
X23274Y216746D01*
X23273Y216746D01*
X23174Y216678D01*
X23072Y216608D01*
X23071Y216608D01*
X23071Y216607D01*
X22998Y216510D01*
X22924Y216412D01*
X22923Y216411D01*
X22923Y216410D01*
X22862Y216254D01*
X19448Y203512D01*
X19448Y203511D01*
X19447Y203510D01*
X19435Y203384D01*
X19423Y203267D01*
X19423Y203266D01*
X19423Y203265D01*
X19451Y203145D01*
X19478Y203027D01*
X19479Y203026D01*
X19479Y203025D01*
X19559Y202878D01*
X21356Y200312D01*
X19953Y192355D01*
X17387Y190558D01*
X17386Y190557D01*
X17385Y190557D01*
X17298Y190472D01*
X17211Y190386D01*
X17210Y190385D01*
X17153Y190272D01*
X17099Y190167D01*
X17099Y190166D01*
X17098Y190165D01*
X17065Y190001D01*
X15916Y176860D01*
X15916Y176859D01*
X15915Y176857D01*
X15925Y176736D01*
X15934Y176614D01*
X15934Y176613D01*
X15934Y176612D01*
X15978Y176509D01*
X16030Y176388D01*
X16030Y176387D01*
X16031Y176386D01*
X16136Y176255D01*
X18351Y174040D01*
X18351Y165960D01*
X16136Y163745D01*
X16135Y163744D01*
X16134Y163744D01*
X16063Y163644D01*
X15992Y163545D01*
X15992Y163544D01*
X15991Y163543D01*
X15955Y163426D01*
X15920Y163310D01*
X15920Y163309D01*
X15919Y163308D01*
X15916Y163140D01*
X17065Y149999D01*
X17066Y149998D01*
X17066Y149997D01*
X17097Y149876D01*
X17126Y149761D01*
X17127Y149760D01*
X17127Y149759D01*
X17194Y149656D01*
X17260Y149554D01*
X17261Y149554D01*
X17261Y149553D01*
X17387Y149442D01*
X19953Y147645D01*
X21356Y139688D01*
X19559Y137122D01*
X19559Y137121D01*
X19558Y137120D01*
X19503Y137005D01*
X19453Y136900D01*
X19453Y136899D01*
X19452Y136898D01*
X19437Y136774D01*
X19422Y136656D01*
X19422Y136655D01*
X19422Y136654D01*
X19448Y136488D01*
X22862Y123746D01*
X22862Y123745D01*
X22862Y123744D01*
X22913Y123632D01*
X22963Y123522D01*
X22964Y123521D01*
X22964Y123520D01*
X23048Y123430D01*
X23130Y123342D01*
X23131Y123341D01*
X23132Y123340D01*
X23275Y123253D01*
X26114Y121929D01*
X28878Y114337D01*
X27554Y111497D01*
X27554Y111496D01*
X27553Y111496D01*
X27522Y111385D01*
X27487Y111261D01*
X27487Y111260D01*
X27487Y111259D01*
X27493Y111142D01*
X27500Y111015D01*
X27500Y111014D01*
X27500Y111013D01*
X27554Y110854D01*
X33129Y98898D01*
X33130Y98897D01*
X33130Y98896D01*
X33198Y98797D01*
X33267Y98695D01*
X33268Y98694D01*
X33269Y98694D01*
X33368Y98619D01*
X33464Y98547D01*
X33465Y98546D01*
X33466Y98546D01*
X33622Y98485D01*
X36648Y97674D01*
X40688Y90677D01*
X39877Y87651D01*
X39877Y87650D01*
X39876Y87649D01*
X39865Y87528D01*
X39852Y87406D01*
X39853Y87405D01*
X39852Y87404D01*
X39881Y87282D01*
X39907Y87166D01*
X39908Y87165D01*
X39908Y87164D01*
X39988Y87017D01*
X47555Y76211D01*
X47556Y76211D01*
X47556Y76210D01*
X47638Y76126D01*
X47727Y76035D01*
X47728Y76035D01*
X47728Y76034D01*
X47836Y75979D01*
X47945Y75923D01*
X47947Y75923D01*
X47948Y75923D01*
X48112Y75890D01*
X51233Y75617D01*
X56426Y69427D01*
X56180Y66608D01*
X49515Y61016D01*
X46696Y61263D01*
G37*
%LPD*%
%LPC*%
G36*
X165960Y5649D02*
X165960Y5649D01*
X163959Y7650D01*
X163959Y8516D01*
X163942Y8624D01*
X163928Y8733D01*
X163922Y8745D01*
X163920Y8758D01*
X163868Y8855D01*
X163820Y8954D01*
X163811Y8964D01*
X163804Y8976D01*
X163725Y9051D01*
X163648Y9130D01*
X163636Y9136D01*
X163626Y9145D01*
X163527Y9191D01*
X163429Y9241D01*
X163413Y9244D01*
X163403Y9249D01*
X163375Y9252D01*
X163264Y9274D01*
X148724Y10546D01*
X148614Y10538D01*
X148505Y10534D01*
X148492Y10529D01*
X148478Y10528D01*
X148377Y10485D01*
X148275Y10446D01*
X148264Y10437D01*
X148252Y10432D01*
X148169Y10359D01*
X148085Y10290D01*
X148078Y10278D01*
X148068Y10269D01*
X148013Y10174D01*
X147955Y10081D01*
X147950Y10065D01*
X147945Y10056D01*
X147939Y10028D01*
X147908Y9920D01*
X147757Y9068D01*
X145439Y7445D01*
X137483Y8848D01*
X135860Y11166D01*
X136010Y12018D01*
X136011Y12128D01*
X136016Y12237D01*
X136013Y12250D01*
X136013Y12264D01*
X135979Y12368D01*
X135949Y12474D01*
X135941Y12485D01*
X135937Y12498D01*
X135872Y12586D01*
X135810Y12677D01*
X135799Y12685D01*
X135791Y12696D01*
X135701Y12758D01*
X135613Y12824D01*
X135598Y12830D01*
X135589Y12837D01*
X135562Y12845D01*
X135457Y12885D01*
X121358Y16663D01*
X121249Y16674D01*
X121140Y16689D01*
X121127Y16686D01*
X121113Y16688D01*
X121006Y16663D01*
X120898Y16642D01*
X120887Y16636D01*
X120873Y16633D01*
X120779Y16575D01*
X120684Y16521D01*
X120675Y16511D01*
X120664Y16504D01*
X120593Y16420D01*
X120520Y16339D01*
X120513Y16324D01*
X120506Y16316D01*
X120495Y16289D01*
X120445Y16188D01*
X120149Y15375D01*
X117585Y14179D01*
X109993Y16942D01*
X108797Y19507D01*
X109093Y20320D01*
X109113Y20428D01*
X109137Y20535D01*
X109136Y20548D01*
X109138Y20562D01*
X109123Y20671D01*
X109112Y20780D01*
X109106Y20792D01*
X109105Y20806D01*
X109055Y20904D01*
X109010Y21004D01*
X109001Y21013D01*
X108995Y21026D01*
X108917Y21103D01*
X108842Y21183D01*
X108828Y21192D01*
X108821Y21199D01*
X108795Y21212D01*
X108699Y21270D01*
X95470Y27439D01*
X95365Y27469D01*
X95260Y27502D01*
X95246Y27502D01*
X95233Y27506D01*
X95124Y27500D01*
X95014Y27499D01*
X95001Y27494D01*
X94988Y27493D01*
X94886Y27453D01*
X94782Y27417D01*
X94772Y27408D01*
X94759Y27403D01*
X94675Y27333D01*
X94589Y27265D01*
X94579Y27252D01*
X94571Y27245D01*
X94556Y27220D01*
X94489Y27130D01*
X94056Y26380D01*
X91323Y25648D01*
X84326Y29688D01*
X83594Y32421D01*
X84026Y33171D01*
X84065Y33273D01*
X84108Y33374D01*
X84108Y33388D01*
X84113Y33401D01*
X84117Y33511D01*
X84125Y33620D01*
X84122Y33633D01*
X84122Y33646D01*
X84091Y33752D01*
X84064Y33858D01*
X84056Y33869D01*
X84053Y33882D01*
X83989Y33972D01*
X83930Y34064D01*
X83917Y34075D01*
X83911Y34084D01*
X83888Y34101D01*
X83804Y34175D01*
X71847Y42547D01*
X71749Y42594D01*
X71651Y42645D01*
X71638Y42648D01*
X71626Y42653D01*
X71517Y42667D01*
X71408Y42684D01*
X71395Y42682D01*
X71382Y42684D01*
X71274Y42662D01*
X71166Y42644D01*
X71154Y42638D01*
X71140Y42635D01*
X71045Y42580D01*
X70949Y42528D01*
X70937Y42517D01*
X70928Y42512D01*
X70909Y42490D01*
X70827Y42413D01*
X70271Y41750D01*
X67452Y41503D01*
X61263Y46696D01*
X61016Y49515D01*
X66519Y56074D01*
X66549Y56124D01*
X66587Y56168D01*
X66611Y56229D01*
X66645Y56285D01*
X66657Y56342D01*
X66679Y56396D01*
X66690Y56494D01*
X66696Y56526D01*
X66695Y56540D01*
X66697Y56563D01*
X66697Y73801D01*
X66691Y73839D01*
X66693Y73878D01*
X66671Y73960D01*
X66658Y74044D01*
X66639Y74078D01*
X66629Y74115D01*
X66582Y74186D01*
X66542Y74261D01*
X66514Y74288D01*
X66493Y74320D01*
X66426Y74372D01*
X66364Y74431D01*
X66329Y74447D01*
X66298Y74470D01*
X66218Y74498D01*
X66141Y74534D01*
X66103Y74538D01*
X66066Y74551D01*
X65981Y74552D01*
X65897Y74561D01*
X65859Y74553D01*
X65820Y74553D01*
X65739Y74527D01*
X65656Y74509D01*
X65623Y74489D01*
X65586Y74477D01*
X65447Y74384D01*
X61772Y71301D01*
X58953Y71547D01*
X53760Y77737D01*
X54006Y80556D01*
X54669Y81112D01*
X54741Y81195D01*
X54815Y81276D01*
X54821Y81288D01*
X54830Y81298D01*
X54871Y81400D01*
X54916Y81500D01*
X54917Y81514D01*
X54922Y81526D01*
X54929Y81636D01*
X54940Y81745D01*
X54936Y81758D01*
X54937Y81772D01*
X54909Y81877D01*
X54884Y81985D01*
X54876Y81999D01*
X54873Y82009D01*
X54858Y82033D01*
X54804Y82132D01*
X48031Y91804D01*
X47954Y91882D01*
X47881Y91963D01*
X47869Y91970D01*
X47859Y91980D01*
X47762Y92030D01*
X47666Y92083D01*
X47653Y92086D01*
X47640Y92092D01*
X47532Y92108D01*
X47424Y92128D01*
X47411Y92126D01*
X47397Y92128D01*
X47289Y92109D01*
X47181Y92094D01*
X47165Y92087D01*
X47155Y92085D01*
X47130Y92072D01*
X47027Y92026D01*
X46278Y91594D01*
X43544Y92326D01*
X39504Y99323D01*
X40237Y102057D01*
X43341Y103849D01*
X43393Y103891D01*
X43451Y103926D01*
X43488Y103969D01*
X43531Y104004D01*
X43567Y104062D01*
X43611Y104113D01*
X43632Y104165D01*
X43662Y104213D01*
X43678Y104278D01*
X43703Y104341D01*
X43712Y104420D01*
X43719Y104452D01*
X43718Y104473D01*
X43721Y104508D01*
X43721Y108392D01*
X44986Y109657D01*
X45039Y109731D01*
X45099Y109800D01*
X45111Y109831D01*
X45130Y109857D01*
X45157Y109944D01*
X45191Y110029D01*
X45195Y110070D01*
X45202Y110092D01*
X45201Y110124D01*
X45209Y110195D01*
X45209Y111984D01*
X47135Y113910D01*
X47176Y113968D01*
X47226Y114020D01*
X47248Y114067D01*
X47278Y114109D01*
X47299Y114178D01*
X47329Y114243D01*
X47335Y114295D01*
X47351Y114345D01*
X47349Y114416D01*
X47357Y114487D01*
X47346Y114538D01*
X47344Y114590D01*
X47320Y114658D01*
X47304Y114728D01*
X47278Y114773D01*
X47260Y114821D01*
X47215Y114877D01*
X47178Y114939D01*
X47139Y114973D01*
X47106Y115013D01*
X47046Y115052D01*
X46991Y115099D01*
X46943Y115118D01*
X46899Y115146D01*
X46830Y115164D01*
X46763Y115191D01*
X46692Y115199D01*
X46661Y115207D01*
X46637Y115205D01*
X46596Y115209D01*
X43016Y115209D01*
X41787Y116438D01*
X41705Y116497D01*
X41627Y116560D01*
X41606Y116568D01*
X41587Y116582D01*
X41491Y116611D01*
X41397Y116646D01*
X41374Y116647D01*
X41352Y116654D01*
X41251Y116651D01*
X41151Y116655D01*
X41123Y116648D01*
X41106Y116648D01*
X41075Y116636D01*
X40988Y116615D01*
X34542Y114269D01*
X31978Y115465D01*
X29214Y123057D01*
X30410Y125622D01*
X31223Y125918D01*
X31319Y125972D01*
X31416Y126022D01*
X31426Y126032D01*
X31438Y126038D01*
X31512Y126120D01*
X31588Y126198D01*
X31594Y126211D01*
X31603Y126221D01*
X31647Y126322D01*
X31694Y126420D01*
X31695Y126434D01*
X31701Y126446D01*
X31710Y126555D01*
X31724Y126664D01*
X31721Y126681D01*
X31722Y126691D01*
X31715Y126719D01*
X31698Y126830D01*
X28642Y138236D01*
X28597Y138335D01*
X28556Y138437D01*
X28547Y138447D01*
X28541Y138460D01*
X28467Y138540D01*
X28395Y138623D01*
X28383Y138630D01*
X28374Y138640D01*
X28277Y138692D01*
X28183Y138748D01*
X28170Y138751D01*
X28158Y138757D01*
X28049Y138776D01*
X27942Y138799D01*
X27926Y138798D01*
X27915Y138800D01*
X27887Y138795D01*
X27775Y138788D01*
X26923Y138638D01*
X24605Y140261D01*
X23202Y148218D01*
X24825Y150536D01*
X33392Y152046D01*
X35710Y150423D01*
X37113Y142466D01*
X35316Y139900D01*
X35316Y139899D01*
X35315Y139899D01*
X35262Y139787D01*
X35210Y139679D01*
X35209Y139678D01*
X35209Y139677D01*
X35193Y139544D01*
X35179Y139435D01*
X35179Y139434D01*
X35179Y139432D01*
X35205Y139267D01*
X37897Y129218D01*
X37897Y129217D01*
X37897Y129216D01*
X37948Y129104D01*
X37998Y128994D01*
X37999Y128993D01*
X37999Y128992D01*
X38086Y128900D01*
X38165Y128814D01*
X38166Y128813D01*
X38167Y128813D01*
X38310Y128725D01*
X41150Y127401D01*
X41935Y125242D01*
X41966Y125188D01*
X41988Y125129D01*
X42026Y125081D01*
X42056Y125028D01*
X42102Y124986D01*
X42141Y124937D01*
X42193Y124904D01*
X42238Y124863D01*
X42296Y124838D01*
X42348Y124804D01*
X42408Y124789D01*
X42464Y124765D01*
X42526Y124759D01*
X42587Y124744D01*
X42648Y124749D01*
X42709Y124743D01*
X42770Y124758D01*
X42832Y124763D01*
X42888Y124787D01*
X42903Y124791D01*
X46984Y124791D01*
X49791Y121984D01*
X49791Y118016D01*
X47865Y116090D01*
X47824Y116032D01*
X47774Y115980D01*
X47752Y115933D01*
X47722Y115891D01*
X47701Y115822D01*
X47671Y115757D01*
X47665Y115705D01*
X47649Y115655D01*
X47651Y115584D01*
X47643Y115513D01*
X47654Y115462D01*
X47656Y115410D01*
X47680Y115342D01*
X47696Y115272D01*
X47722Y115227D01*
X47740Y115179D01*
X47785Y115123D01*
X47822Y115061D01*
X47861Y115027D01*
X47894Y114987D01*
X47954Y114948D01*
X48009Y114901D01*
X48057Y114882D01*
X48101Y114854D01*
X48170Y114836D01*
X48237Y114809D01*
X48308Y114801D01*
X48339Y114793D01*
X48363Y114795D01*
X48404Y114791D01*
X51984Y114791D01*
X54791Y111984D01*
X54791Y108016D01*
X51966Y105191D01*
X51902Y105185D01*
X51876Y105174D01*
X51848Y105170D01*
X51764Y105125D01*
X51677Y105087D01*
X51656Y105068D01*
X51631Y105054D01*
X51565Y104985D01*
X51495Y104921D01*
X51481Y104897D01*
X51461Y104876D01*
X51421Y104790D01*
X51375Y104706D01*
X51370Y104679D01*
X51358Y104653D01*
X51347Y104558D01*
X51330Y104465D01*
X51334Y104437D01*
X51331Y104409D01*
X51351Y104315D01*
X51364Y104221D01*
X51379Y104189D01*
X51383Y104168D01*
X51400Y104140D01*
X51432Y104067D01*
X54544Y98677D01*
X53733Y95651D01*
X53733Y95650D01*
X53733Y95649D01*
X53721Y95528D01*
X53709Y95406D01*
X53709Y95405D01*
X53709Y95404D01*
X53737Y95282D01*
X53764Y95166D01*
X53764Y95165D01*
X53764Y95164D01*
X53845Y95017D01*
X59811Y86496D01*
X59812Y86495D01*
X59813Y86494D01*
X59895Y86410D01*
X59983Y86320D01*
X59984Y86319D01*
X59985Y86319D01*
X60093Y86264D01*
X60202Y86208D01*
X60203Y86208D01*
X60204Y86207D01*
X60369Y86174D01*
X63490Y85901D01*
X65353Y83680D01*
X65432Y83612D01*
X65508Y83540D01*
X65525Y83532D01*
X65539Y83520D01*
X65636Y83481D01*
X65731Y83437D01*
X65750Y83435D01*
X65767Y83427D01*
X65872Y83421D01*
X65975Y83410D01*
X65994Y83414D01*
X66013Y83412D01*
X66113Y83440D01*
X66216Y83462D01*
X66232Y83472D01*
X66250Y83476D01*
X66337Y83534D01*
X66427Y83588D01*
X66439Y83602D01*
X66455Y83613D01*
X66519Y83695D01*
X66587Y83775D01*
X66594Y83792D01*
X66605Y83807D01*
X66640Y83906D01*
X66679Y84003D01*
X66681Y84026D01*
X66686Y84040D01*
X66686Y84072D01*
X66697Y84170D01*
X66697Y86212D01*
X66683Y86302D01*
X66675Y86393D01*
X66663Y86423D01*
X66658Y86455D01*
X66615Y86536D01*
X66579Y86620D01*
X66553Y86652D01*
X66542Y86672D01*
X66519Y86695D01*
X66474Y86751D01*
X65209Y88016D01*
X65209Y91984D01*
X67687Y94462D01*
X67698Y94478D01*
X67714Y94490D01*
X67770Y94578D01*
X67830Y94661D01*
X67836Y94680D01*
X67847Y94697D01*
X67872Y94798D01*
X67903Y94897D01*
X67902Y94916D01*
X67907Y94936D01*
X67899Y95039D01*
X67896Y95142D01*
X67889Y95161D01*
X67888Y95181D01*
X67847Y95276D01*
X67812Y95373D01*
X67799Y95389D01*
X67791Y95407D01*
X67687Y95538D01*
X65209Y98016D01*
X65209Y101984D01*
X68016Y104791D01*
X71984Y104791D01*
X74791Y101984D01*
X74791Y100195D01*
X74806Y100105D01*
X74813Y100014D01*
X74825Y99985D01*
X74830Y99953D01*
X74873Y99872D01*
X74909Y99788D01*
X74935Y99756D01*
X74946Y99735D01*
X74969Y99713D01*
X75014Y99657D01*
X82027Y92644D01*
X82027Y67095D01*
X82027Y67094D01*
X82027Y67093D01*
X82048Y66967D01*
X82067Y66853D01*
X82067Y66852D01*
X82067Y66851D01*
X82126Y66740D01*
X82182Y66635D01*
X82183Y66634D01*
X82183Y66633D01*
X82299Y66512D01*
X85901Y63490D01*
X86174Y60369D01*
X86174Y60368D01*
X86174Y60367D01*
X86204Y60251D01*
X86235Y60130D01*
X86236Y60129D01*
X86236Y60128D01*
X86302Y60026D01*
X86368Y59924D01*
X86369Y59923D01*
X86370Y59922D01*
X86496Y59811D01*
X95017Y53845D01*
X95018Y53844D01*
X95019Y53844D01*
X95129Y53791D01*
X95239Y53738D01*
X95240Y53738D01*
X95241Y53738D01*
X95365Y53722D01*
X95483Y53708D01*
X95484Y53708D01*
X95485Y53708D01*
X95651Y53733D01*
X98677Y54544D01*
X105674Y50504D01*
X106406Y47771D01*
X102057Y40237D01*
X99323Y39504D01*
X92326Y43544D01*
X91594Y46278D01*
X92026Y47027D01*
X92065Y47130D01*
X92108Y47231D01*
X92108Y47244D01*
X92113Y47257D01*
X92117Y47367D01*
X92125Y47476D01*
X92122Y47489D01*
X92122Y47503D01*
X92091Y47608D01*
X92064Y47714D01*
X92056Y47726D01*
X92053Y47739D01*
X91989Y47829D01*
X91930Y47920D01*
X91917Y47931D01*
X91911Y47940D01*
X91888Y47957D01*
X91804Y48031D01*
X82132Y54804D01*
X82033Y54851D01*
X81936Y54902D01*
X81922Y54904D01*
X81910Y54910D01*
X81801Y54924D01*
X81693Y54941D01*
X81680Y54939D01*
X81666Y54941D01*
X81558Y54919D01*
X81450Y54901D01*
X81438Y54894D01*
X81425Y54892D01*
X81330Y54836D01*
X81233Y54785D01*
X81221Y54774D01*
X81212Y54768D01*
X81193Y54747D01*
X81112Y54669D01*
X80556Y54006D01*
X77737Y53760D01*
X74553Y56431D01*
X74520Y56451D01*
X74492Y56477D01*
X74415Y56513D01*
X74342Y56557D01*
X74304Y56565D01*
X74269Y56581D01*
X74185Y56590D01*
X74101Y56608D01*
X74063Y56604D01*
X74025Y56608D01*
X73942Y56590D01*
X73857Y56580D01*
X73822Y56564D01*
X73784Y56556D01*
X73711Y56512D01*
X73634Y56476D01*
X73606Y56449D01*
X73573Y56430D01*
X73518Y56365D01*
X73456Y56306D01*
X73438Y56272D01*
X73413Y56243D01*
X73381Y56164D01*
X73342Y56089D01*
X73336Y56050D01*
X73321Y56015D01*
X73303Y55848D01*
X73303Y53529D01*
X73303Y53528D01*
X73303Y53527D01*
X73324Y53402D01*
X73342Y53287D01*
X73343Y53286D01*
X73343Y53285D01*
X73402Y53174D01*
X73458Y53069D01*
X73458Y53068D01*
X73459Y53067D01*
X73575Y52946D01*
X75617Y51233D01*
X75890Y48112D01*
X75890Y48111D01*
X75890Y48110D01*
X75920Y47994D01*
X75950Y47874D01*
X75951Y47873D01*
X75951Y47872D01*
X76018Y47770D01*
X76084Y47667D01*
X76085Y47666D01*
X76211Y47555D01*
X87017Y39988D01*
X87018Y39988D01*
X87019Y39987D01*
X87129Y39935D01*
X87239Y39882D01*
X87240Y39882D01*
X87241Y39881D01*
X87365Y39866D01*
X87483Y39851D01*
X87484Y39852D01*
X87485Y39851D01*
X87651Y39877D01*
X90677Y40688D01*
X97674Y36648D01*
X98485Y33622D01*
X98485Y33621D01*
X98485Y33620D01*
X98534Y33512D01*
X98586Y33398D01*
X98587Y33397D01*
X98587Y33396D01*
X98672Y33305D01*
X98753Y33217D01*
X98754Y33217D01*
X98755Y33216D01*
X98898Y33129D01*
X110854Y27554D01*
X110855Y27554D01*
X110856Y27553D01*
X110966Y27522D01*
X111091Y27487D01*
X111092Y27487D01*
X111093Y27487D01*
X111209Y27493D01*
X111336Y27500D01*
X111338Y27500D01*
X111339Y27500D01*
X111497Y27554D01*
X114337Y28878D01*
X121929Y26114D01*
X123253Y23275D01*
X123254Y23274D01*
X123254Y23273D01*
X123322Y23174D01*
X123392Y23072D01*
X123392Y23071D01*
X123393Y23071D01*
X123490Y22998D01*
X123588Y22924D01*
X123589Y22923D01*
X123590Y22923D01*
X123746Y22862D01*
X136488Y19448D01*
X136489Y19448D01*
X136490Y19447D01*
X136616Y19435D01*
X136733Y19423D01*
X136734Y19423D01*
X136735Y19423D01*
X136855Y19451D01*
X136973Y19478D01*
X136974Y19479D01*
X136975Y19479D01*
X137122Y19559D01*
X139688Y21356D01*
X147645Y19953D01*
X149442Y17387D01*
X149443Y17386D01*
X149443Y17385D01*
X149526Y17301D01*
X149614Y17211D01*
X149615Y17210D01*
X149725Y17154D01*
X149833Y17099D01*
X149834Y17099D01*
X149835Y17098D01*
X149999Y17065D01*
X163140Y15916D01*
X163141Y15916D01*
X163143Y15915D01*
X163260Y15925D01*
X163386Y15934D01*
X163387Y15934D01*
X163388Y15934D01*
X163491Y15978D01*
X163612Y16030D01*
X163613Y16030D01*
X163614Y16031D01*
X163745Y16136D01*
X165960Y18351D01*
X174040Y18351D01*
X176255Y16136D01*
X176256Y16135D01*
X176256Y16134D01*
X176359Y16061D01*
X176455Y15992D01*
X176456Y15992D01*
X176457Y15991D01*
X176576Y15955D01*
X176690Y15920D01*
X176691Y15920D01*
X176692Y15919D01*
X176860Y15916D01*
X190001Y17065D01*
X190002Y17066D01*
X190003Y17066D01*
X190119Y17095D01*
X190239Y17126D01*
X190240Y17127D01*
X190241Y17127D01*
X190341Y17192D01*
X190446Y17260D01*
X190446Y17261D01*
X190447Y17261D01*
X190558Y17387D01*
X192355Y19953D01*
X200312Y21356D01*
X202878Y19559D01*
X202879Y19559D01*
X202880Y19558D01*
X202990Y19506D01*
X203100Y19453D01*
X203101Y19453D01*
X203102Y19452D01*
X203226Y19437D01*
X203344Y19422D01*
X203345Y19422D01*
X203346Y19422D01*
X203512Y19448D01*
X216254Y22862D01*
X216255Y22862D01*
X216256Y22862D01*
X216366Y22912D01*
X216478Y22963D01*
X216479Y22964D01*
X216480Y22964D01*
X216570Y23048D01*
X216658Y23130D01*
X216659Y23131D01*
X216660Y23132D01*
X216747Y23275D01*
X218071Y26114D01*
X225663Y28878D01*
X228502Y27554D01*
X228504Y27554D01*
X228504Y27553D01*
X228615Y27522D01*
X228739Y27487D01*
X228740Y27487D01*
X228741Y27487D01*
X228858Y27493D01*
X228985Y27500D01*
X228986Y27500D01*
X228987Y27500D01*
X229146Y27554D01*
X241102Y33129D01*
X241103Y33130D01*
X241104Y33130D01*
X241203Y33198D01*
X241305Y33267D01*
X241306Y33268D01*
X241306Y33269D01*
X241379Y33366D01*
X241453Y33464D01*
X241454Y33465D01*
X241454Y33466D01*
X241515Y33622D01*
X242326Y36648D01*
X249323Y40688D01*
X252057Y39955D01*
X256406Y32421D01*
X255674Y29688D01*
X248677Y25648D01*
X245944Y26380D01*
X245511Y27130D01*
X245441Y27215D01*
X245375Y27302D01*
X245364Y27310D01*
X245355Y27320D01*
X245262Y27379D01*
X245171Y27440D01*
X245158Y27444D01*
X245147Y27451D01*
X245039Y27477D01*
X244934Y27506D01*
X244921Y27505D01*
X244908Y27508D01*
X244798Y27499D01*
X244689Y27493D01*
X244673Y27488D01*
X244663Y27487D01*
X244636Y27475D01*
X244530Y27439D01*
X231301Y21270D01*
X231210Y21209D01*
X231118Y21150D01*
X231109Y21140D01*
X231098Y21132D01*
X231032Y21045D01*
X230962Y20959D01*
X230958Y20947D01*
X230949Y20936D01*
X230914Y20832D01*
X230876Y20729D01*
X230876Y20715D01*
X230871Y20702D01*
X230871Y20593D01*
X230868Y20483D01*
X230872Y20467D01*
X230872Y20457D01*
X230881Y20430D01*
X230907Y20320D01*
X231203Y19507D01*
X230007Y16942D01*
X222415Y14179D01*
X219850Y15375D01*
X219554Y16188D01*
X219501Y16284D01*
X219451Y16381D01*
X219441Y16391D01*
X219434Y16403D01*
X219353Y16476D01*
X219274Y16553D01*
X219262Y16559D01*
X219252Y16568D01*
X219151Y16611D01*
X219052Y16659D01*
X219039Y16660D01*
X219026Y16666D01*
X218917Y16675D01*
X218808Y16688D01*
X218792Y16686D01*
X218781Y16687D01*
X218753Y16680D01*
X218642Y16663D01*
X204543Y12885D01*
X204443Y12840D01*
X204341Y12799D01*
X204331Y12790D01*
X204319Y12784D01*
X204239Y12710D01*
X204155Y12638D01*
X204148Y12626D01*
X204138Y12617D01*
X204086Y12520D01*
X204030Y12426D01*
X204028Y12413D01*
X204021Y12401D01*
X204002Y12292D01*
X203979Y12185D01*
X203980Y12169D01*
X203979Y12158D01*
X203983Y12130D01*
X203990Y12018D01*
X204140Y11166D01*
X202517Y8848D01*
X194560Y7445D01*
X192243Y9068D01*
X192092Y9920D01*
X192056Y10023D01*
X192024Y10128D01*
X192016Y10139D01*
X192011Y10152D01*
X191944Y10239D01*
X191879Y10328D01*
X191868Y10336D01*
X191860Y10346D01*
X191769Y10407D01*
X191679Y10471D01*
X191666Y10475D01*
X191655Y10482D01*
X191549Y10510D01*
X191444Y10542D01*
X191428Y10543D01*
X191417Y10545D01*
X191389Y10544D01*
X191276Y10546D01*
X176736Y9274D01*
X176629Y9247D01*
X176522Y9224D01*
X176510Y9217D01*
X176497Y9213D01*
X176405Y9154D01*
X176311Y9097D01*
X176302Y9087D01*
X176291Y9080D01*
X176223Y8994D01*
X176151Y8911D01*
X176146Y8898D01*
X176138Y8887D01*
X176100Y8784D01*
X176059Y8682D01*
X176057Y8666D01*
X176054Y8656D01*
X176053Y8627D01*
X176041Y8516D01*
X176041Y7650D01*
X174040Y5649D01*
X165960Y5649D01*
G37*
%LPD*%
%LPC*%
G36*
X182948Y81459D02*
X182948Y81459D01*
X181459Y82948D01*
X181459Y97052D01*
X181921Y97514D01*
X181963Y97572D01*
X182012Y97624D01*
X182034Y97671D01*
X182064Y97713D01*
X182085Y97782D01*
X182115Y97847D01*
X182121Y97899D01*
X182137Y97949D01*
X182135Y98020D01*
X182143Y98091D01*
X182131Y98142D01*
X182130Y98194D01*
X182106Y98262D01*
X182090Y98332D01*
X182064Y98377D01*
X182046Y98425D01*
X182001Y98481D01*
X181964Y98543D01*
X181925Y98577D01*
X181892Y98617D01*
X181832Y98656D01*
X181777Y98703D01*
X181729Y98722D01*
X181685Y98750D01*
X181616Y98768D01*
X181549Y98795D01*
X181478Y98803D01*
X181447Y98811D01*
X181423Y98809D01*
X181382Y98813D01*
X178618Y98813D01*
X178547Y98802D01*
X178475Y98800D01*
X178426Y98782D01*
X178375Y98774D01*
X178311Y98740D01*
X178244Y98715D01*
X178203Y98683D01*
X178158Y98658D01*
X178108Y98606D01*
X178052Y98561D01*
X178024Y98518D01*
X177988Y98480D01*
X177958Y98415D01*
X177919Y98354D01*
X177906Y98304D01*
X177885Y98257D01*
X177877Y98186D01*
X177859Y98116D01*
X177863Y98064D01*
X177857Y98013D01*
X177873Y97942D01*
X177878Y97871D01*
X177899Y97823D01*
X177910Y97772D01*
X177947Y97710D01*
X177975Y97644D01*
X178009Y97601D01*
X178368Y96981D01*
X178541Y96334D01*
X178541Y91523D01*
X166762Y91523D01*
X166742Y91520D01*
X166723Y91522D01*
X166621Y91500D01*
X166519Y91483D01*
X166502Y91474D01*
X166482Y91470D01*
X166393Y91417D01*
X166302Y91368D01*
X166288Y91354D01*
X166271Y91344D01*
X166204Y91265D01*
X166133Y91190D01*
X166124Y91172D01*
X166111Y91157D01*
X166072Y91061D01*
X166029Y90967D01*
X166027Y90947D01*
X166019Y90929D01*
X166001Y90762D01*
X166001Y89999D01*
X165999Y89999D01*
X165999Y90762D01*
X165996Y90782D01*
X165998Y90801D01*
X165976Y90903D01*
X165959Y91005D01*
X165950Y91022D01*
X165946Y91042D01*
X165893Y91131D01*
X165844Y91222D01*
X165830Y91236D01*
X165820Y91253D01*
X165741Y91320D01*
X165666Y91391D01*
X165648Y91400D01*
X165633Y91413D01*
X165537Y91452D01*
X165443Y91495D01*
X165423Y91497D01*
X165405Y91505D01*
X165238Y91523D01*
X153459Y91523D01*
X153459Y96334D01*
X153632Y96981D01*
X153967Y97560D01*
X154440Y98033D01*
X155019Y98368D01*
X155666Y98541D01*
X163532Y98541D01*
X163603Y98552D01*
X163675Y98554D01*
X163724Y98572D01*
X163775Y98580D01*
X163838Y98614D01*
X163906Y98639D01*
X163946Y98671D01*
X163992Y98696D01*
X164042Y98748D01*
X164098Y98792D01*
X164126Y98836D01*
X164162Y98874D01*
X164192Y98939D01*
X164231Y98999D01*
X164244Y99050D01*
X164265Y99097D01*
X164273Y99168D01*
X164291Y99238D01*
X164287Y99290D01*
X164293Y99341D01*
X164277Y99412D01*
X164272Y99483D01*
X164251Y99531D01*
X164240Y99582D01*
X164203Y99643D01*
X164175Y99709D01*
X164131Y99765D01*
X164114Y99793D01*
X164096Y99808D01*
X164071Y99840D01*
X163609Y100302D01*
X163609Y107848D01*
X163606Y107868D01*
X163608Y107887D01*
X163586Y107989D01*
X163570Y108091D01*
X163560Y108108D01*
X163556Y108128D01*
X163503Y108217D01*
X163454Y108308D01*
X163440Y108322D01*
X163430Y108339D01*
X163351Y108406D01*
X163276Y108478D01*
X163258Y108486D01*
X163243Y108499D01*
X163147Y108538D01*
X163053Y108581D01*
X163033Y108583D01*
X163015Y108591D01*
X162848Y108609D01*
X161313Y108609D01*
X161223Y108595D01*
X161132Y108587D01*
X161103Y108575D01*
X161071Y108570D01*
X160990Y108527D01*
X160906Y108491D01*
X160874Y108465D01*
X160853Y108454D01*
X160831Y108431D01*
X160775Y108386D01*
X154086Y101697D01*
X153927Y101697D01*
X153907Y101694D01*
X153888Y101696D01*
X153786Y101674D01*
X153684Y101658D01*
X153667Y101648D01*
X153647Y101644D01*
X153558Y101591D01*
X153467Y101542D01*
X153453Y101528D01*
X153436Y101518D01*
X153369Y101439D01*
X153297Y101364D01*
X153289Y101346D01*
X153276Y101331D01*
X153237Y101235D01*
X153194Y101141D01*
X153192Y101121D01*
X153184Y101103D01*
X153166Y100936D01*
X153166Y100248D01*
X151677Y98759D01*
X140314Y98759D01*
X140290Y98776D01*
X140242Y98823D01*
X140191Y98847D01*
X140146Y98880D01*
X140081Y98900D01*
X140020Y98929D01*
X139964Y98936D01*
X139910Y98952D01*
X139843Y98951D01*
X139776Y98959D01*
X139697Y98947D01*
X139665Y98946D01*
X139645Y98939D01*
X139610Y98934D01*
X138959Y98759D01*
X135523Y98759D01*
X135523Y104238D01*
X135522Y104247D01*
X135522Y104251D01*
X135520Y104260D01*
X135522Y104277D01*
X135500Y104379D01*
X135483Y104481D01*
X135474Y104498D01*
X135470Y104518D01*
X135417Y104607D01*
X135368Y104698D01*
X135354Y104712D01*
X135344Y104729D01*
X135265Y104796D01*
X135190Y104867D01*
X135172Y104876D01*
X135157Y104889D01*
X135061Y104928D01*
X134967Y104971D01*
X134947Y104973D01*
X134929Y104981D01*
X134762Y104999D01*
X133999Y104999D01*
X133999Y105001D01*
X134762Y105001D01*
X134782Y105004D01*
X134801Y105002D01*
X134903Y105024D01*
X135005Y105041D01*
X135022Y105050D01*
X135042Y105054D01*
X135131Y105107D01*
X135222Y105156D01*
X135236Y105170D01*
X135253Y105180D01*
X135320Y105259D01*
X135391Y105334D01*
X135400Y105352D01*
X135413Y105367D01*
X135452Y105463D01*
X135495Y105557D01*
X135497Y105577D01*
X135505Y105595D01*
X135523Y105762D01*
X135523Y110491D01*
X135508Y110581D01*
X135501Y110672D01*
X135489Y110702D01*
X135483Y110733D01*
X135441Y110814D01*
X135405Y110898D01*
X135379Y110930D01*
X135368Y110951D01*
X135345Y110973D01*
X135300Y111029D01*
X132593Y113736D01*
X132519Y113789D01*
X132450Y113849D01*
X132419Y113861D01*
X132393Y113880D01*
X132306Y113907D01*
X132221Y113941D01*
X132180Y113945D01*
X132158Y113952D01*
X132126Y113951D01*
X132055Y113959D01*
X130948Y113959D01*
X129459Y115448D01*
X129459Y124588D01*
X129512Y124661D01*
X129518Y124681D01*
X129529Y124697D01*
X129554Y124798D01*
X129584Y124897D01*
X129584Y124916D01*
X129589Y124936D01*
X129581Y125039D01*
X129578Y125142D01*
X129571Y125161D01*
X129570Y125181D01*
X129529Y125276D01*
X129494Y125373D01*
X129481Y125389D01*
X129473Y125407D01*
X129459Y125425D01*
X129459Y134552D01*
X130948Y136041D01*
X139052Y136041D01*
X139462Y135631D01*
X139478Y135620D01*
X139490Y135604D01*
X139560Y135559D01*
X139591Y135533D01*
X139608Y135526D01*
X139661Y135488D01*
X139680Y135482D01*
X139697Y135471D01*
X139798Y135446D01*
X139897Y135416D01*
X139916Y135416D01*
X139936Y135411D01*
X140039Y135419D01*
X140142Y135422D01*
X140161Y135429D01*
X140181Y135430D01*
X140257Y135463D01*
X140258Y135463D01*
X140276Y135471D01*
X140373Y135506D01*
X140389Y135519D01*
X140407Y135527D01*
X140465Y135572D01*
X140475Y135578D01*
X140485Y135589D01*
X140538Y135631D01*
X140948Y136041D01*
X146055Y136041D01*
X146145Y136055D01*
X146236Y136063D01*
X146265Y136075D01*
X146297Y136080D01*
X146378Y136123D01*
X146462Y136159D01*
X146494Y136185D01*
X146515Y136196D01*
X146537Y136219D01*
X146593Y136264D01*
X148637Y138308D01*
X151239Y140910D01*
X151250Y140926D01*
X151266Y140938D01*
X151322Y141025D01*
X151382Y141109D01*
X151388Y141128D01*
X151399Y141145D01*
X151424Y141246D01*
X151455Y141344D01*
X151454Y141364D01*
X151459Y141384D01*
X151451Y141487D01*
X151448Y141590D01*
X151441Y141609D01*
X151440Y141629D01*
X151400Y141724D01*
X151364Y141821D01*
X151351Y141837D01*
X151344Y141855D01*
X151239Y141986D01*
X150209Y143016D01*
X150209Y143838D01*
X150206Y143858D01*
X150208Y143877D01*
X150186Y143979D01*
X150170Y144081D01*
X150160Y144098D01*
X150156Y144118D01*
X150103Y144207D01*
X150054Y144298D01*
X150040Y144312D01*
X150030Y144329D01*
X149951Y144396D01*
X149876Y144468D01*
X149858Y144476D01*
X149843Y144489D01*
X149747Y144528D01*
X149653Y144571D01*
X149633Y144573D01*
X149615Y144581D01*
X149448Y144599D01*
X143583Y144599D01*
X143583Y149427D01*
X152336Y149427D01*
X152426Y149442D01*
X152517Y149449D01*
X152547Y149461D01*
X152579Y149467D01*
X152660Y149509D01*
X152744Y149545D01*
X152776Y149571D01*
X152796Y149582D01*
X152819Y149605D01*
X152875Y149650D01*
X153016Y149791D01*
X156984Y149791D01*
X159791Y146984D01*
X159791Y143016D01*
X158526Y141751D01*
X158473Y141677D01*
X158413Y141607D01*
X158401Y141577D01*
X158382Y141551D01*
X158355Y141464D01*
X158321Y141379D01*
X158317Y141338D01*
X158310Y141316D01*
X158311Y141284D01*
X158303Y141212D01*
X158303Y138846D01*
X158306Y138826D01*
X158304Y138807D01*
X158326Y138705D01*
X158342Y138603D01*
X158352Y138586D01*
X158356Y138566D01*
X158409Y138477D01*
X158458Y138386D01*
X158472Y138372D01*
X158482Y138355D01*
X158561Y138288D01*
X158636Y138216D01*
X158654Y138208D01*
X158669Y138195D01*
X158765Y138156D01*
X158859Y138113D01*
X158879Y138111D01*
X158897Y138103D01*
X159064Y138085D01*
X162848Y138085D01*
X162868Y138088D01*
X162887Y138086D01*
X162989Y138108D01*
X163091Y138124D01*
X163108Y138134D01*
X163128Y138138D01*
X163217Y138191D01*
X163308Y138240D01*
X163322Y138254D01*
X163339Y138264D01*
X163406Y138343D01*
X163478Y138418D01*
X163486Y138436D01*
X163499Y138451D01*
X163538Y138547D01*
X163581Y138641D01*
X163583Y138661D01*
X163591Y138679D01*
X163609Y138846D01*
X163609Y139698D01*
X165098Y141187D01*
X176948Y141187D01*
X176968Y141190D01*
X176987Y141188D01*
X177089Y141210D01*
X177191Y141226D01*
X177208Y141236D01*
X177228Y141240D01*
X177317Y141293D01*
X177408Y141342D01*
X177422Y141356D01*
X177439Y141366D01*
X177506Y141445D01*
X177578Y141520D01*
X177586Y141538D01*
X177599Y141553D01*
X177638Y141649D01*
X177681Y141743D01*
X177683Y141763D01*
X177691Y141781D01*
X177709Y141948D01*
X177709Y144484D01*
X180516Y147291D01*
X184484Y147291D01*
X186480Y145295D01*
X186538Y145254D01*
X186590Y145204D01*
X186637Y145182D01*
X186679Y145152D01*
X186748Y145131D01*
X186813Y145101D01*
X186865Y145095D01*
X186915Y145079D01*
X186986Y145081D01*
X187057Y145073D01*
X187108Y145084D01*
X187160Y145086D01*
X187228Y145110D01*
X187298Y145126D01*
X187343Y145152D01*
X187391Y145170D01*
X187447Y145215D01*
X187477Y145232D01*
X187448Y145188D01*
X187401Y145133D01*
X187382Y145085D01*
X187354Y145041D01*
X187336Y144972D01*
X187309Y144905D01*
X187301Y144834D01*
X187293Y144803D01*
X187295Y144779D01*
X187291Y144738D01*
X187291Y140516D01*
X186614Y139839D01*
X186561Y139765D01*
X186501Y139695D01*
X186489Y139665D01*
X186470Y139639D01*
X186443Y139552D01*
X186409Y139467D01*
X186405Y139426D01*
X186398Y139404D01*
X186399Y139372D01*
X186391Y139300D01*
X186391Y132152D01*
X186394Y132132D01*
X186392Y132113D01*
X186414Y132011D01*
X186430Y131909D01*
X186440Y131892D01*
X186444Y131872D01*
X186497Y131783D01*
X186546Y131692D01*
X186560Y131678D01*
X186570Y131661D01*
X186649Y131594D01*
X186724Y131522D01*
X186742Y131514D01*
X186757Y131501D01*
X186853Y131462D01*
X186947Y131419D01*
X186967Y131417D01*
X186985Y131409D01*
X187152Y131391D01*
X194698Y131391D01*
X195063Y131026D01*
X195138Y130972D01*
X195207Y130913D01*
X195237Y130901D01*
X195263Y130882D01*
X195350Y130855D01*
X195435Y130821D01*
X195476Y130817D01*
X195498Y130810D01*
X195530Y130811D01*
X195602Y130803D01*
X201368Y130803D01*
X208309Y123861D01*
X208326Y123786D01*
X208342Y123684D01*
X208352Y123667D01*
X208356Y123647D01*
X208409Y123558D01*
X208458Y123467D01*
X208472Y123453D01*
X208482Y123436D01*
X208561Y123369D01*
X208636Y123297D01*
X208654Y123289D01*
X208669Y123276D01*
X208765Y123237D01*
X208859Y123194D01*
X208879Y123192D01*
X208897Y123184D01*
X209064Y123166D01*
X209752Y123166D01*
X211241Y121677D01*
X211241Y110104D01*
X211241Y110103D01*
X211241Y110095D01*
X211241Y110081D01*
X211236Y110063D01*
X211241Y109997D01*
X211241Y109993D01*
X211241Y98323D01*
X209752Y96834D01*
X207302Y96834D01*
X207282Y96831D01*
X207263Y96833D01*
X207161Y96811D01*
X207059Y96795D01*
X207042Y96785D01*
X207022Y96781D01*
X206933Y96728D01*
X206842Y96679D01*
X206828Y96665D01*
X206811Y96655D01*
X206744Y96576D01*
X206672Y96501D01*
X206664Y96483D01*
X206651Y96468D01*
X206612Y96372D01*
X206569Y96278D01*
X206567Y96258D01*
X206559Y96240D01*
X206541Y96073D01*
X206541Y82948D01*
X205052Y81459D01*
X182948Y81459D01*
G37*
%LPD*%
%LPC*%
G36*
X269729Y41750D02*
X269729Y41750D01*
X264137Y48414D01*
X264383Y51233D01*
X270573Y56426D01*
X273694Y56153D01*
X273695Y56153D01*
X273696Y56153D01*
X273813Y56162D01*
X273939Y56172D01*
X273940Y56172D01*
X273941Y56172D01*
X274044Y56216D01*
X274166Y56267D01*
X274166Y56268D01*
X274167Y56269D01*
X274298Y56373D01*
X283627Y65702D01*
X283627Y65703D01*
X283628Y65703D01*
X283701Y65806D01*
X283770Y65901D01*
X283770Y65902D01*
X283771Y65903D01*
X283807Y66022D01*
X283843Y66137D01*
X283842Y66138D01*
X283843Y66139D01*
X283847Y66306D01*
X283574Y69427D01*
X288767Y75617D01*
X291888Y75890D01*
X291889Y75890D01*
X291890Y75890D01*
X292006Y75920D01*
X292126Y75950D01*
X292127Y75951D01*
X292128Y75951D01*
X292230Y76018D01*
X292333Y76084D01*
X292334Y76085D01*
X292445Y76211D01*
X300011Y87017D01*
X300012Y87018D01*
X300013Y87019D01*
X300065Y87129D01*
X300118Y87239D01*
X300118Y87240D01*
X300119Y87241D01*
X300133Y87357D01*
X300149Y87483D01*
X300148Y87484D01*
X300149Y87485D01*
X300123Y87651D01*
X299312Y90677D01*
X303352Y97674D01*
X306378Y98485D01*
X306379Y98485D01*
X306380Y98485D01*
X306488Y98534D01*
X306602Y98586D01*
X306603Y98587D01*
X306604Y98587D01*
X306689Y98666D01*
X306783Y98753D01*
X306783Y98754D01*
X306784Y98755D01*
X306871Y98898D01*
X312446Y110854D01*
X312446Y110855D01*
X312447Y110856D01*
X312478Y110966D01*
X312513Y111091D01*
X312513Y111092D01*
X312513Y111093D01*
X312507Y111209D01*
X312500Y111336D01*
X312500Y111338D01*
X312500Y111339D01*
X312446Y111497D01*
X311122Y114337D01*
X313886Y121929D01*
X316725Y123253D01*
X316726Y123254D01*
X316727Y123254D01*
X316824Y123321D01*
X316928Y123392D01*
X316929Y123392D01*
X316929Y123393D01*
X317002Y123490D01*
X317076Y123588D01*
X317077Y123589D01*
X317077Y123590D01*
X317138Y123746D01*
X320552Y136488D01*
X320552Y136489D01*
X320553Y136490D01*
X320565Y136616D01*
X320577Y136733D01*
X320577Y136734D01*
X320577Y136735D01*
X320549Y136855D01*
X320522Y136973D01*
X320521Y136974D01*
X320521Y136975D01*
X320441Y137122D01*
X318644Y139688D01*
X320047Y147645D01*
X322613Y149442D01*
X322614Y149443D01*
X322615Y149443D01*
X322699Y149526D01*
X322789Y149614D01*
X322790Y149615D01*
X322846Y149726D01*
X322901Y149833D01*
X322901Y149834D01*
X322902Y149835D01*
X322935Y149999D01*
X324084Y163140D01*
X324084Y163141D01*
X324085Y163143D01*
X324075Y163260D01*
X324066Y163386D01*
X324066Y163387D01*
X324066Y163388D01*
X324022Y163491D01*
X323970Y163612D01*
X323970Y163613D01*
X323969Y163614D01*
X323864Y163745D01*
X321649Y165960D01*
X321649Y171365D01*
X321635Y171455D01*
X321627Y171546D01*
X321615Y171575D01*
X321610Y171607D01*
X321567Y171688D01*
X321531Y171772D01*
X321505Y171804D01*
X321494Y171825D01*
X321471Y171847D01*
X321426Y171903D01*
X319650Y173679D01*
X319592Y173721D01*
X319540Y173770D01*
X319493Y173792D01*
X319451Y173823D01*
X319382Y173844D01*
X319317Y173874D01*
X319265Y173880D01*
X319215Y173895D01*
X319144Y173893D01*
X319073Y173901D01*
X319022Y173890D01*
X318970Y173889D01*
X318902Y173864D01*
X318832Y173849D01*
X318787Y173822D01*
X318739Y173804D01*
X318683Y173759D01*
X318621Y173722D01*
X318587Y173683D01*
X318547Y173650D01*
X318508Y173590D01*
X318461Y173536D01*
X318442Y173487D01*
X318414Y173443D01*
X318396Y173374D01*
X318369Y173307D01*
X318361Y173236D01*
X318353Y173205D01*
X318355Y173182D01*
X318351Y173141D01*
X318351Y165960D01*
X316350Y163959D01*
X315484Y163959D01*
X315376Y163942D01*
X315267Y163928D01*
X315255Y163922D01*
X315242Y163920D01*
X315145Y163868D01*
X315046Y163820D01*
X315036Y163811D01*
X315024Y163804D01*
X314949Y163725D01*
X314870Y163648D01*
X314864Y163636D01*
X314855Y163626D01*
X314809Y163527D01*
X314759Y163429D01*
X314756Y163413D01*
X314751Y163403D01*
X314748Y163375D01*
X314726Y163264D01*
X313697Y151502D01*
X313705Y151392D01*
X313709Y151283D01*
X313714Y151270D01*
X313715Y151257D01*
X313758Y151155D01*
X313797Y151053D01*
X313806Y151043D01*
X313811Y151030D01*
X313884Y150948D01*
X313953Y150863D01*
X313965Y150856D01*
X313974Y150846D01*
X314069Y150791D01*
X314162Y150733D01*
X314178Y150729D01*
X314187Y150723D01*
X314215Y150718D01*
X314323Y150686D01*
X315175Y150536D01*
X316798Y148218D01*
X315395Y140261D01*
X313470Y138913D01*
X313445Y138889D01*
X313416Y138871D01*
X313358Y138803D01*
X313294Y138741D01*
X313278Y138710D01*
X313256Y138684D01*
X313222Y138601D01*
X313182Y138522D01*
X313180Y138509D01*
X310014Y135343D01*
X309961Y135269D01*
X309901Y135200D01*
X309889Y135169D01*
X309870Y135143D01*
X309843Y135056D01*
X309809Y134971D01*
X309805Y134930D01*
X309798Y134908D01*
X309799Y134876D01*
X309791Y134805D01*
X309791Y133016D01*
X306984Y130209D01*
X303016Y130209D01*
X300209Y133016D01*
X300209Y136984D01*
X303016Y139791D01*
X303298Y139791D01*
X303303Y139792D01*
X303308Y139791D01*
X303425Y139812D01*
X303541Y139830D01*
X303545Y139833D01*
X303551Y139834D01*
X303655Y139891D01*
X303758Y139946D01*
X303762Y139949D01*
X303766Y139952D01*
X303847Y140039D01*
X303928Y140124D01*
X303930Y140129D01*
X303933Y140133D01*
X303982Y140241D01*
X304031Y140347D01*
X304032Y140352D01*
X304034Y140357D01*
X304045Y140476D01*
X304058Y140591D01*
X304057Y140597D01*
X304058Y140602D01*
X304031Y140717D01*
X304006Y140832D01*
X304003Y140836D01*
X304002Y140841D01*
X303922Y140989D01*
X302887Y142466D01*
X304290Y150423D01*
X306856Y152220D01*
X306857Y152221D01*
X306858Y152222D01*
X306945Y152307D01*
X307032Y152392D01*
X307033Y152393D01*
X307033Y152394D01*
X307089Y152504D01*
X307144Y152611D01*
X307144Y152612D01*
X307145Y152613D01*
X307178Y152778D01*
X308084Y163140D01*
X308084Y163141D01*
X308085Y163143D01*
X308075Y163260D01*
X308066Y163386D01*
X308066Y163387D01*
X308066Y163388D01*
X308021Y163493D01*
X307970Y163612D01*
X307970Y163613D01*
X307969Y163614D01*
X307864Y163745D01*
X305649Y165960D01*
X305649Y174040D01*
X307007Y175398D01*
X307049Y175456D01*
X307098Y175508D01*
X307120Y175555D01*
X307151Y175597D01*
X307172Y175666D01*
X307202Y175731D01*
X307208Y175783D01*
X307223Y175833D01*
X307221Y175904D01*
X307229Y175975D01*
X307218Y176026D01*
X307217Y176078D01*
X307192Y176146D01*
X307177Y176216D01*
X307150Y176261D01*
X307132Y176309D01*
X307087Y176365D01*
X307051Y176427D01*
X307011Y176461D01*
X306979Y176501D01*
X306918Y176540D01*
X306864Y176587D01*
X306815Y176606D01*
X306772Y176634D01*
X306702Y176652D01*
X306636Y176679D01*
X306564Y176687D01*
X306533Y176695D01*
X306510Y176693D01*
X306469Y176697D01*
X293788Y176697D01*
X293698Y176683D01*
X293607Y176675D01*
X293577Y176663D01*
X293545Y176658D01*
X293464Y176615D01*
X293380Y176579D01*
X293348Y176553D01*
X293328Y176542D01*
X293305Y176519D01*
X293249Y176474D01*
X291984Y175209D01*
X288016Y175209D01*
X285209Y178016D01*
X285209Y181984D01*
X288016Y184791D01*
X291984Y184791D01*
X293249Y183526D01*
X293323Y183473D01*
X293393Y183413D01*
X293423Y183401D01*
X293449Y183382D01*
X293536Y183355D01*
X293621Y183321D01*
X293662Y183317D01*
X293684Y183310D01*
X293716Y183311D01*
X293788Y183303D01*
X319368Y183303D01*
X326407Y176264D01*
X326481Y176211D01*
X326550Y176151D01*
X326581Y176139D01*
X326607Y176120D01*
X326694Y176093D01*
X326779Y176059D01*
X326820Y176055D01*
X326842Y176048D01*
X326874Y176049D01*
X326945Y176041D01*
X332350Y176041D01*
X334351Y174040D01*
X334351Y165960D01*
X332350Y163959D01*
X331484Y163959D01*
X331376Y163942D01*
X331267Y163928D01*
X331255Y163922D01*
X331242Y163920D01*
X331145Y163868D01*
X331046Y163820D01*
X331036Y163811D01*
X331024Y163804D01*
X330949Y163725D01*
X330870Y163648D01*
X330864Y163636D01*
X330855Y163626D01*
X330809Y163527D01*
X330759Y163429D01*
X330756Y163413D01*
X330751Y163403D01*
X330748Y163375D01*
X330726Y163264D01*
X329454Y148724D01*
X329462Y148614D01*
X329466Y148505D01*
X329471Y148492D01*
X329472Y148478D01*
X329515Y148377D01*
X329554Y148275D01*
X329563Y148264D01*
X329568Y148252D01*
X329641Y148169D01*
X329710Y148085D01*
X329722Y148078D01*
X329731Y148068D01*
X329826Y148013D01*
X329919Y147955D01*
X329935Y147950D01*
X329944Y147945D01*
X329972Y147939D01*
X330080Y147908D01*
X330932Y147757D01*
X332555Y145439D01*
X331152Y137483D01*
X328834Y135860D01*
X327982Y136010D01*
X327872Y136011D01*
X327763Y136016D01*
X327750Y136013D01*
X327736Y136013D01*
X327632Y135979D01*
X327526Y135949D01*
X327515Y135941D01*
X327502Y135937D01*
X327414Y135872D01*
X327323Y135810D01*
X327315Y135799D01*
X327304Y135791D01*
X327242Y135701D01*
X327176Y135613D01*
X327169Y135598D01*
X327163Y135589D01*
X327155Y135562D01*
X327115Y135457D01*
X323337Y121358D01*
X323326Y121249D01*
X323311Y121140D01*
X323314Y121127D01*
X323312Y121113D01*
X323337Y121007D01*
X323358Y120898D01*
X323364Y120887D01*
X323367Y120873D01*
X323424Y120780D01*
X323478Y120684D01*
X323489Y120675D01*
X323496Y120664D01*
X323580Y120593D01*
X323661Y120520D01*
X323676Y120513D01*
X323684Y120506D01*
X323711Y120495D01*
X323812Y120446D01*
X324625Y120149D01*
X325821Y117585D01*
X323058Y109993D01*
X320493Y108797D01*
X319680Y109093D01*
X319572Y109113D01*
X319465Y109137D01*
X319452Y109136D01*
X319438Y109138D01*
X319329Y109123D01*
X319220Y109112D01*
X319208Y109106D01*
X319194Y109105D01*
X319096Y109055D01*
X318996Y109010D01*
X318987Y109001D01*
X318974Y108995D01*
X318897Y108917D01*
X318817Y108842D01*
X318808Y108828D01*
X318801Y108821D01*
X318788Y108795D01*
X318729Y108699D01*
X312561Y95470D01*
X312531Y95365D01*
X312498Y95260D01*
X312498Y95246D01*
X312494Y95233D01*
X312500Y95124D01*
X312501Y95014D01*
X312506Y95001D01*
X312507Y94988D01*
X312547Y94886D01*
X312583Y94782D01*
X312592Y94772D01*
X312597Y94759D01*
X312667Y94675D01*
X312735Y94589D01*
X312748Y94579D01*
X312755Y94571D01*
X312780Y94556D01*
X312870Y94489D01*
X313620Y94056D01*
X314352Y91323D01*
X310312Y84326D01*
X307579Y83594D01*
X306829Y84026D01*
X306727Y84065D01*
X306626Y84108D01*
X306612Y84108D01*
X306599Y84113D01*
X306489Y84117D01*
X306380Y84125D01*
X306367Y84122D01*
X306354Y84122D01*
X306248Y84091D01*
X306142Y84064D01*
X306131Y84056D01*
X306118Y84053D01*
X306028Y83989D01*
X305936Y83930D01*
X305925Y83917D01*
X305916Y83911D01*
X305899Y83888D01*
X305825Y83804D01*
X297453Y71847D01*
X297406Y71749D01*
X297355Y71651D01*
X297352Y71638D01*
X297347Y71626D01*
X297333Y71517D01*
X297316Y71408D01*
X297318Y71395D01*
X297316Y71382D01*
X297338Y71273D01*
X297356Y71166D01*
X297362Y71154D01*
X297365Y71140D01*
X297420Y71045D01*
X297472Y70949D01*
X297483Y70937D01*
X297488Y70928D01*
X297510Y70909D01*
X297587Y70827D01*
X298250Y70271D01*
X298497Y67452D01*
X293304Y61263D01*
X290485Y61016D01*
X289822Y61572D01*
X289727Y61628D01*
X289635Y61688D01*
X289622Y61691D01*
X289610Y61698D01*
X289503Y61721D01*
X289397Y61748D01*
X289383Y61747D01*
X289370Y61750D01*
X289260Y61737D01*
X289151Y61729D01*
X289139Y61723D01*
X289125Y61722D01*
X289025Y61675D01*
X288925Y61632D01*
X288912Y61622D01*
X288902Y61618D01*
X288882Y61598D01*
X288794Y61528D01*
X278472Y51206D01*
X278409Y51117D01*
X278341Y51030D01*
X278337Y51017D01*
X278329Y51006D01*
X278297Y50902D01*
X278261Y50798D01*
X278260Y50784D01*
X278256Y50771D01*
X278259Y50661D01*
X278258Y50552D01*
X278262Y50539D01*
X278263Y50525D01*
X278301Y50422D01*
X278334Y50318D01*
X278344Y50304D01*
X278347Y50294D01*
X278365Y50272D01*
X278427Y50178D01*
X278984Y49515D01*
X278737Y46696D01*
X272548Y41503D01*
X269729Y41750D01*
G37*
%LPD*%
G36*
X209759Y275814D02*
X209759Y275814D01*
X209831Y275816D01*
X209880Y275834D01*
X209931Y275842D01*
X209995Y275876D01*
X210062Y275901D01*
X210103Y275933D01*
X210149Y275958D01*
X210198Y276010D01*
X210254Y276054D01*
X210282Y276098D01*
X210318Y276136D01*
X210348Y276201D01*
X210387Y276261D01*
X210400Y276312D01*
X210422Y276359D01*
X210430Y276430D01*
X210447Y276500D01*
X210443Y276552D01*
X210449Y276603D01*
X210434Y276674D01*
X210428Y276745D01*
X210408Y276793D01*
X210397Y276844D01*
X210360Y276905D01*
X210332Y276971D01*
X210287Y277027D01*
X210270Y277055D01*
X210253Y277070D01*
X210227Y277102D01*
X178855Y308474D01*
X178781Y308527D01*
X178712Y308587D01*
X178681Y308599D01*
X178655Y308618D01*
X178568Y308645D01*
X178483Y308679D01*
X178442Y308683D01*
X178420Y308690D01*
X178388Y308689D01*
X178317Y308697D01*
X176802Y308697D01*
X176782Y308694D01*
X176763Y308696D01*
X176661Y308674D01*
X176559Y308658D01*
X176542Y308648D01*
X176522Y308644D01*
X176433Y308591D01*
X176342Y308542D01*
X176328Y308528D01*
X176311Y308518D01*
X176244Y308439D01*
X176172Y308364D01*
X176164Y308346D01*
X176151Y308331D01*
X176112Y308235D01*
X176069Y308141D01*
X176067Y308121D01*
X176059Y308103D01*
X176041Y307936D01*
X176041Y307650D01*
X174040Y305649D01*
X165960Y305649D01*
X163745Y307864D01*
X163744Y307865D01*
X163744Y307866D01*
X163638Y307941D01*
X163545Y308008D01*
X163544Y308008D01*
X163543Y308009D01*
X163421Y308046D01*
X163310Y308080D01*
X163309Y308080D01*
X163308Y308081D01*
X163140Y308084D01*
X161867Y307973D01*
X152778Y307178D01*
X152776Y307177D01*
X152775Y307178D01*
X152654Y307146D01*
X152539Y307117D01*
X152538Y307116D01*
X152537Y307116D01*
X152432Y307048D01*
X152333Y306983D01*
X152332Y306983D01*
X152331Y306982D01*
X152220Y306856D01*
X150423Y304290D01*
X145115Y303354D01*
X145110Y303352D01*
X145105Y303352D01*
X144994Y303311D01*
X144883Y303273D01*
X144879Y303269D01*
X144874Y303268D01*
X144782Y303194D01*
X144689Y303122D01*
X144686Y303117D01*
X144682Y303114D01*
X144618Y303014D01*
X144553Y302916D01*
X144552Y302911D01*
X144549Y302907D01*
X144520Y302793D01*
X144490Y302679D01*
X144490Y302673D01*
X144489Y302668D01*
X144498Y302551D01*
X144506Y302433D01*
X144508Y302428D01*
X144508Y302423D01*
X144554Y302315D01*
X144599Y302206D01*
X144602Y302202D01*
X144604Y302197D01*
X144709Y302066D01*
X144791Y301984D01*
X144791Y300195D01*
X144805Y300105D01*
X144813Y300014D01*
X144825Y299985D01*
X144830Y299953D01*
X144873Y299872D01*
X144909Y299788D01*
X144935Y299756D01*
X144946Y299735D01*
X144969Y299713D01*
X145014Y299657D01*
X151145Y293526D01*
X151219Y293473D01*
X151288Y293413D01*
X151319Y293401D01*
X151345Y293382D01*
X151432Y293355D01*
X151517Y293321D01*
X151558Y293317D01*
X151580Y293310D01*
X151612Y293311D01*
X151683Y293303D01*
X186368Y293303D01*
X203645Y276026D01*
X203719Y275973D01*
X203788Y275913D01*
X203819Y275901D01*
X203845Y275882D01*
X203932Y275855D01*
X204017Y275821D01*
X204058Y275817D01*
X204080Y275810D01*
X204112Y275811D01*
X204183Y275803D01*
X209689Y275803D01*
X209759Y275814D01*
G37*
%LPC*%
G36*
X289496Y234326D02*
X289496Y234326D01*
X285456Y241323D01*
X286267Y244349D01*
X286267Y244350D01*
X286267Y244351D01*
X286279Y244472D01*
X286291Y244594D01*
X286291Y244595D01*
X286291Y244596D01*
X286263Y244716D01*
X286236Y244834D01*
X286236Y244835D01*
X286236Y244836D01*
X286155Y244983D01*
X280188Y253504D01*
X280188Y253505D01*
X280187Y253506D01*
X280105Y253590D01*
X280017Y253680D01*
X280016Y253681D01*
X280015Y253681D01*
X279907Y253736D01*
X279798Y253792D01*
X279797Y253792D01*
X279796Y253793D01*
X279631Y253826D01*
X276510Y254099D01*
X274558Y256425D01*
X274557Y256426D01*
X274557Y256427D01*
X274463Y256508D01*
X274372Y256586D01*
X274371Y256586D01*
X274370Y256587D01*
X274255Y256633D01*
X274144Y256678D01*
X274143Y256678D01*
X274142Y256679D01*
X273975Y256697D01*
X253788Y256697D01*
X253698Y256683D01*
X253607Y256675D01*
X253577Y256663D01*
X253545Y256658D01*
X253464Y256615D01*
X253380Y256579D01*
X253348Y256553D01*
X253328Y256542D01*
X253305Y256519D01*
X253249Y256474D01*
X251984Y255209D01*
X248016Y255209D01*
X245209Y258016D01*
X245209Y261984D01*
X248016Y264791D01*
X251984Y264791D01*
X253249Y263526D01*
X253323Y263473D01*
X253393Y263413D01*
X253423Y263401D01*
X253449Y263382D01*
X253536Y263355D01*
X253621Y263321D01*
X253662Y263317D01*
X253684Y263310D01*
X253716Y263311D01*
X253788Y263303D01*
X271520Y263303D01*
X271577Y263312D01*
X271635Y263312D01*
X271698Y263332D01*
X271762Y263342D01*
X271814Y263370D01*
X271869Y263388D01*
X271952Y263443D01*
X271980Y263458D01*
X271987Y263465D01*
X271992Y263468D01*
X271996Y263472D01*
X272009Y263481D01*
X278228Y268699D01*
X281047Y268453D01*
X286240Y262263D01*
X285994Y259444D01*
X285331Y258888D01*
X285259Y258805D01*
X285185Y258724D01*
X285179Y258712D01*
X285170Y258701D01*
X285129Y258600D01*
X285084Y258500D01*
X285083Y258486D01*
X285078Y258474D01*
X285071Y258364D01*
X285060Y258255D01*
X285064Y258242D01*
X285063Y258228D01*
X285091Y258122D01*
X285116Y258015D01*
X285124Y258001D01*
X285127Y257991D01*
X285142Y257967D01*
X285196Y257868D01*
X291969Y248196D01*
X292045Y248118D01*
X292119Y248037D01*
X292131Y248030D01*
X292141Y248020D01*
X292238Y247970D01*
X292334Y247917D01*
X292347Y247914D01*
X292360Y247908D01*
X292468Y247892D01*
X292576Y247872D01*
X292589Y247874D01*
X292603Y247872D01*
X292711Y247891D01*
X292819Y247906D01*
X292835Y247913D01*
X292845Y247915D01*
X292870Y247928D01*
X292973Y247974D01*
X293722Y248406D01*
X296456Y247674D01*
X300496Y240677D01*
X299763Y237943D01*
X292229Y233594D01*
X289496Y234326D01*
G37*
%LPD*%
%LPC*%
G36*
X286188Y95943D02*
X286188Y95943D01*
X285456Y98677D01*
X286325Y100182D01*
X286341Y100223D01*
X286364Y100260D01*
X286384Y100337D01*
X286412Y100412D01*
X286414Y100456D01*
X286424Y100498D01*
X286418Y100578D01*
X286421Y100658D01*
X286409Y100700D01*
X286405Y100744D01*
X286374Y100817D01*
X286351Y100894D01*
X286326Y100930D01*
X286309Y100970D01*
X286218Y101084D01*
X286210Y101095D01*
X286207Y101097D01*
X286204Y101101D01*
X280831Y106474D01*
X280757Y106527D01*
X280687Y106587D01*
X280657Y106599D01*
X280631Y106618D01*
X280544Y106645D01*
X280459Y106679D01*
X280418Y106683D01*
X280396Y106690D01*
X280364Y106689D01*
X280292Y106697D01*
X273788Y106697D01*
X273698Y106683D01*
X273607Y106675D01*
X273577Y106663D01*
X273545Y106658D01*
X273464Y106615D01*
X273380Y106579D01*
X273348Y106553D01*
X273328Y106542D01*
X273305Y106519D01*
X273249Y106474D01*
X271984Y105209D01*
X268016Y105209D01*
X265209Y108016D01*
X265209Y111984D01*
X268016Y114791D01*
X271984Y114791D01*
X273249Y113526D01*
X273323Y113473D01*
X273393Y113413D01*
X273423Y113401D01*
X273449Y113382D01*
X273536Y113355D01*
X273621Y113321D01*
X273662Y113317D01*
X273684Y113310D01*
X273716Y113311D01*
X273788Y113303D01*
X283344Y113303D01*
X290350Y106297D01*
X290405Y106257D01*
X290453Y106210D01*
X290504Y106186D01*
X290549Y106153D01*
X290614Y106133D01*
X290675Y106104D01*
X290731Y106097D01*
X290785Y106081D01*
X290852Y106083D01*
X290919Y106074D01*
X290998Y106086D01*
X291030Y106087D01*
X291050Y106094D01*
X291085Y106100D01*
X292522Y106485D01*
X292523Y106485D01*
X292524Y106485D01*
X292632Y106534D01*
X292746Y106586D01*
X292747Y106587D01*
X292748Y106587D01*
X292835Y106668D01*
X292926Y106753D01*
X292927Y106754D01*
X292927Y106755D01*
X293015Y106898D01*
X297411Y116326D01*
X297411Y116327D01*
X297412Y116328D01*
X297442Y116438D01*
X297478Y116563D01*
X297477Y116564D01*
X297478Y116565D01*
X297472Y116681D01*
X297465Y116809D01*
X297465Y116810D01*
X297465Y116811D01*
X297411Y116970D01*
X296087Y119809D01*
X298850Y127401D01*
X301415Y128597D01*
X309590Y125622D01*
X310786Y123057D01*
X308022Y115465D01*
X305458Y114269D01*
X304645Y114565D01*
X304537Y114585D01*
X304430Y114610D01*
X304416Y114608D01*
X304403Y114611D01*
X304294Y114596D01*
X304185Y114584D01*
X304173Y114579D01*
X304159Y114577D01*
X304061Y114528D01*
X303961Y114483D01*
X303951Y114473D01*
X303939Y114467D01*
X303862Y114389D01*
X303782Y114315D01*
X303773Y114301D01*
X303766Y114293D01*
X303753Y114268D01*
X303694Y114171D01*
X298704Y103470D01*
X298675Y103365D01*
X298641Y103260D01*
X298642Y103246D01*
X298638Y103233D01*
X298643Y103124D01*
X298645Y103014D01*
X298650Y103001D01*
X298650Y102988D01*
X298690Y102886D01*
X298727Y102782D01*
X298735Y102772D01*
X298740Y102759D01*
X298811Y102675D01*
X298879Y102589D01*
X298892Y102579D01*
X298899Y102571D01*
X298923Y102556D01*
X299014Y102489D01*
X299763Y102056D01*
X300496Y99323D01*
X296456Y92326D01*
X293722Y91594D01*
X286188Y95943D01*
G37*
%LPD*%
%LPC*%
G36*
X304290Y189577D02*
X304290Y189577D01*
X302887Y197534D01*
X304684Y200100D01*
X304684Y200101D01*
X304685Y200101D01*
X304738Y200213D01*
X304790Y200321D01*
X304791Y200322D01*
X304791Y200323D01*
X304806Y200445D01*
X304821Y200565D01*
X304821Y200566D01*
X304821Y200568D01*
X304795Y200733D01*
X302103Y210782D01*
X302103Y210783D01*
X302103Y210784D01*
X302054Y210891D01*
X302002Y211006D01*
X302001Y211007D01*
X302001Y211008D01*
X301917Y211097D01*
X301835Y211186D01*
X301834Y211187D01*
X301833Y211187D01*
X301690Y211275D01*
X298850Y212599D01*
X297541Y216196D01*
X297536Y216206D01*
X297534Y216216D01*
X297476Y216313D01*
X297421Y216411D01*
X297413Y216418D01*
X297407Y216427D01*
X297322Y216500D01*
X297238Y216576D01*
X297228Y216580D01*
X297220Y216587D01*
X297116Y216629D01*
X297013Y216674D01*
X297002Y216675D01*
X296992Y216679D01*
X296826Y216697D01*
X283788Y216697D01*
X283698Y216683D01*
X283607Y216675D01*
X283577Y216663D01*
X283545Y216658D01*
X283464Y216615D01*
X283380Y216579D01*
X283348Y216553D01*
X283328Y216542D01*
X283305Y216519D01*
X283249Y216474D01*
X281984Y215209D01*
X278016Y215209D01*
X275209Y218016D01*
X275209Y221984D01*
X278016Y224791D01*
X281984Y224791D01*
X283249Y223526D01*
X283323Y223473D01*
X283393Y223413D01*
X283423Y223401D01*
X283449Y223382D01*
X283536Y223355D01*
X283621Y223321D01*
X283662Y223317D01*
X283684Y223310D01*
X283716Y223311D01*
X283788Y223303D01*
X298652Y223303D01*
X298701Y223311D01*
X298750Y223309D01*
X298871Y223339D01*
X298895Y223342D01*
X298901Y223346D01*
X298913Y223349D01*
X305458Y225731D01*
X308022Y224535D01*
X310786Y216943D01*
X309590Y214378D01*
X308777Y214082D01*
X308681Y214028D01*
X308584Y213978D01*
X308574Y213968D01*
X308562Y213962D01*
X308488Y213880D01*
X308412Y213802D01*
X308406Y213789D01*
X308397Y213779D01*
X308353Y213678D01*
X308306Y213580D01*
X308305Y213566D01*
X308299Y213554D01*
X308290Y213444D01*
X308276Y213336D01*
X308279Y213319D01*
X308278Y213309D01*
X308285Y213281D01*
X308302Y213170D01*
X311358Y201764D01*
X311403Y201665D01*
X311444Y201563D01*
X311453Y201553D01*
X311459Y201540D01*
X311533Y201460D01*
X311605Y201377D01*
X311617Y201370D01*
X311626Y201360D01*
X311723Y201308D01*
X311817Y201252D01*
X311830Y201249D01*
X311842Y201243D01*
X311951Y201224D01*
X312058Y201201D01*
X312074Y201202D01*
X312085Y201200D01*
X312113Y201205D01*
X312225Y201212D01*
X313077Y201362D01*
X315395Y199739D01*
X316798Y191782D01*
X315175Y189464D01*
X306608Y187954D01*
X304290Y189577D01*
G37*
%LPD*%
%LPC*%
G36*
X259444Y54006D02*
X259444Y54006D01*
X253852Y60671D01*
X254087Y63355D01*
X254087Y63356D01*
X254087Y63357D01*
X254078Y63474D01*
X254069Y63600D01*
X254068Y63601D01*
X254068Y63602D01*
X254024Y63705D01*
X253973Y63827D01*
X253972Y63827D01*
X253972Y63828D01*
X253867Y63959D01*
X252839Y64987D01*
X252818Y65002D01*
X252801Y65023D01*
X252738Y65062D01*
X252695Y65099D01*
X252670Y65109D01*
X252639Y65131D01*
X252614Y65138D01*
X252592Y65152D01*
X252520Y65169D01*
X252466Y65191D01*
X252432Y65195D01*
X252404Y65203D01*
X252378Y65203D01*
X252353Y65208D01*
X252328Y65206D01*
X252300Y65209D01*
X248016Y65209D01*
X245209Y68016D01*
X245209Y71984D01*
X248016Y74791D01*
X251984Y74791D01*
X253249Y73526D01*
X253323Y73473D01*
X253393Y73413D01*
X253423Y73401D01*
X253449Y73382D01*
X253536Y73355D01*
X253621Y73321D01*
X253662Y73317D01*
X253684Y73310D01*
X253716Y73311D01*
X253788Y73303D01*
X253865Y73303D01*
X258814Y68353D01*
X258903Y68290D01*
X258990Y68222D01*
X259003Y68218D01*
X259014Y68210D01*
X259119Y68178D01*
X259223Y68142D01*
X259236Y68142D01*
X259249Y68138D01*
X259359Y68140D01*
X259468Y68139D01*
X259481Y68144D01*
X259495Y68144D01*
X259598Y68182D01*
X259702Y68216D01*
X259716Y68225D01*
X259726Y68228D01*
X259748Y68246D01*
X259842Y68309D01*
X260288Y68683D01*
X263409Y68410D01*
X263410Y68410D01*
X263411Y68410D01*
X263529Y68419D01*
X263654Y68428D01*
X263655Y68429D01*
X263656Y68429D01*
X263758Y68472D01*
X263881Y68524D01*
X263882Y68525D01*
X263883Y68525D01*
X263960Y68587D01*
X263961Y68588D01*
X263963Y68590D01*
X264014Y68630D01*
X271370Y75986D01*
X271371Y75987D01*
X271371Y75988D01*
X271445Y76090D01*
X271513Y76186D01*
X271514Y76187D01*
X271514Y76188D01*
X271548Y76300D01*
X271586Y76421D01*
X271586Y76422D01*
X271586Y76423D01*
X271590Y76591D01*
X271317Y79712D01*
X276510Y85901D01*
X279329Y86148D01*
X285994Y80556D01*
X286240Y77737D01*
X281047Y71547D01*
X278228Y71301D01*
X277565Y71857D01*
X277471Y71913D01*
X277378Y71972D01*
X277365Y71976D01*
X277353Y71983D01*
X277246Y72006D01*
X277140Y72032D01*
X277126Y72031D01*
X277113Y72034D01*
X277003Y72022D01*
X276895Y72013D01*
X276882Y72008D01*
X276869Y72006D01*
X276769Y71960D01*
X276668Y71917D01*
X276655Y71907D01*
X276646Y71902D01*
X276625Y71882D01*
X276537Y71812D01*
X268188Y63463D01*
X268124Y63374D01*
X268057Y63287D01*
X268052Y63274D01*
X268044Y63263D01*
X268012Y63158D01*
X267976Y63054D01*
X267976Y63041D01*
X267972Y63028D01*
X267975Y62918D01*
X267974Y62809D01*
X267978Y62796D01*
X267978Y62782D01*
X268016Y62679D01*
X268050Y62575D01*
X268059Y62561D01*
X268063Y62551D01*
X268081Y62528D01*
X268143Y62435D01*
X268699Y61772D01*
X268453Y58953D01*
X262263Y53760D01*
X259444Y54006D01*
G37*
%LPD*%
%LPC*%
G36*
X165960Y21649D02*
X165960Y21649D01*
X163959Y23650D01*
X163959Y32350D01*
X165960Y34351D01*
X174040Y34351D01*
X176255Y32136D01*
X176256Y32135D01*
X176256Y32134D01*
X176359Y32061D01*
X176455Y31992D01*
X176456Y31992D01*
X176457Y31991D01*
X176576Y31955D01*
X176690Y31920D01*
X176691Y31920D01*
X176692Y31919D01*
X176860Y31916D01*
X187222Y32822D01*
X187224Y32823D01*
X187225Y32822D01*
X187340Y32852D01*
X187461Y32883D01*
X187462Y32884D01*
X187463Y32884D01*
X187562Y32949D01*
X187667Y33017D01*
X187668Y33017D01*
X187669Y33018D01*
X187780Y33144D01*
X189577Y35710D01*
X191116Y35982D01*
X191140Y35990D01*
X191165Y35992D01*
X191255Y36030D01*
X191348Y36063D01*
X191368Y36078D01*
X191391Y36088D01*
X191522Y36193D01*
X194986Y39657D01*
X195039Y39731D01*
X195099Y39800D01*
X195111Y39831D01*
X195130Y39857D01*
X195157Y39944D01*
X195191Y40029D01*
X195195Y40070D01*
X195202Y40092D01*
X195201Y40124D01*
X195209Y40195D01*
X195209Y41984D01*
X198016Y44791D01*
X201984Y44791D01*
X204791Y41984D01*
X204791Y38016D01*
X201984Y35209D01*
X200808Y35209D01*
X200723Y35195D01*
X200637Y35190D01*
X200602Y35176D01*
X200565Y35170D01*
X200489Y35129D01*
X200410Y35097D01*
X200381Y35072D01*
X200348Y35054D01*
X200289Y34992D01*
X200224Y34936D01*
X200205Y34903D01*
X200179Y34876D01*
X200142Y34798D01*
X200099Y34724D01*
X200091Y34687D01*
X200075Y34653D01*
X200066Y34567D01*
X200048Y34483D01*
X200051Y34435D01*
X200048Y34409D01*
X200054Y34379D01*
X200058Y34316D01*
X201362Y26923D01*
X199739Y24605D01*
X191782Y23202D01*
X189464Y24825D01*
X189314Y25677D01*
X189278Y25780D01*
X189245Y25885D01*
X189237Y25896D01*
X189233Y25909D01*
X189165Y25995D01*
X189101Y26085D01*
X189090Y26092D01*
X189082Y26103D01*
X188990Y26164D01*
X188901Y26228D01*
X188888Y26232D01*
X188877Y26239D01*
X188770Y26267D01*
X188666Y26299D01*
X188649Y26300D01*
X188639Y26302D01*
X188610Y26301D01*
X188498Y26303D01*
X176736Y25274D01*
X176629Y25247D01*
X176522Y25224D01*
X176510Y25217D01*
X176497Y25213D01*
X176405Y25154D01*
X176311Y25097D01*
X176302Y25087D01*
X176291Y25080D01*
X176223Y24994D01*
X176151Y24911D01*
X176146Y24898D01*
X176138Y24887D01*
X176100Y24784D01*
X176059Y24682D01*
X176057Y24666D01*
X176054Y24656D01*
X176053Y24627D01*
X176041Y24516D01*
X176041Y23650D01*
X174040Y21649D01*
X165960Y21649D01*
G37*
%LPD*%
%LPC*%
G36*
X140261Y24605D02*
X140261Y24605D01*
X138638Y26923D01*
X138788Y27775D01*
X138790Y27885D01*
X138795Y27994D01*
X138791Y28007D01*
X138791Y28021D01*
X138758Y28125D01*
X138728Y28231D01*
X138720Y28242D01*
X138716Y28255D01*
X138651Y28343D01*
X138588Y28434D01*
X138577Y28442D01*
X138569Y28453D01*
X138480Y28515D01*
X138392Y28581D01*
X138376Y28587D01*
X138368Y28593D01*
X138340Y28601D01*
X138236Y28642D01*
X126830Y31698D01*
X126721Y31709D01*
X126612Y31724D01*
X126599Y31721D01*
X126585Y31723D01*
X126478Y31698D01*
X126371Y31678D01*
X126359Y31671D01*
X126346Y31668D01*
X126252Y31610D01*
X126157Y31557D01*
X126148Y31546D01*
X126136Y31539D01*
X126065Y31455D01*
X125992Y31374D01*
X125985Y31359D01*
X125978Y31351D01*
X125968Y31324D01*
X125918Y31223D01*
X125622Y30410D01*
X123057Y29214D01*
X115465Y31978D01*
X114269Y34542D01*
X117244Y42717D01*
X119809Y43913D01*
X127401Y41150D01*
X128725Y38310D01*
X128726Y38310D01*
X128726Y38308D01*
X128794Y38209D01*
X128864Y38107D01*
X128865Y38107D01*
X128865Y38106D01*
X128962Y38033D01*
X129060Y37959D01*
X129061Y37958D01*
X129062Y37958D01*
X129218Y37897D01*
X139267Y35205D01*
X139268Y35204D01*
X139269Y35204D01*
X139395Y35192D01*
X139511Y35180D01*
X139512Y35180D01*
X139513Y35180D01*
X139632Y35208D01*
X139751Y35235D01*
X139752Y35236D01*
X139753Y35236D01*
X139900Y35316D01*
X142466Y37113D01*
X150423Y35710D01*
X151349Y34388D01*
X151409Y34326D01*
X151463Y34259D01*
X151495Y34239D01*
X151521Y34212D01*
X151598Y34173D01*
X151670Y34126D01*
X151707Y34117D01*
X151740Y34100D01*
X151825Y34087D01*
X151909Y34066D01*
X151946Y34069D01*
X151983Y34063D01*
X152068Y34078D01*
X152154Y34085D01*
X152188Y34100D01*
X152225Y34106D01*
X152301Y34148D01*
X152380Y34181D01*
X152418Y34212D01*
X152441Y34224D01*
X152462Y34247D01*
X152511Y34286D01*
X153016Y34791D01*
X156984Y34791D01*
X159791Y31984D01*
X159791Y28016D01*
X156984Y25209D01*
X153016Y25209D01*
X151999Y26226D01*
X151995Y26229D01*
X151992Y26233D01*
X151895Y26300D01*
X151799Y26369D01*
X151794Y26371D01*
X151790Y26374D01*
X151677Y26407D01*
X151564Y26442D01*
X151559Y26442D01*
X151554Y26443D01*
X151437Y26438D01*
X151318Y26435D01*
X151313Y26433D01*
X151308Y26433D01*
X151199Y26392D01*
X151087Y26351D01*
X151083Y26348D01*
X151078Y26346D01*
X150988Y26271D01*
X150895Y26197D01*
X150893Y26193D01*
X150888Y26189D01*
X150827Y26090D01*
X150762Y25990D01*
X150761Y25985D01*
X150758Y25981D01*
X150711Y25820D01*
X150536Y24825D01*
X148218Y23202D01*
X140261Y24605D01*
G37*
%LPD*%
%LPC*%
G36*
X214378Y30410D02*
X214378Y30410D01*
X211403Y38585D01*
X211626Y39064D01*
X211648Y39143D01*
X211679Y39219D01*
X211685Y39273D01*
X211693Y39301D01*
X211691Y39329D01*
X211697Y39386D01*
X211697Y41212D01*
X211683Y41302D01*
X211675Y41393D01*
X211663Y41423D01*
X211658Y41455D01*
X211615Y41536D01*
X211579Y41620D01*
X211553Y41652D01*
X211542Y41672D01*
X211519Y41695D01*
X211474Y41751D01*
X210209Y43016D01*
X210209Y46984D01*
X213016Y49791D01*
X216984Y49791D01*
X219791Y46984D01*
X219791Y44585D01*
X219807Y44485D01*
X219817Y44385D01*
X219827Y44364D01*
X219830Y44342D01*
X219877Y44253D01*
X219919Y44162D01*
X219935Y44145D01*
X219946Y44124D01*
X220018Y44055D01*
X220087Y43982D01*
X220111Y43967D01*
X220124Y43955D01*
X220154Y43941D01*
X220230Y43895D01*
X223030Y42589D01*
X223031Y42589D01*
X223032Y42588D01*
X223143Y42557D01*
X223267Y42522D01*
X223268Y42522D01*
X223269Y42522D01*
X223385Y42528D01*
X223513Y42535D01*
X223514Y42535D01*
X223515Y42535D01*
X223674Y42589D01*
X233102Y46985D01*
X233103Y46986D01*
X233104Y46986D01*
X233199Y47052D01*
X233305Y47124D01*
X233306Y47125D01*
X233379Y47222D01*
X233453Y47320D01*
X233454Y47321D01*
X233454Y47322D01*
X233515Y47478D01*
X234326Y50504D01*
X241323Y54544D01*
X244057Y53812D01*
X248406Y46278D01*
X247674Y43544D01*
X240677Y39504D01*
X237944Y40237D01*
X237511Y40986D01*
X237441Y41072D01*
X237375Y41158D01*
X237364Y41166D01*
X237355Y41177D01*
X237262Y41235D01*
X237171Y41296D01*
X237158Y41300D01*
X237147Y41307D01*
X237039Y41333D01*
X236934Y41362D01*
X236921Y41362D01*
X236908Y41365D01*
X236798Y41355D01*
X236689Y41349D01*
X236673Y41344D01*
X236663Y41343D01*
X236636Y41332D01*
X236530Y41296D01*
X225829Y36306D01*
X225738Y36244D01*
X225645Y36185D01*
X225637Y36175D01*
X225625Y36167D01*
X225559Y36079D01*
X225490Y35994D01*
X225485Y35982D01*
X225477Y35971D01*
X225442Y35867D01*
X225404Y35764D01*
X225403Y35750D01*
X225399Y35738D01*
X225399Y35628D01*
X225395Y35518D01*
X225399Y35502D01*
X225399Y35492D01*
X225408Y35465D01*
X225435Y35355D01*
X225731Y34542D01*
X224535Y31978D01*
X216943Y29214D01*
X214378Y30410D01*
G37*
%LPD*%
%LPC*%
G36*
X258016Y265209D02*
X258016Y265209D01*
X255209Y268016D01*
X255209Y271984D01*
X256474Y273249D01*
X256527Y273323D01*
X256587Y273393D01*
X256599Y273423D01*
X256618Y273449D01*
X256645Y273536D01*
X256679Y273621D01*
X256683Y273662D01*
X256690Y273684D01*
X256689Y273716D01*
X256697Y273788D01*
X256697Y273975D01*
X256697Y273976D01*
X256697Y273977D01*
X256694Y273994D01*
X256696Y274010D01*
X256677Y274096D01*
X256677Y274097D01*
X256658Y274218D01*
X256657Y274219D01*
X256657Y274220D01*
X256646Y274240D01*
X256644Y274250D01*
X256614Y274301D01*
X256597Y274333D01*
X256542Y274435D01*
X256542Y274436D01*
X256541Y274437D01*
X256425Y274558D01*
X254099Y276510D01*
X253826Y279631D01*
X253826Y279632D01*
X253826Y279633D01*
X253796Y279749D01*
X253765Y279870D01*
X253764Y279871D01*
X253764Y279872D01*
X253698Y279974D01*
X253631Y280076D01*
X253631Y280077D01*
X253630Y280078D01*
X253504Y280189D01*
X244983Y286155D01*
X244982Y286156D01*
X244981Y286156D01*
X244871Y286209D01*
X244761Y286262D01*
X244760Y286262D01*
X244759Y286262D01*
X244635Y286278D01*
X244517Y286292D01*
X244516Y286292D01*
X244515Y286292D01*
X244349Y286267D01*
X241323Y285456D01*
X234326Y289496D01*
X233594Y292229D01*
X237943Y299763D01*
X240677Y300496D01*
X247674Y296456D01*
X248406Y293722D01*
X247974Y292973D01*
X247935Y292870D01*
X247892Y292769D01*
X247891Y292756D01*
X247887Y292743D01*
X247883Y292633D01*
X247875Y292524D01*
X247878Y292511D01*
X247878Y292497D01*
X247909Y292392D01*
X247936Y292286D01*
X247944Y292274D01*
X247947Y292261D01*
X248011Y292171D01*
X248070Y292080D01*
X248083Y292069D01*
X248089Y292060D01*
X248112Y292043D01*
X248196Y291969D01*
X257868Y285196D01*
X257967Y285149D01*
X258064Y285098D01*
X258078Y285096D01*
X258090Y285090D01*
X258198Y285076D01*
X258307Y285059D01*
X258320Y285061D01*
X258334Y285059D01*
X258441Y285081D01*
X258550Y285099D01*
X258561Y285106D01*
X258575Y285108D01*
X258670Y285163D01*
X258767Y285215D01*
X258779Y285226D01*
X258788Y285232D01*
X258807Y285253D01*
X258888Y285331D01*
X259444Y285994D01*
X262263Y286240D01*
X268453Y281047D01*
X268699Y278228D01*
X264516Y273242D01*
X264460Y273148D01*
X264400Y273056D01*
X264397Y273042D01*
X264390Y273031D01*
X264367Y272923D01*
X264340Y272817D01*
X264341Y272804D01*
X264338Y272790D01*
X264351Y272681D01*
X264359Y272572D01*
X264365Y272559D01*
X264366Y272546D01*
X264413Y272446D01*
X264456Y272346D01*
X264466Y272333D01*
X264471Y272323D01*
X264490Y272302D01*
X264561Y272215D01*
X264791Y271984D01*
X264791Y268016D01*
X261984Y265209D01*
X258016Y265209D01*
G37*
%LPD*%
%LPC*%
G36*
X133388Y182699D02*
X133388Y182699D01*
X131899Y184188D01*
X131899Y193912D01*
X133388Y195401D01*
X150732Y195401D01*
X152221Y193912D01*
X152221Y193114D01*
X152224Y193094D01*
X152222Y193075D01*
X152244Y192973D01*
X152260Y192871D01*
X152270Y192854D01*
X152274Y192834D01*
X152327Y192745D01*
X152376Y192654D01*
X152390Y192640D01*
X152400Y192623D01*
X152479Y192556D01*
X152554Y192484D01*
X152572Y192476D01*
X152587Y192463D01*
X152683Y192424D01*
X152777Y192381D01*
X152797Y192379D01*
X152815Y192371D01*
X152982Y192353D01*
X155262Y192353D01*
X155352Y192367D01*
X155443Y192375D01*
X155473Y192387D01*
X155505Y192392D01*
X155586Y192435D01*
X155670Y192471D01*
X155702Y192497D01*
X155722Y192508D01*
X155745Y192531D01*
X155801Y192576D01*
X158016Y194791D01*
X161984Y194791D01*
X164791Y191984D01*
X164791Y188016D01*
X161984Y185209D01*
X158016Y185209D01*
X157701Y185524D01*
X157627Y185577D01*
X157557Y185637D01*
X157527Y185649D01*
X157501Y185668D01*
X157414Y185695D01*
X157329Y185729D01*
X157288Y185733D01*
X157266Y185740D01*
X157234Y185739D01*
X157162Y185747D01*
X152982Y185747D01*
X152962Y185744D01*
X152943Y185746D01*
X152841Y185724D01*
X152739Y185708D01*
X152722Y185698D01*
X152702Y185694D01*
X152613Y185641D01*
X152522Y185592D01*
X152508Y185578D01*
X152491Y185568D01*
X152424Y185489D01*
X152352Y185414D01*
X152344Y185396D01*
X152331Y185381D01*
X152292Y185285D01*
X152249Y185191D01*
X152247Y185171D01*
X152239Y185153D01*
X152221Y184986D01*
X152221Y184188D01*
X150732Y182699D01*
X133388Y182699D01*
G37*
%LPD*%
%LPC*%
G36*
X189268Y144599D02*
X189268Y144599D01*
X188590Y145277D01*
X188532Y145318D01*
X188480Y145368D01*
X188433Y145390D01*
X188391Y145420D01*
X188322Y145441D01*
X188257Y145471D01*
X188205Y145477D01*
X188155Y145493D01*
X188084Y145491D01*
X188013Y145499D01*
X187962Y145487D01*
X187910Y145486D01*
X187842Y145462D01*
X187772Y145446D01*
X187727Y145420D01*
X187679Y145402D01*
X187623Y145357D01*
X187593Y145339D01*
X187622Y145384D01*
X187669Y145439D01*
X187688Y145487D01*
X187716Y145531D01*
X187734Y145600D01*
X187761Y145667D01*
X187769Y145738D01*
X187777Y145769D01*
X187775Y145793D01*
X187779Y145834D01*
X187779Y155812D01*
X189268Y157301D01*
X206612Y157301D01*
X208101Y155812D01*
X208101Y146088D01*
X206612Y144599D01*
X189268Y144599D01*
G37*
%LPD*%
%LPC*%
G36*
X189268Y182699D02*
X189268Y182699D01*
X187779Y184188D01*
X187779Y193912D01*
X189268Y195401D01*
X206612Y195401D01*
X208101Y193912D01*
X208101Y184188D01*
X206612Y182699D01*
X189268Y182699D01*
G37*
%LPD*%
G36*
X170020Y215242D02*
X170020Y215242D01*
X170039Y215240D01*
X170040Y215240D01*
X170141Y215262D01*
X170243Y215279D01*
X170260Y215288D01*
X170280Y215292D01*
X170369Y215346D01*
X170460Y215394D01*
X170474Y215408D01*
X170491Y215419D01*
X170558Y215497D01*
X170630Y215572D01*
X170638Y215590D01*
X170651Y215605D01*
X170690Y215702D01*
X170733Y215795D01*
X170735Y215815D01*
X170743Y215834D01*
X170761Y216000D01*
X170761Y221791D01*
X171834Y221791D01*
X171893Y221775D01*
X171961Y221768D01*
X172026Y221752D01*
X172082Y221756D01*
X172138Y221750D01*
X172204Y221766D01*
X172272Y221771D01*
X172318Y221791D01*
X176701Y221791D01*
X176771Y221802D01*
X176843Y221804D01*
X176892Y221822D01*
X176943Y221830D01*
X177007Y221864D01*
X177074Y221889D01*
X177115Y221921D01*
X177161Y221946D01*
X177210Y221998D01*
X177266Y222042D01*
X177294Y222086D01*
X177330Y222124D01*
X177360Y222189D01*
X177399Y222249D01*
X177412Y222300D01*
X177434Y222347D01*
X177442Y222418D01*
X177459Y222488D01*
X177455Y222540D01*
X177461Y222591D01*
X177446Y222662D01*
X177440Y222733D01*
X177420Y222781D01*
X177409Y222832D01*
X177372Y222893D01*
X177344Y222959D01*
X177299Y223015D01*
X177282Y223043D01*
X177265Y223058D01*
X177239Y223090D01*
X176697Y223632D01*
X176697Y226698D01*
X176694Y226718D01*
X176696Y226737D01*
X176674Y226839D01*
X176658Y226941D01*
X176648Y226958D01*
X176644Y226978D01*
X176591Y227067D01*
X176542Y227158D01*
X176528Y227172D01*
X176518Y227189D01*
X176439Y227256D01*
X176364Y227328D01*
X176346Y227336D01*
X176331Y227349D01*
X176235Y227388D01*
X176141Y227431D01*
X176121Y227433D01*
X176103Y227441D01*
X175936Y227459D01*
X164064Y227459D01*
X164044Y227456D01*
X164025Y227458D01*
X163923Y227436D01*
X163821Y227420D01*
X163804Y227410D01*
X163784Y227406D01*
X163695Y227353D01*
X163604Y227304D01*
X163590Y227290D01*
X163573Y227280D01*
X163506Y227201D01*
X163434Y227126D01*
X163426Y227108D01*
X163413Y227093D01*
X163374Y226997D01*
X163331Y226903D01*
X163329Y226883D01*
X163321Y226865D01*
X163303Y226698D01*
X163303Y223632D01*
X162761Y223090D01*
X162719Y223032D01*
X162670Y222980D01*
X162648Y222933D01*
X162617Y222891D01*
X162596Y222822D01*
X162566Y222757D01*
X162560Y222705D01*
X162545Y222655D01*
X162547Y222584D01*
X162539Y222513D01*
X162550Y222462D01*
X162551Y222410D01*
X162576Y222342D01*
X162591Y222272D01*
X162618Y222227D01*
X162636Y222179D01*
X162681Y222123D01*
X162718Y222061D01*
X162757Y222027D01*
X162790Y221987D01*
X162850Y221948D01*
X162904Y221901D01*
X162953Y221882D01*
X162997Y221854D01*
X163066Y221836D01*
X163133Y221809D01*
X163204Y221801D01*
X163235Y221793D01*
X163258Y221795D01*
X163299Y221791D01*
X167673Y221791D01*
X167696Y221779D01*
X167752Y221773D01*
X167806Y221756D01*
X167873Y221758D01*
X167941Y221750D01*
X168019Y221762D01*
X168052Y221762D01*
X168071Y221770D01*
X168106Y221775D01*
X168165Y221791D01*
X169239Y221791D01*
X169239Y216000D01*
X169242Y215981D01*
X169240Y215961D01*
X169262Y215860D01*
X169278Y215758D01*
X169288Y215740D01*
X169292Y215721D01*
X169345Y215631D01*
X169393Y215540D01*
X169408Y215527D01*
X169418Y215509D01*
X169497Y215442D01*
X169572Y215371D01*
X169590Y215362D01*
X169605Y215349D01*
X169701Y215311D01*
X169795Y215267D01*
X169815Y215265D01*
X169833Y215258D01*
X170000Y215239D01*
X170020Y215242D01*
G37*
%LPC*%
G36*
X167523Y81459D02*
X167523Y81459D01*
X167523Y88477D01*
X178541Y88477D01*
X178541Y83666D01*
X178368Y83019D01*
X178033Y82440D01*
X177560Y81967D01*
X176981Y81632D01*
X176334Y81459D01*
X167523Y81459D01*
G37*
%LPD*%
%LPC*%
G36*
X155666Y81459D02*
X155666Y81459D01*
X155019Y81632D01*
X154440Y81967D01*
X153967Y82440D01*
X153632Y83019D01*
X153459Y83666D01*
X153459Y88477D01*
X164477Y88477D01*
X164477Y81459D01*
X155666Y81459D01*
G37*
%LPD*%
%LPC*%
G36*
X143583Y152473D02*
X143583Y152473D01*
X143583Y157301D01*
X150014Y157301D01*
X150661Y157128D01*
X151240Y156793D01*
X151713Y156320D01*
X152048Y155741D01*
X152221Y155094D01*
X152221Y152473D01*
X143583Y152473D01*
G37*
%LPD*%
%LPC*%
G36*
X131899Y152473D02*
X131899Y152473D01*
X131899Y155094D01*
X132072Y155741D01*
X132407Y156320D01*
X132880Y156793D01*
X133459Y157128D01*
X134106Y157301D01*
X140537Y157301D01*
X140537Y152473D01*
X131899Y152473D01*
G37*
%LPD*%
%LPC*%
G36*
X134106Y144599D02*
X134106Y144599D01*
X133459Y144772D01*
X132880Y145107D01*
X132407Y145580D01*
X132072Y146159D01*
X131899Y146806D01*
X131899Y149427D01*
X140537Y149427D01*
X140537Y144599D01*
X134106Y144599D01*
G37*
%LPD*%
G36*
X198018Y119794D02*
X198018Y119794D01*
X198037Y119792D01*
X198139Y119814D01*
X198241Y119830D01*
X198258Y119840D01*
X198278Y119844D01*
X198367Y119897D01*
X198458Y119946D01*
X198472Y119960D01*
X198489Y119970D01*
X198556Y120049D01*
X198628Y120124D01*
X198636Y120142D01*
X198649Y120157D01*
X198688Y120253D01*
X198731Y120347D01*
X198733Y120367D01*
X198741Y120385D01*
X198759Y120552D01*
X198759Y121677D01*
X199417Y122335D01*
X199429Y122352D01*
X199444Y122364D01*
X199500Y122451D01*
X199561Y122535D01*
X199567Y122554D01*
X199577Y122571D01*
X199603Y122671D01*
X199633Y122770D01*
X199633Y122790D01*
X199638Y122809D01*
X199629Y122912D01*
X199627Y123016D01*
X199620Y123035D01*
X199618Y123055D01*
X199578Y123150D01*
X199542Y123247D01*
X199530Y123263D01*
X199522Y123281D01*
X199417Y123412D01*
X198855Y123974D01*
X198781Y124028D01*
X198712Y124087D01*
X198681Y124099D01*
X198655Y124118D01*
X198568Y124145D01*
X198483Y124179D01*
X198442Y124183D01*
X198420Y124190D01*
X198388Y124189D01*
X198317Y124197D01*
X196948Y124197D01*
X196928Y124194D01*
X196909Y124196D01*
X196807Y124174D01*
X196705Y124158D01*
X196688Y124148D01*
X196668Y124144D01*
X196579Y124091D01*
X196488Y124042D01*
X196474Y124028D01*
X196457Y124018D01*
X196390Y123939D01*
X196318Y123864D01*
X196310Y123846D01*
X196297Y123831D01*
X196258Y123735D01*
X196215Y123641D01*
X196213Y123621D01*
X196205Y123603D01*
X196187Y123436D01*
X196187Y123261D01*
X189782Y123261D01*
X184064Y123261D01*
X184044Y123258D01*
X184025Y123260D01*
X183923Y123238D01*
X183821Y123222D01*
X183804Y123212D01*
X183784Y123208D01*
X183695Y123155D01*
X183604Y123107D01*
X183590Y123092D01*
X183573Y123082D01*
X183506Y123003D01*
X183434Y122928D01*
X183426Y122910D01*
X183413Y122895D01*
X183374Y122799D01*
X183331Y122705D01*
X183329Y122685D01*
X183321Y122667D01*
X183303Y122500D01*
X183306Y122480D01*
X183304Y122461D01*
X183304Y122460D01*
X183326Y122359D01*
X183342Y122257D01*
X183352Y122240D01*
X183356Y122220D01*
X183409Y122131D01*
X183458Y122040D01*
X183472Y122026D01*
X183482Y122009D01*
X183561Y121942D01*
X183636Y121870D01*
X183654Y121862D01*
X183669Y121849D01*
X183765Y121810D01*
X183859Y121767D01*
X183879Y121765D01*
X183897Y121757D01*
X184064Y121739D01*
X189782Y121739D01*
X196187Y121739D01*
X196187Y121299D01*
X196201Y121209D01*
X196209Y121118D01*
X196221Y121089D01*
X196226Y121057D01*
X196269Y120976D01*
X196305Y120892D01*
X196331Y120860D01*
X196342Y120839D01*
X196365Y120817D01*
X196410Y120761D01*
X197157Y120014D01*
X197231Y119961D01*
X197300Y119901D01*
X197331Y119889D01*
X197357Y119870D01*
X197444Y119843D01*
X197529Y119809D01*
X197570Y119805D01*
X197592Y119798D01*
X197624Y119799D01*
X197695Y119791D01*
X197998Y119791D01*
X198018Y119794D01*
G37*
%LPC*%
G36*
X126834Y106523D02*
X126834Y106523D01*
X126834Y109034D01*
X127007Y109681D01*
X127342Y110260D01*
X127815Y110733D01*
X128394Y111068D01*
X129041Y111241D01*
X132477Y111241D01*
X132477Y106523D01*
X126834Y106523D01*
G37*
%LPD*%
%LPC*%
G36*
X159041Y198759D02*
X159041Y198759D01*
X158394Y198932D01*
X157815Y199267D01*
X157342Y199740D01*
X157007Y200319D01*
X156834Y200966D01*
X156834Y203477D01*
X162477Y203477D01*
X162477Y198759D01*
X159041Y198759D01*
G37*
%LPD*%
%LPC*%
G36*
X129041Y98759D02*
X129041Y98759D01*
X128394Y98932D01*
X127815Y99267D01*
X127342Y99740D01*
X127007Y100319D01*
X126834Y100966D01*
X126834Y103477D01*
X132477Y103477D01*
X132477Y98759D01*
X129041Y98759D01*
G37*
%LPD*%
G36*
X189801Y111742D02*
X189801Y111742D01*
X189821Y111740D01*
X189922Y111762D01*
X190024Y111778D01*
X190042Y111788D01*
X190061Y111792D01*
X190151Y111845D01*
X190242Y111893D01*
X190255Y111908D01*
X190273Y111918D01*
X190340Y111997D01*
X190411Y112072D01*
X190420Y112090D01*
X190433Y112105D01*
X190471Y112201D01*
X190515Y112295D01*
X190517Y112315D01*
X190524Y112333D01*
X190543Y112500D01*
X190540Y112520D01*
X190542Y112539D01*
X190542Y112540D01*
X190520Y112641D01*
X190503Y112743D01*
X190494Y112760D01*
X190490Y112780D01*
X190436Y112869D01*
X190388Y112960D01*
X190374Y112974D01*
X190363Y112991D01*
X190285Y113058D01*
X190210Y113130D01*
X190192Y113138D01*
X190177Y113151D01*
X190080Y113190D01*
X189987Y113233D01*
X189967Y113235D01*
X189948Y113243D01*
X189782Y113261D01*
X184064Y113261D01*
X184044Y113258D01*
X184025Y113260D01*
X183923Y113238D01*
X183821Y113222D01*
X183804Y113212D01*
X183784Y113208D01*
X183695Y113155D01*
X183604Y113107D01*
X183590Y113092D01*
X183573Y113082D01*
X183506Y113003D01*
X183434Y112928D01*
X183426Y112910D01*
X183413Y112895D01*
X183374Y112799D01*
X183331Y112705D01*
X183329Y112685D01*
X183321Y112667D01*
X183303Y112500D01*
X183306Y112480D01*
X183304Y112461D01*
X183304Y112460D01*
X183326Y112359D01*
X183342Y112257D01*
X183352Y112240D01*
X183356Y112220D01*
X183409Y112131D01*
X183458Y112040D01*
X183472Y112026D01*
X183482Y112009D01*
X183561Y111942D01*
X183636Y111870D01*
X183654Y111862D01*
X183669Y111849D01*
X183765Y111810D01*
X183859Y111767D01*
X183879Y111765D01*
X183897Y111757D01*
X184064Y111739D01*
X189782Y111739D01*
X189801Y111742D01*
G37*
%LPC*%
G36*
X142059Y150949D02*
X142059Y150949D01*
X142059Y150951D01*
X142061Y150951D01*
X142061Y150949D01*
X142059Y150949D01*
G37*
%LPD*%
D10*
X146000Y105000D03*
X134000Y105000D03*
D11*
X145000Y120000D03*
X135000Y120000D03*
D12*
X170000Y235000D03*
D13*
X180000Y254000D03*
D14*
X189000Y245000D03*
X189000Y240000D03*
X189000Y235000D03*
X189000Y230000D03*
X189000Y225000D03*
D13*
X180000Y216000D03*
X175000Y216000D03*
X170000Y216000D03*
X165000Y216000D03*
X160000Y216000D03*
D14*
X151000Y225000D03*
X151000Y230000D03*
X151000Y235000D03*
X151000Y240000D03*
X151000Y245000D03*
D13*
X175000Y254000D03*
X170000Y254000D03*
X165000Y254000D03*
X160000Y254000D03*
D15*
X307409Y191564D02*
X313189Y192583D01*
X307409Y191564D02*
X306497Y196733D01*
X312277Y197752D01*
X313189Y192583D01*
X313076Y193226D02*
X307116Y193226D01*
X306823Y194888D02*
X312782Y194888D01*
X312489Y196550D02*
X306529Y196550D01*
X323165Y194342D02*
X328945Y195361D01*
X323165Y194342D02*
X322253Y199511D01*
X328033Y200530D01*
X328945Y195361D01*
X328832Y196004D02*
X322872Y196004D01*
X322579Y197666D02*
X328538Y197666D01*
X328245Y199328D02*
X322285Y199328D01*
D16*
X160218Y127500D03*
X160218Y122500D03*
X160218Y117500D03*
X160218Y112500D03*
D17*
X167500Y105218D03*
X172500Y105218D03*
X177500Y105218D03*
X182500Y105218D03*
D16*
X189782Y112500D03*
X189782Y117500D03*
X189782Y122500D03*
X189782Y127500D03*
D17*
X182500Y134782D03*
X177500Y134782D03*
X172500Y134782D03*
X167500Y134782D03*
D18*
X194000Y90000D03*
X166000Y90000D03*
D19*
X205000Y104000D03*
X205000Y116000D03*
D11*
X145000Y130000D03*
X135000Y130000D03*
X205000Y230000D03*
X215000Y230000D03*
D20*
X142060Y189050D03*
X197940Y189050D03*
X142060Y150950D03*
X197940Y150950D03*
D10*
X176000Y205000D03*
X164000Y205000D03*
D15*
X314817Y225501D02*
X320332Y227509D01*
X322127Y222577D01*
X316612Y220569D01*
X314817Y225501D01*
X316007Y222231D02*
X321177Y222231D01*
X321648Y223893D02*
X315402Y223893D01*
X314965Y225555D02*
X321043Y225555D01*
X320438Y227217D02*
X319530Y227217D01*
X305296Y222037D02*
X299781Y220029D01*
X305296Y222037D02*
X307091Y217105D01*
X301576Y215097D01*
X299781Y220029D01*
X300971Y216759D02*
X306141Y216759D01*
X306612Y218421D02*
X300366Y218421D01*
X299929Y220083D02*
X306007Y220083D01*
X305402Y221745D02*
X304494Y221745D01*
X296830Y240195D02*
X291747Y237260D01*
X289122Y241805D01*
X294205Y244740D01*
X296830Y240195D01*
X294625Y238922D02*
X290787Y238922D01*
X289827Y240584D02*
X296605Y240584D01*
X295645Y242246D02*
X289886Y242246D01*
X292764Y243908D02*
X294686Y243908D01*
X305603Y245260D02*
X310686Y248195D01*
X305603Y245260D02*
X302978Y249805D01*
X308061Y252740D01*
X310686Y248195D01*
X308481Y246922D02*
X304643Y246922D01*
X303683Y248584D02*
X310461Y248584D01*
X309501Y250246D02*
X303742Y250246D01*
X306620Y251908D02*
X308542Y251908D01*
X291596Y275457D02*
X287100Y271684D01*
X291596Y275457D02*
X294970Y271436D01*
X290474Y267663D01*
X287100Y271684D01*
X289079Y269325D02*
X292454Y269325D01*
X294435Y270987D02*
X287685Y270987D01*
X288250Y272649D02*
X293952Y272649D01*
X292558Y274311D02*
X290230Y274311D01*
X279340Y265173D02*
X274844Y261400D01*
X279340Y265173D02*
X282714Y261152D01*
X278218Y257379D01*
X274844Y261400D01*
X276823Y259041D02*
X280198Y259041D01*
X282179Y260703D02*
X275429Y260703D01*
X275994Y262365D02*
X281696Y262365D01*
X280302Y264027D02*
X277974Y264027D01*
X261400Y274844D02*
X265173Y279340D01*
X261400Y274844D02*
X257379Y278218D01*
X261152Y282714D01*
X265173Y279340D01*
X262795Y276506D02*
X259419Y276506D01*
X257439Y278168D02*
X264189Y278168D01*
X264589Y279830D02*
X258732Y279830D01*
X260127Y281492D02*
X262608Y281492D01*
X271684Y287100D02*
X275457Y291596D01*
X271684Y287100D02*
X267663Y290474D01*
X271436Y294970D01*
X275457Y291596D01*
X273079Y288762D02*
X269703Y288762D01*
X267723Y290424D02*
X274473Y290424D01*
X274873Y292086D02*
X269016Y292086D01*
X270411Y293748D02*
X272892Y293748D01*
X248195Y310686D02*
X245260Y305603D01*
X248195Y310686D02*
X252740Y308061D01*
X249805Y302978D01*
X245260Y305603D01*
X246927Y304640D02*
X250765Y304640D01*
X251724Y306302D02*
X245664Y306302D01*
X246623Y307964D02*
X252684Y307964D01*
X250030Y309626D02*
X247583Y309626D01*
X240195Y296830D02*
X237260Y291747D01*
X240195Y296830D02*
X244740Y294205D01*
X241805Y289122D01*
X237260Y291747D01*
X238927Y290784D02*
X242765Y290784D01*
X243724Y292446D02*
X237664Y292446D01*
X238623Y294108D02*
X244684Y294108D01*
X242030Y295770D02*
X239583Y295770D01*
X220029Y299781D02*
X222037Y305296D01*
X220029Y299781D02*
X215097Y301576D01*
X217105Y307091D01*
X222037Y305296D01*
X220634Y301443D02*
X215462Y301443D01*
X215654Y303105D02*
X221239Y303105D01*
X221844Y304767D02*
X216259Y304767D01*
X216864Y306429D02*
X218924Y306429D01*
X225501Y314817D02*
X227509Y320332D01*
X225501Y314817D02*
X220569Y316612D01*
X222577Y322127D01*
X227509Y320332D01*
X226106Y316479D02*
X220934Y316479D01*
X221126Y318141D02*
X226711Y318141D01*
X227316Y319803D02*
X221731Y319803D01*
X222336Y321465D02*
X224396Y321465D01*
X195361Y328945D02*
X194342Y323165D01*
X195361Y328945D02*
X200530Y328033D01*
X199511Y322253D01*
X194342Y323165D01*
X194474Y323915D02*
X199804Y323915D01*
X200097Y325577D02*
X194767Y325577D01*
X195060Y327239D02*
X200390Y327239D01*
X195610Y328901D02*
X195353Y328901D01*
X192583Y313189D02*
X191564Y307409D01*
X192583Y313189D02*
X197752Y312277D01*
X196733Y306497D01*
X191564Y307409D01*
X191696Y308159D02*
X197026Y308159D01*
X197319Y309821D02*
X191989Y309821D01*
X192282Y311483D02*
X197612Y311483D01*
X192832Y313145D02*
X192575Y313145D01*
X172625Y314935D02*
X172625Y309065D01*
X167375Y309065D01*
X167375Y314935D01*
X172625Y314935D01*
X172625Y310727D02*
X167375Y310727D01*
X167375Y312389D02*
X172625Y312389D01*
X172625Y314051D02*
X167375Y314051D01*
X172625Y325065D02*
X172625Y330935D01*
X172625Y325065D02*
X167375Y325065D01*
X167375Y330935D01*
X172625Y330935D01*
X172625Y326727D02*
X167375Y326727D01*
X167375Y328389D02*
X172625Y328389D01*
X172625Y330051D02*
X167375Y330051D01*
X139470Y328033D02*
X140489Y322253D01*
X139470Y328033D02*
X144639Y328945D01*
X145658Y323165D01*
X140489Y322253D01*
X140196Y323915D02*
X145526Y323915D01*
X145233Y325577D02*
X139903Y325577D01*
X139610Y327239D02*
X144940Y327239D01*
X144647Y328901D02*
X144390Y328901D01*
X142248Y312277D02*
X143267Y306497D01*
X142248Y312277D02*
X147417Y313189D01*
X148436Y307409D01*
X143267Y306497D01*
X142974Y308159D02*
X148304Y308159D01*
X148011Y309821D02*
X142681Y309821D01*
X142388Y311483D02*
X147718Y311483D01*
X147425Y313145D02*
X147168Y313145D01*
X122895Y307091D02*
X124903Y301576D01*
X119971Y299781D01*
X117963Y305296D01*
X122895Y307091D01*
X124538Y301443D02*
X119366Y301443D01*
X118761Y303105D02*
X124346Y303105D01*
X123741Y304767D02*
X118156Y304767D01*
X121076Y306429D02*
X123136Y306429D01*
X119431Y316612D02*
X117423Y322127D01*
X119431Y316612D02*
X114499Y314817D01*
X112491Y320332D01*
X117423Y322127D01*
X119066Y316479D02*
X113894Y316479D01*
X113289Y318141D02*
X118874Y318141D01*
X118269Y319803D02*
X112684Y319803D01*
X115604Y321465D02*
X117664Y321465D01*
X90195Y302978D02*
X87260Y308061D01*
X91805Y310686D01*
X94740Y305603D01*
X90195Y302978D01*
X89235Y304640D02*
X93073Y304640D01*
X94336Y306302D02*
X88276Y306302D01*
X87316Y307964D02*
X93377Y307964D01*
X92417Y309626D02*
X89970Y309626D01*
X95260Y294205D02*
X98195Y289122D01*
X95260Y294205D02*
X99805Y296830D01*
X102740Y291747D01*
X98195Y289122D01*
X97235Y290784D02*
X101073Y290784D01*
X102336Y292446D02*
X96276Y292446D01*
X95316Y294108D02*
X101377Y294108D01*
X100417Y295770D02*
X97970Y295770D01*
X78848Y282714D02*
X82621Y278218D01*
X78600Y274844D01*
X74827Y279340D01*
X78848Y282714D01*
X77205Y276506D02*
X80581Y276506D01*
X82561Y278168D02*
X75811Y278168D01*
X75411Y279830D02*
X81268Y279830D01*
X79873Y281492D02*
X77392Y281492D01*
X72337Y290474D02*
X68564Y294970D01*
X72337Y290474D02*
X68316Y287100D01*
X64543Y291596D01*
X68564Y294970D01*
X66921Y288762D02*
X70297Y288762D01*
X72277Y290424D02*
X65527Y290424D01*
X65127Y292086D02*
X70984Y292086D01*
X69589Y293748D02*
X67108Y293748D01*
X45030Y271436D02*
X49526Y267663D01*
X45030Y271436D02*
X48404Y275457D01*
X52900Y271684D01*
X49526Y267663D01*
X50921Y269325D02*
X47546Y269325D01*
X45565Y270987D02*
X52315Y270987D01*
X51750Y272649D02*
X46048Y272649D01*
X47442Y274311D02*
X49770Y274311D01*
X57286Y261152D02*
X61782Y257379D01*
X57286Y261152D02*
X60660Y265173D01*
X65156Y261400D01*
X61782Y257379D01*
X63177Y259041D02*
X59802Y259041D01*
X57821Y260703D02*
X64571Y260703D01*
X64006Y262365D02*
X58304Y262365D01*
X59698Y264027D02*
X62026Y264027D01*
X50878Y241805D02*
X45795Y244740D01*
X50878Y241805D02*
X48253Y237260D01*
X43170Y240195D01*
X45795Y244740D01*
X45375Y238922D02*
X49213Y238922D01*
X50173Y240584D02*
X43395Y240584D01*
X44355Y242246D02*
X50114Y242246D01*
X47236Y243908D02*
X45314Y243908D01*
X37022Y249805D02*
X31939Y252740D01*
X37022Y249805D02*
X34397Y245260D01*
X29314Y248195D01*
X31939Y252740D01*
X31519Y246922D02*
X35357Y246922D01*
X36317Y248584D02*
X29539Y248584D01*
X30499Y250246D02*
X36258Y250246D01*
X33380Y251908D02*
X31458Y251908D01*
X17873Y222577D02*
X23388Y220569D01*
X17873Y222577D02*
X19668Y227509D01*
X25183Y225501D01*
X23388Y220569D01*
X23993Y222231D02*
X18823Y222231D01*
X18352Y223893D02*
X24598Y223893D01*
X25035Y225555D02*
X18957Y225555D01*
X19562Y227217D02*
X20470Y227217D01*
X32909Y217105D02*
X38424Y215097D01*
X32909Y217105D02*
X34704Y222037D01*
X40219Y220029D01*
X38424Y215097D01*
X39029Y216759D02*
X33859Y216759D01*
X33388Y218421D02*
X39634Y218421D01*
X40071Y220083D02*
X33993Y220083D01*
X34598Y221745D02*
X35506Y221745D01*
X33503Y196733D02*
X27723Y197752D01*
X33503Y196733D02*
X32591Y191564D01*
X26811Y192583D01*
X27723Y197752D01*
X26924Y193226D02*
X32884Y193226D01*
X33177Y194888D02*
X27218Y194888D01*
X27511Y196550D02*
X33471Y196550D01*
X17747Y199511D02*
X11967Y200530D01*
X17747Y199511D02*
X16835Y194342D01*
X11055Y195361D01*
X11967Y200530D01*
X11168Y196004D02*
X17128Y196004D01*
X17421Y197666D02*
X11462Y197666D01*
X11755Y199328D02*
X17715Y199328D01*
X14935Y167375D02*
X9065Y167375D01*
X9065Y172625D01*
X14935Y172625D01*
X14935Y167375D01*
X14935Y169037D02*
X9065Y169037D01*
X9065Y170699D02*
X14935Y170699D01*
X14935Y172361D02*
X9065Y172361D01*
X25065Y167375D02*
X30935Y167375D01*
X25065Y167375D02*
X25065Y172625D01*
X30935Y172625D01*
X30935Y167375D01*
X30935Y169037D02*
X25065Y169037D01*
X25065Y170699D02*
X30935Y170699D01*
X30935Y172361D02*
X25065Y172361D01*
X26811Y147417D02*
X32591Y148436D01*
X33503Y143267D01*
X27723Y142248D01*
X26811Y147417D01*
X27430Y143910D02*
X33390Y143910D01*
X33096Y145572D02*
X27137Y145572D01*
X26843Y147234D02*
X32803Y147234D01*
X16835Y145658D02*
X11055Y144639D01*
X16835Y145658D02*
X17747Y140489D01*
X11967Y139470D01*
X11055Y144639D01*
X11674Y141132D02*
X17634Y141132D01*
X17340Y142794D02*
X11381Y142794D01*
X11087Y144456D02*
X17047Y144456D01*
X25183Y114499D02*
X19668Y112491D01*
X17873Y117423D01*
X23388Y119431D01*
X25183Y114499D01*
X24233Y114153D02*
X19063Y114153D01*
X18458Y115815D02*
X24704Y115815D01*
X24099Y117477D02*
X18021Y117477D01*
X22586Y119139D02*
X23494Y119139D01*
X34704Y117963D02*
X40219Y119971D01*
X34704Y117963D02*
X32909Y122895D01*
X38424Y124903D01*
X40219Y119971D01*
X39269Y119625D02*
X34099Y119625D01*
X33494Y121287D02*
X39740Y121287D01*
X39135Y122949D02*
X33057Y122949D01*
X37622Y124611D02*
X38530Y124611D01*
X48253Y102740D02*
X43170Y99805D01*
X48253Y102740D02*
X50878Y98195D01*
X45795Y95260D01*
X43170Y99805D01*
X44835Y96922D02*
X48673Y96922D01*
X50653Y98584D02*
X43875Y98584D01*
X43934Y100246D02*
X49693Y100246D01*
X48734Y101908D02*
X46812Y101908D01*
X34397Y94740D02*
X29314Y91805D01*
X34397Y94740D02*
X37022Y90195D01*
X31939Y87260D01*
X29314Y91805D01*
X30979Y88922D02*
X34817Y88922D01*
X36797Y90584D02*
X30019Y90584D01*
X30078Y92246D02*
X35837Y92246D01*
X34878Y93908D02*
X32956Y93908D01*
X52900Y68316D02*
X48404Y64543D01*
X45030Y68564D01*
X49526Y72337D01*
X52900Y68316D01*
X50384Y66205D02*
X47009Y66205D01*
X45615Y67867D02*
X52365Y67867D01*
X51882Y69529D02*
X46180Y69529D01*
X48160Y71191D02*
X50488Y71191D01*
X60660Y74827D02*
X65156Y78600D01*
X60660Y74827D02*
X57286Y78848D01*
X61782Y82621D01*
X65156Y78600D01*
X62640Y76489D02*
X59265Y76489D01*
X57871Y78151D02*
X64621Y78151D01*
X64138Y79813D02*
X58436Y79813D01*
X60416Y81475D02*
X62744Y81475D01*
X78600Y65156D02*
X74827Y60660D01*
X78600Y65156D02*
X82621Y61782D01*
X78848Y57286D01*
X74827Y60660D01*
X76867Y58948D02*
X80243Y58948D01*
X81637Y60610D02*
X74887Y60610D01*
X76180Y62272D02*
X82037Y62272D01*
X80056Y63934D02*
X77575Y63934D01*
X68316Y52900D02*
X64543Y48404D01*
X68316Y52900D02*
X72337Y49526D01*
X68564Y45030D01*
X64543Y48404D01*
X66583Y46692D02*
X69959Y46692D01*
X71353Y48354D02*
X64603Y48354D01*
X65896Y50016D02*
X71753Y50016D01*
X69772Y51678D02*
X67291Y51678D01*
X94740Y34397D02*
X91805Y29314D01*
X87260Y31939D01*
X90195Y37022D01*
X94740Y34397D01*
X92765Y30976D02*
X88927Y30976D01*
X87664Y32638D02*
X93724Y32638D01*
X94684Y34300D02*
X88623Y34300D01*
X89583Y35962D02*
X92030Y35962D01*
X99805Y43170D02*
X102740Y48253D01*
X99805Y43170D02*
X95260Y45795D01*
X98195Y50878D01*
X102740Y48253D01*
X100765Y44832D02*
X96927Y44832D01*
X95664Y46494D02*
X101724Y46494D01*
X102684Y48156D02*
X96623Y48156D01*
X97583Y49818D02*
X100030Y49818D01*
X119971Y40219D02*
X117963Y34704D01*
X119971Y40219D02*
X124903Y38424D01*
X122895Y32909D01*
X117963Y34704D01*
X118328Y34571D02*
X123500Y34571D01*
X124105Y36233D02*
X118520Y36233D01*
X119125Y37895D02*
X124710Y37895D01*
X121790Y39557D02*
X119730Y39557D01*
X114499Y25183D02*
X112491Y19668D01*
X114499Y25183D02*
X119431Y23388D01*
X117423Y17873D01*
X112491Y19668D01*
X112856Y19535D02*
X118028Y19535D01*
X118633Y21197D02*
X113048Y21197D01*
X113653Y22859D02*
X119238Y22859D01*
X116318Y24521D02*
X114258Y24521D01*
X145658Y16835D02*
X144639Y11055D01*
X139470Y11967D01*
X140489Y17747D01*
X145658Y16835D01*
X144932Y12717D02*
X139602Y12717D01*
X139895Y14379D02*
X145225Y14379D01*
X145518Y16041D02*
X140188Y16041D01*
X140481Y17703D02*
X140738Y17703D01*
X147417Y26811D02*
X148436Y32591D01*
X147417Y26811D02*
X142248Y27723D01*
X143267Y33503D01*
X148436Y32591D01*
X147710Y28473D02*
X142380Y28473D01*
X142673Y30135D02*
X148003Y30135D01*
X148296Y31797D02*
X142966Y31797D01*
X143259Y33459D02*
X143516Y33459D01*
X167375Y30935D02*
X167375Y25065D01*
X167375Y30935D02*
X172625Y30935D01*
X172625Y25065D01*
X167375Y25065D01*
X167375Y26727D02*
X172625Y26727D01*
X172625Y28389D02*
X167375Y28389D01*
X167375Y30051D02*
X172625Y30051D01*
X167375Y14935D02*
X167375Y9065D01*
X167375Y14935D02*
X172625Y14935D01*
X172625Y9065D01*
X167375Y9065D01*
X167375Y10727D02*
X172625Y10727D01*
X172625Y12389D02*
X167375Y12389D01*
X167375Y14051D02*
X172625Y14051D01*
X199511Y17747D02*
X200530Y11967D01*
X195361Y11055D01*
X194342Y16835D01*
X199511Y17747D01*
X200398Y12717D02*
X195068Y12717D01*
X194775Y14379D02*
X200105Y14379D01*
X199812Y16041D02*
X194482Y16041D01*
X199262Y17703D02*
X199519Y17703D01*
X197752Y27723D02*
X196733Y33503D01*
X197752Y27723D02*
X192583Y26811D01*
X191564Y32591D01*
X196733Y33503D01*
X197620Y28473D02*
X192290Y28473D01*
X191997Y30135D02*
X197327Y30135D01*
X197034Y31797D02*
X191704Y31797D01*
X196484Y33459D02*
X196741Y33459D01*
X215097Y38424D02*
X217105Y32909D01*
X215097Y38424D02*
X220029Y40219D01*
X222037Y34704D01*
X217105Y32909D01*
X216500Y34571D02*
X221672Y34571D01*
X221480Y36233D02*
X215895Y36233D01*
X215290Y37895D02*
X220875Y37895D01*
X220270Y39557D02*
X218210Y39557D01*
X220569Y23388D02*
X222577Y17873D01*
X220569Y23388D02*
X225501Y25183D01*
X227509Y19668D01*
X222577Y17873D01*
X221972Y19535D02*
X227144Y19535D01*
X226952Y21197D02*
X221367Y21197D01*
X220762Y22859D02*
X226347Y22859D01*
X225742Y24521D02*
X223682Y24521D01*
X249805Y37022D02*
X252740Y31939D01*
X248195Y29314D01*
X245260Y34397D01*
X249805Y37022D01*
X251073Y30976D02*
X247235Y30976D01*
X246276Y32638D02*
X252336Y32638D01*
X251377Y34300D02*
X245316Y34300D01*
X247970Y35962D02*
X250417Y35962D01*
X244740Y45795D02*
X241805Y50878D01*
X244740Y45795D02*
X240195Y43170D01*
X237260Y48253D01*
X241805Y50878D01*
X243073Y44832D02*
X239235Y44832D01*
X238276Y46494D02*
X244336Y46494D01*
X243377Y48156D02*
X237316Y48156D01*
X239970Y49818D02*
X242417Y49818D01*
X257379Y61782D02*
X261152Y57286D01*
X257379Y61782D02*
X261400Y65156D01*
X265173Y60660D01*
X261152Y57286D01*
X259757Y58948D02*
X263133Y58948D01*
X265113Y60610D02*
X258363Y60610D01*
X257963Y62272D02*
X263820Y62272D01*
X262425Y63934D02*
X259944Y63934D01*
X267663Y49526D02*
X271436Y45030D01*
X267663Y49526D02*
X271684Y52900D01*
X275457Y48404D01*
X271436Y45030D01*
X270041Y46692D02*
X273417Y46692D01*
X275397Y48354D02*
X268647Y48354D01*
X268247Y50016D02*
X274104Y50016D01*
X272709Y51678D02*
X270228Y51678D01*
X290474Y72337D02*
X294970Y68564D01*
X291596Y64543D01*
X287100Y68316D01*
X290474Y72337D01*
X289616Y66205D02*
X292991Y66205D01*
X294385Y67867D02*
X287635Y67867D01*
X288118Y69529D02*
X293820Y69529D01*
X291840Y71191D02*
X289512Y71191D01*
X282714Y78848D02*
X278218Y82621D01*
X282714Y78848D02*
X279340Y74827D01*
X274844Y78600D01*
X278218Y82621D01*
X277360Y76489D02*
X280735Y76489D01*
X282129Y78151D02*
X275379Y78151D01*
X275862Y79813D02*
X281564Y79813D01*
X279584Y81475D02*
X277256Y81475D01*
X289122Y98195D02*
X294205Y95260D01*
X289122Y98195D02*
X291747Y102740D01*
X296830Y99805D01*
X294205Y95260D01*
X295165Y96922D02*
X291327Y96922D01*
X289347Y98584D02*
X296125Y98584D01*
X296066Y100246D02*
X290307Y100246D01*
X291266Y101908D02*
X293188Y101908D01*
X302978Y90195D02*
X308061Y87260D01*
X302978Y90195D02*
X305603Y94740D01*
X310686Y91805D01*
X308061Y87260D01*
X309021Y88922D02*
X305183Y88922D01*
X303203Y90584D02*
X309981Y90584D01*
X309922Y92246D02*
X304163Y92246D01*
X305122Y93908D02*
X307044Y93908D01*
X316612Y119431D02*
X322127Y117423D01*
X320332Y112491D01*
X314817Y114499D01*
X316612Y119431D01*
X315767Y114153D02*
X320937Y114153D01*
X321542Y115815D02*
X315296Y115815D01*
X315901Y117477D02*
X321979Y117477D01*
X317414Y119139D02*
X316506Y119139D01*
X307091Y122895D02*
X301576Y124903D01*
X307091Y122895D02*
X305296Y117963D01*
X299781Y119971D01*
X301576Y124903D01*
X300731Y119625D02*
X305901Y119625D01*
X306506Y121287D02*
X300260Y121287D01*
X300865Y122949D02*
X306943Y122949D01*
X302378Y124611D02*
X301470Y124611D01*
X306497Y143267D02*
X312277Y142248D01*
X306497Y143267D02*
X307409Y148436D01*
X313189Y147417D01*
X312277Y142248D01*
X312570Y143910D02*
X306610Y143910D01*
X306904Y145572D02*
X312863Y145572D01*
X313157Y147234D02*
X307197Y147234D01*
X322253Y140489D02*
X328033Y139470D01*
X322253Y140489D02*
X323165Y145658D01*
X328945Y144639D01*
X328033Y139470D01*
X328326Y141132D02*
X322366Y141132D01*
X322660Y142794D02*
X328619Y142794D01*
X328913Y144456D02*
X322953Y144456D01*
X325065Y172625D02*
X330935Y172625D01*
X330935Y167375D01*
X325065Y167375D01*
X325065Y172625D01*
X325065Y169037D02*
X330935Y169037D01*
X330935Y170699D02*
X325065Y170699D01*
X325065Y172361D02*
X330935Y172361D01*
X314935Y172625D02*
X309065Y172625D01*
X314935Y172625D02*
X314935Y167375D01*
X309065Y167375D01*
X309065Y172625D01*
X309065Y169037D02*
X314935Y169037D01*
X314935Y170699D02*
X309065Y170699D01*
X309065Y172361D02*
X314935Y172361D01*
D11*
X125000Y255000D03*
X135000Y255000D03*
X125000Y245000D03*
X135000Y245000D03*
X125000Y235000D03*
X135000Y235000D03*
X125000Y225000D03*
X135000Y225000D03*
X125000Y215000D03*
X135000Y215000D03*
X215000Y220000D03*
X205000Y220000D03*
X215000Y250000D03*
X205000Y250000D03*
D21*
X170000Y211000D02*
X164000Y205000D01*
X170000Y211000D02*
X170000Y216000D01*
X185000Y112500D02*
X189782Y112500D01*
X185000Y112500D02*
X182500Y115000D01*
X182500Y120000D01*
X185000Y122500D02*
X189782Y122500D01*
X185000Y122500D02*
X182500Y120000D01*
X189782Y122500D02*
X197833Y122500D01*
D22*
X197833Y122500D03*
X197500Y135000D03*
X20000Y180000D03*
X20000Y160000D03*
X30000Y160000D03*
X152500Y300000D03*
D21*
X185000Y300000D02*
X205000Y280000D01*
D22*
X205000Y280000D03*
X230000Y280000D03*
D21*
X185000Y300000D02*
X152500Y300000D01*
X182500Y105218D02*
X203782Y105218D01*
X205000Y104000D01*
X200000Y127500D02*
X189782Y127500D01*
X200000Y127500D02*
X205000Y122500D01*
X205000Y116000D01*
X218567Y303436D02*
X194658Y309843D01*
X278779Y78724D02*
X261276Y61221D01*
X145342Y30157D02*
X121433Y36564D01*
X28000Y170000D02*
X30157Y194658D01*
X50500Y215000D02*
X125000Y215000D01*
X50500Y215000D02*
X30157Y194658D01*
X28000Y170000D02*
X40524Y170000D01*
D22*
X40524Y170000D03*
X180000Y320000D03*
D21*
X184500Y320000D01*
X194658Y309843D01*
D22*
X155000Y30000D03*
D21*
X145500Y30000D01*
X145342Y30157D01*
D22*
X250000Y70000D03*
D21*
X252497Y70000D01*
X261276Y61221D01*
X118940Y302274D02*
X99000Y292976D01*
X118940Y302274D02*
X121433Y303436D01*
X312000Y170000D02*
X309843Y145342D01*
X241000Y47024D02*
X218567Y36564D01*
X61221Y78724D02*
X47024Y99000D01*
D22*
X50000Y110000D03*
X100000Y280000D03*
D21*
X100000Y291976D02*
X99000Y292976D01*
X100000Y291976D02*
X100000Y280000D01*
X215000Y45000D02*
X215000Y40130D01*
X218567Y36564D01*
D22*
X215000Y45000D03*
X305000Y135000D03*
D21*
X309843Y139843D01*
X309843Y145342D01*
X47024Y107024D02*
X47024Y99000D01*
X47024Y107024D02*
X50000Y110000D01*
X205000Y260000D02*
X215000Y250000D01*
X205000Y260000D02*
X200000Y260000D01*
X185000Y275000D01*
D22*
X185000Y275000D03*
D21*
X182500Y134782D02*
X182500Y130000D01*
X152718Y105000D02*
X146000Y105000D01*
X152718Y105000D02*
X160218Y112500D01*
X160218Y122500D02*
X155000Y122500D01*
X152500Y120000D01*
X152500Y114630D01*
X154630Y112500D02*
X160218Y112500D01*
X154630Y112500D02*
X152500Y114630D01*
X135000Y120000D02*
X135000Y130000D01*
X135000Y116000D02*
X146000Y105000D01*
X135000Y116000D02*
X135000Y120000D01*
X176000Y205000D02*
X175000Y206000D01*
X175000Y216000D01*
X176000Y205000D02*
X225000Y205000D01*
X230000Y210000D01*
X230000Y230000D02*
X215000Y230000D01*
D22*
X230000Y230000D03*
D21*
X230000Y210000D01*
X182500Y130000D02*
X180000Y127500D01*
X170000Y127500D01*
X165000Y122500D02*
X160218Y122500D01*
X165000Y122500D02*
X170000Y127500D01*
D22*
X140000Y300000D03*
D21*
X150000Y290000D01*
X230000Y252500D02*
X230000Y230000D01*
X185000Y290000D02*
X150000Y290000D01*
X185000Y290000D02*
X202500Y272500D01*
X210000Y272500D01*
X230000Y252500D01*
X182500Y142500D02*
X182500Y134782D01*
D22*
X182500Y142500D03*
D21*
X199000Y242500D02*
X220000Y242500D01*
X199000Y242500D02*
X196500Y240000D01*
X189000Y240000D01*
D22*
X220000Y242500D03*
X160000Y190000D03*
D21*
X159050Y189050D01*
X142060Y189050D01*
X199000Y230000D02*
X205000Y230000D01*
X199000Y230000D02*
X194000Y235000D01*
X189000Y235000D01*
D22*
X192500Y275000D03*
D21*
X202500Y265000D02*
X210000Y265000D01*
X202500Y265000D02*
X192500Y275000D01*
X210000Y265000D02*
X225000Y250000D01*
X225000Y240000D01*
X222500Y237500D01*
X210000Y237500D01*
X205000Y232500D01*
X205000Y230000D01*
X159902Y311117D02*
X145342Y309843D01*
X159902Y311117D02*
X170000Y312000D01*
X303436Y121433D02*
X292976Y99000D01*
X170174Y28015D02*
X170000Y28000D01*
X170174Y28015D02*
X194658Y30157D01*
X36564Y121433D02*
X30157Y145342D01*
X170000Y312000D02*
X180000Y312000D01*
X235000Y257000D01*
X37997Y120000D02*
X36564Y121433D01*
X37997Y120000D02*
X45000Y120000D01*
D22*
X45000Y120000D03*
X127500Y310000D03*
D21*
X145185Y310000D01*
X145342Y309843D01*
X194658Y34658D02*
X194658Y30157D01*
X194658Y34658D02*
X200000Y40000D01*
D22*
X200000Y40000D03*
X270000Y110000D03*
D21*
X281976Y110000D01*
X292976Y99000D01*
D22*
X235000Y215000D03*
X225000Y215000D03*
D21*
X220000Y215000D01*
X215000Y220000D01*
X235000Y215000D02*
X235000Y257000D01*
X190000Y94000D02*
X194000Y90000D01*
X190000Y94000D02*
X190000Y100000D01*
D22*
X190000Y100000D03*
D21*
X189782Y117500D02*
X195000Y117500D01*
X197500Y115000D01*
D22*
X197500Y115000D03*
D21*
X325599Y197436D02*
X318472Y224039D01*
X306832Y249000D01*
X291035Y271560D01*
X271560Y291035D01*
X249000Y306832D01*
X224039Y318472D01*
X210558Y322084D01*
X197436Y325599D01*
X170000Y328000D01*
X142564Y325599D01*
X115961Y318472D01*
X91000Y306832D01*
X115000Y255000D02*
X125000Y255000D01*
X115000Y255000D02*
X90000Y280000D01*
X90000Y305832D01*
X91000Y306832D01*
D22*
X210558Y322084D03*
D21*
X303436Y218567D02*
X309843Y194658D01*
X48965Y68440D02*
X33168Y91000D01*
X21528Y115961D01*
X14401Y142564D02*
X12000Y170000D01*
X14401Y197436D01*
X21528Y224039D01*
X33168Y249000D01*
X48965Y271560D02*
X68440Y291035D01*
X14401Y142564D02*
X21528Y115961D01*
X33168Y249000D02*
X48965Y271560D01*
X115000Y245000D02*
X125000Y245000D01*
X115000Y245000D02*
X110000Y250000D01*
X60000Y250000D01*
X48965Y261035D01*
X48965Y271560D01*
D22*
X110000Y250000D03*
X280000Y220000D03*
D21*
X302003Y220000D01*
X303436Y218567D01*
X292976Y241000D02*
X278779Y261276D01*
X249000Y33168D02*
X224039Y21528D01*
X197436Y14401D01*
X170000Y12000D01*
X142564Y14401D01*
X115961Y21528D01*
X91000Y33168D01*
X68440Y48965D01*
X61221Y261276D02*
X78724Y278779D01*
X90000Y267503D01*
X90000Y260000D01*
D22*
X90000Y260000D03*
D21*
X115000Y235000D02*
X125000Y235000D01*
X115000Y235000D02*
X110000Y240000D01*
D22*
X110000Y240000D03*
D21*
X70000Y50525D02*
X68440Y48965D01*
X70000Y50525D02*
X70000Y90000D01*
D22*
X70000Y90000D03*
X250000Y260000D03*
D21*
X277503Y260000D01*
X278779Y261276D01*
X259846Y279780D02*
X241000Y292976D01*
X259846Y279780D02*
X261276Y278779D01*
X328000Y170000D02*
X325599Y142564D01*
X318472Y115961D01*
X306832Y91000D01*
X291035Y68440D01*
X271560Y48965D01*
X36564Y218567D02*
X37726Y221060D01*
X47024Y241000D01*
X78724Y61221D02*
X99000Y47024D01*
X78724Y61221D02*
X78724Y91276D01*
X70000Y100000D01*
D22*
X70000Y100000D03*
X60000Y220000D03*
D21*
X38786Y220000D01*
X37726Y221060D01*
X318000Y180000D02*
X328000Y170000D01*
X318000Y180000D02*
X290000Y180000D01*
D22*
X290000Y180000D03*
X260000Y270000D03*
D21*
X260000Y279626D01*
X259846Y279780D01*
X125000Y225000D02*
X115000Y225000D01*
X110000Y220000D01*
D22*
X110000Y220000D03*
D21*
X151000Y245000D02*
X155000Y245000D01*
X160000Y240000D01*
X160000Y225000D01*
X150000Y215000D02*
X150000Y210000D01*
D22*
X150000Y210000D03*
D21*
X150000Y215000D02*
X160000Y225000D01*
D22*
X147500Y112500D03*
D21*
X145000Y115000D01*
X145000Y120000D01*
X152500Y127500D02*
X160218Y127500D01*
X152500Y127500D02*
X145000Y120000D01*
D22*
X150000Y280000D03*
D21*
X150000Y246000D02*
X151000Y245000D01*
X150000Y246000D02*
X150000Y280000D01*
X180000Y254000D02*
X180000Y225000D01*
X190000Y215000D02*
X190000Y210000D01*
D22*
X190000Y210000D03*
D21*
X190000Y215000D02*
X180000Y225000D01*
D22*
X155000Y145000D03*
D21*
X155000Y140000D01*
X145000Y130000D01*
X149782Y134782D02*
X167500Y134782D01*
X149782Y134782D02*
X145000Y130000D01*
D22*
X180000Y280000D03*
D21*
X180000Y254000D01*
X200000Y220000D02*
X205000Y220000D01*
X200000Y220000D02*
X195000Y225000D01*
X189000Y225000D01*
X200000Y250000D02*
X205000Y250000D01*
X200000Y250000D02*
X195000Y245000D01*
X189000Y245000D01*
X142500Y255000D02*
X135000Y255000D01*
D22*
X142500Y255000D03*
X154282Y255000D03*
D21*
X159000Y255000D01*
X160000Y254000D01*
X140000Y240000D02*
X135000Y245000D01*
X140000Y240000D02*
X151000Y240000D01*
X151000Y235000D02*
X135000Y235000D01*
X140000Y230000D02*
X135000Y225000D01*
X140000Y230000D02*
X151000Y230000D01*
X151000Y225000D02*
X145000Y225000D01*
X135000Y215000D01*
M02*
